M48
;DRILL file {KiCad 4.0.2-stable} date 15/07/2016 11:54:42
;FORMAT={-:-/ absolute / metric / decimal}
FMAT,2
METRIC,TZ
T1C0.400
T2C1.016
T3C3.048
%
G90
G05
M71
T1
X29.845Y-29.845
X31.115Y-33.02
X31.115Y-35.56
X33.655Y-42.545
X33.655Y-47.625
X34.29Y-27.94
X34.29Y-52.07
X39.37Y-52.705
X41.91Y-42.545
X41.91Y-48.26
X45.085Y-62.865
X45.72Y-29.845
X46.99Y-62.23
X50.165Y-54.61
X57.15Y-40.005
X57.15Y-62.865
X59.69Y-62.23
X60.96Y-24.765
X62.865Y-52.705
X63.5Y-26.67
X63.5Y-48.26
X63.5Y-62.865
X64.135Y-31.75
X67.945Y-34.29
X68.58Y-24.765
X69.215Y-39.37
X72.39Y-26.67
X72.39Y-33.02
X72.39Y-38.1
X72.39Y-43.815
X73.66Y-40.005
X76.2Y-48.26
X76.2Y-59.69
X77.47Y-31.75
X77.47Y-50.927
X78.105Y-39.37
X83.185Y-33.655
X83.185Y-53.975
X84.455Y-49.53
X84.455Y-55.88
X86.995Y-52.705
X90.17Y-26.67
X91.44Y-34.925
X92.075Y-44.45
X93.345Y-35.56
T2
X27.94Y-34.29
X27.94Y-36.83
X27.94Y-39.37
X27.94Y-41.91
X27.94Y-44.45
X27.94Y-46.99
X27.94Y-49.53
X27.94Y-52.07
X35.56Y-25.4
X38.1Y-25.4
X40.64Y-25.4
X43.18Y-25.4
X45.72Y-25.4
X48.26Y-25.4
X48.26Y-35.56
X48.26Y-40.64
X48.26Y-45.72
X50.8Y-35.56
X50.8Y-40.64
X50.8Y-45.72
X53.34Y-25.4
X53.34Y-35.56
X53.34Y-40.64
X53.34Y-45.72
T3
X26.67Y-24.13
X26.67Y-62.23
X119.38Y-24.13
X119.38Y-62.23
T0
M30
