M48
; DRILL file {KiCad (5.1.10)-1} date 10/26/21 22:21:33
; FORMAT={-:-/ absolute / inch / decimal}
; #@! TF.CreationDate,2021-10-26T22:21:33+02:00
; #@! TF.GenerationSoftware,Kicad,Pcbnew,(5.1.10)-1
; #@! TF.FileFunction,Plated,1,2,PTH
FMAT,2
INCH
T1C0.0157
T2C0.0394
T3C0.1200
%
G90
G05
T1
X1.4134Y-2.2953
X1.4134Y-1.0276
X1.4134Y-1.2795
X1.4134Y-1.5157
X1.4134Y-1.7874
X1.4134Y-2.063
X1.626Y-1.2795
X1.626Y-1.4764
X1.626Y-1.5512
X1.626Y-1.8268
X1.626Y-2.0276
X1.626Y-2.0984
X1.7362Y-1.4291
X1.7362Y-1.5276
X1.7362Y-2.0394
X1.7362Y-2.2953
X1.7992Y-1.3504
X1.878Y-1.3504
X1.9409Y-2.0433
X1.9409Y-2.2953
X1.9528Y-1.3937
X2.0472Y-1.5315
X2.0472Y-2.0394
X2.1063Y-1.8465
X2.2323Y-1.1693
X2.2559Y-1.5315
X2.2559Y-2.0394
X2.2559Y-2.2953
X2.311Y-1.0276
X2.3268Y-1.3622
X2.3819Y-1.5118
X2.3819Y-1.7835
X2.3858Y-2.2992
X2.5787Y-1.2717
X2.5787Y-1.5512
X2.5787Y-2.0394
X2.5866Y-1.4331
X2.6772Y-1.3622
X2.689Y-1.0354
X2.7008Y-1.622
X2.7008Y-1.8071
X2.7008Y-2.0394
X2.9055Y-1.5315
X3.0545Y-1.7717
X3.0551Y-2.1142
X3.0551Y-2.2047
X3.1417Y-1.8976
X3.4331Y-1.7362
X3.5118Y-1.4213
X3.5354Y-1.2835
X3.5354Y-1.6063
X3.5354Y-1.8976
X3.5354Y-2.2047
X3.6772Y-1.3819
X3.7323Y-1.937
X3.7362Y-1.6457
T2
X1.189Y-1.4331
X1.189Y-1.5331
X1.189Y-1.6331
X1.189Y-1.7331
X1.189Y-1.8331
X1.189Y-1.9331
X1.189Y-2.0331
X4.2835Y-1.4331
X4.2835Y-1.5331
X4.2835Y-1.6331
X4.2835Y-1.7331
X4.2835Y-1.8331
X4.2835Y-1.9331
X4.2835Y-2.0331
T3
X1.05Y-0.95
X1.05Y-2.45
X4.65Y-0.95
X4.65Y-2.45
T0
M30
