%TF.GenerationSoftware,KiCad,Pcbnew,(5.1.10)-1*%
%TF.CreationDate,2021-10-26T22:21:35+02:00*%
%TF.ProjectId,TMS9929_RGB_Adapter,544d5339-3932-4395-9f52-47425f416461,0*%
%TF.SameCoordinates,Original*%
%TF.FileFunction,Other,User*%
%FSLAX46Y46*%
G04 Gerber Fmt 4.6, Leading zero omitted, Abs format (unit mm)*
G04 Created by KiCad (PCBNEW (5.1.10)-1) date 2021-10-26 22:21:35*
%MOMM*%
%LPD*%
G01*
G04 APERTURE LIST*
%ADD10C,0.050000*%
G04 APERTURE END LIST*
D10*
%TO.C,R5*%
X48550000Y-37925000D02*
X48550000Y-39825000D01*
X48550000Y-39825000D02*
X44850000Y-39825000D01*
X44850000Y-39825000D02*
X44850000Y-37925000D01*
X44850000Y-37925000D02*
X48550000Y-37925000D01*
%TO.C,R26*%
X102250000Y-57350000D02*
X102250000Y-59250000D01*
X102250000Y-59250000D02*
X98550000Y-59250000D01*
X98550000Y-59250000D02*
X98550000Y-57350000D01*
X98550000Y-57350000D02*
X102250000Y-57350000D01*
%TO.C,R25*%
X102250000Y-46783332D02*
X102250000Y-48683332D01*
X102250000Y-48683332D02*
X98550000Y-48683332D01*
X98550000Y-48683332D02*
X98550000Y-46783332D01*
X98550000Y-46783332D02*
X102250000Y-46783332D01*
%TO.C,R24*%
X98550000Y-38116666D02*
X98550000Y-36216666D01*
X98550000Y-36216666D02*
X102250000Y-36216666D01*
X102250000Y-36216666D02*
X102250000Y-38116666D01*
X102250000Y-38116666D02*
X98550000Y-38116666D01*
%TO.C,R23*%
X98550000Y-27550000D02*
X98550000Y-25650000D01*
X98550000Y-25650000D02*
X102250000Y-25650000D01*
X102250000Y-25650000D02*
X102250000Y-27550000D01*
X102250000Y-27550000D02*
X98550000Y-27550000D01*
%TO.C,J2*%
X107000000Y-34600000D02*
X107000000Y-53450000D01*
X107000000Y-53450000D02*
X110600000Y-53450000D01*
X110600000Y-53450000D02*
X110600000Y-34600000D01*
X110600000Y-34600000D02*
X107000000Y-34600000D01*
%TO.C,J1*%
X28400000Y-34600000D02*
X28400000Y-53450000D01*
X28400000Y-53450000D02*
X32000000Y-53450000D01*
X32000000Y-53450000D02*
X32000000Y-34600000D01*
X32000000Y-34600000D02*
X28400000Y-34600000D01*
%TO.C,C4*%
X73800000Y-24400000D02*
X73800000Y-25250000D01*
X73800000Y-25250000D02*
X74750000Y-25250000D01*
X74750000Y-25250000D02*
X74750000Y-27350000D01*
X74750000Y-27350000D02*
X73800000Y-27350000D01*
X73800000Y-27350000D02*
X73800000Y-28200000D01*
X70970000Y-28200000D02*
X73800000Y-28200000D01*
X70970000Y-24400000D02*
X73800000Y-24400000D01*
X70120000Y-27350000D02*
X70970000Y-28200000D01*
X70120000Y-25250000D02*
X70970000Y-24400000D01*
X70120000Y-25250000D02*
X69050000Y-25250000D01*
X69050000Y-25250000D02*
X69050000Y-27350000D01*
X69050000Y-27350000D02*
X70120000Y-27350000D01*
%TO.C,C3*%
X56400000Y-24100000D02*
X56400000Y-24950000D01*
X56400000Y-24950000D02*
X57350000Y-24950000D01*
X57350000Y-24950000D02*
X57350000Y-27050000D01*
X57350000Y-27050000D02*
X56400000Y-27050000D01*
X56400000Y-27050000D02*
X56400000Y-27900000D01*
X53570000Y-27900000D02*
X56400000Y-27900000D01*
X53570000Y-24100000D02*
X56400000Y-24100000D01*
X52720000Y-27050000D02*
X53570000Y-27900000D01*
X52720000Y-24950000D02*
X53570000Y-24100000D01*
X52720000Y-24950000D02*
X51650000Y-24950000D01*
X51650000Y-24950000D02*
X51650000Y-27050000D01*
X51650000Y-27050000D02*
X52720000Y-27050000D01*
%TO.C,C2*%
X73800000Y-56400000D02*
X73800000Y-57250000D01*
X73800000Y-57250000D02*
X74750000Y-57250000D01*
X74750000Y-57250000D02*
X74750000Y-59350000D01*
X74750000Y-59350000D02*
X73800000Y-59350000D01*
X73800000Y-59350000D02*
X73800000Y-60200000D01*
X70970000Y-60200000D02*
X73800000Y-60200000D01*
X70970000Y-56400000D02*
X73800000Y-56400000D01*
X70120000Y-59350000D02*
X70970000Y-60200000D01*
X70120000Y-57250000D02*
X70970000Y-56400000D01*
X70120000Y-57250000D02*
X69050000Y-57250000D01*
X69050000Y-57250000D02*
X69050000Y-59350000D01*
X69050000Y-59350000D02*
X70120000Y-59350000D01*
%TO.C,C1*%
X41450000Y-24250000D02*
X41450000Y-25100000D01*
X41450000Y-25100000D02*
X42400000Y-25100000D01*
X42400000Y-25100000D02*
X42400000Y-27200000D01*
X42400000Y-27200000D02*
X41450000Y-27200000D01*
X41450000Y-27200000D02*
X41450000Y-28050000D01*
X38620000Y-28050000D02*
X41450000Y-28050000D01*
X38620000Y-24250000D02*
X41450000Y-24250000D01*
X37770000Y-27200000D02*
X38620000Y-28050000D01*
X37770000Y-25100000D02*
X38620000Y-24250000D01*
X37770000Y-25100000D02*
X36700000Y-25100000D01*
X36700000Y-25100000D02*
X36700000Y-27200000D01*
X36700000Y-27200000D02*
X37770000Y-27200000D01*
%TO.C,Q2*%
X94100000Y-39050000D02*
X94100000Y-42550000D01*
X90700000Y-39050000D02*
X94100000Y-39050000D01*
X90700000Y-42550000D02*
X90700000Y-39050000D01*
X94100000Y-42550000D02*
X90700000Y-42550000D01*
%TO.C,Q3*%
X94100000Y-46500000D02*
X94100000Y-50000000D01*
X90700000Y-46500000D02*
X94100000Y-46500000D01*
X90700000Y-50000000D02*
X90700000Y-46500000D01*
X94100000Y-50000000D02*
X90700000Y-50000000D01*
%TO.C,Q4*%
X94100000Y-54300000D02*
X94100000Y-57800000D01*
X90700000Y-54300000D02*
X94100000Y-54300000D01*
X90700000Y-57800000D02*
X90700000Y-54300000D01*
X94100000Y-57800000D02*
X90700000Y-57800000D01*
%TO.C,Q1*%
X94100000Y-30800000D02*
X94100000Y-34300000D01*
X90700000Y-30800000D02*
X94100000Y-30800000D01*
X90700000Y-34300000D02*
X90700000Y-30800000D01*
X94100000Y-34300000D02*
X90700000Y-34300000D01*
%TO.C,Q9*%
X40500000Y-43700000D02*
X40500000Y-47200000D01*
X37100000Y-43700000D02*
X40500000Y-43700000D01*
X37100000Y-47200000D02*
X37100000Y-43700000D01*
X40500000Y-47200000D02*
X37100000Y-47200000D01*
%TO.C,R2*%
X48550000Y-52750000D02*
X44850000Y-52750000D01*
X48550000Y-50850000D02*
X48550000Y-52750000D01*
X44850000Y-50850000D02*
X48550000Y-50850000D01*
X44850000Y-52750000D02*
X44850000Y-50850000D01*
%TO.C,RV1 - Green*%
X86450000Y-35970000D02*
X86450000Y-30470000D01*
X86450000Y-30470000D02*
X78800000Y-30470000D01*
X78800000Y-30470000D02*
X78800000Y-35970000D01*
X78800000Y-35970000D02*
X86450000Y-35970000D01*
%TO.C,R16*%
X102250000Y-30933333D02*
X102250000Y-32833333D01*
X102250000Y-32833333D02*
X98550000Y-32833333D01*
X98550000Y-32833333D02*
X98550000Y-30933333D01*
X98550000Y-30933333D02*
X102250000Y-30933333D01*
%TO.C,R6*%
X56350000Y-37950000D02*
X56350000Y-39850000D01*
X56350000Y-39850000D02*
X52650000Y-39850000D01*
X52650000Y-39850000D02*
X52650000Y-37950000D01*
X52650000Y-37950000D02*
X56350000Y-37950000D01*
%TO.C,Q10*%
X40500000Y-50700000D02*
X40500000Y-54200000D01*
X37100000Y-50700000D02*
X40500000Y-50700000D01*
X37100000Y-54200000D02*
X37100000Y-50700000D01*
X40500000Y-54200000D02*
X37100000Y-54200000D01*
%TO.C,Q8*%
X40500000Y-36700000D02*
X40500000Y-40200000D01*
X37100000Y-36700000D02*
X40500000Y-36700000D01*
X37100000Y-40200000D02*
X37100000Y-36700000D01*
X40500000Y-40200000D02*
X37100000Y-40200000D01*
%TO.C,R10*%
X61250000Y-46300000D02*
X61250000Y-44400000D01*
X61250000Y-44400000D02*
X64950000Y-44400000D01*
X64950000Y-44400000D02*
X64950000Y-46300000D01*
X64950000Y-46300000D02*
X61250000Y-46300000D01*
%TO.C,R4*%
X64950000Y-31350000D02*
X64950000Y-33250000D01*
X64950000Y-33250000D02*
X61250000Y-33250000D01*
X61250000Y-33250000D02*
X61250000Y-31350000D01*
X61250000Y-31350000D02*
X64950000Y-31350000D01*
%TO.C,Q7*%
X64800000Y-56650000D02*
X64800000Y-60150000D01*
X61400000Y-56650000D02*
X64800000Y-56650000D01*
X61400000Y-60150000D02*
X61400000Y-56650000D01*
X64800000Y-60150000D02*
X61400000Y-60150000D01*
%TO.C,R1*%
X40650000Y-33450000D02*
X36950000Y-33450000D01*
X40650000Y-31550000D02*
X40650000Y-33450000D01*
X36950000Y-31550000D02*
X40650000Y-31550000D01*
X36950000Y-33450000D02*
X36950000Y-31550000D01*
%TO.C,R20*%
X56350000Y-31450000D02*
X56350000Y-33350000D01*
X56350000Y-33350000D02*
X52650000Y-33350000D01*
X52650000Y-33350000D02*
X52650000Y-31450000D01*
X52650000Y-31450000D02*
X56350000Y-31450000D01*
%TO.C,Q6*%
X69700000Y-46750000D02*
X69700000Y-43250000D01*
X73100000Y-46750000D02*
X69700000Y-46750000D01*
X73100000Y-43250000D02*
X73100000Y-46750000D01*
X69700000Y-43250000D02*
X73100000Y-43250000D01*
%TO.C,Q5*%
X64800000Y-36650000D02*
X64800000Y-40150000D01*
X61400000Y-36650000D02*
X64800000Y-36650000D01*
X61400000Y-40150000D02*
X61400000Y-36650000D01*
X64800000Y-40150000D02*
X61400000Y-40150000D01*
%TO.C,R3*%
X48550000Y-31450000D02*
X48550000Y-33350000D01*
X48550000Y-33350000D02*
X44850000Y-33350000D01*
X44850000Y-33350000D02*
X44850000Y-31450000D01*
X44850000Y-31450000D02*
X48550000Y-31450000D01*
%TO.C,R7*%
X48550000Y-44400000D02*
X48550000Y-46300000D01*
X48550000Y-46300000D02*
X44850000Y-46300000D01*
X44850000Y-46300000D02*
X44850000Y-44400000D01*
X44850000Y-44400000D02*
X48550000Y-44400000D01*
%TO.C,R22*%
X61250000Y-52750000D02*
X61250000Y-50850000D01*
X61250000Y-50850000D02*
X64950000Y-50850000D01*
X64950000Y-50850000D02*
X64950000Y-52750000D01*
X64950000Y-52750000D02*
X61250000Y-52750000D01*
%TO.C,R13*%
X56350000Y-57350000D02*
X56350000Y-59250000D01*
X56350000Y-59250000D02*
X52650000Y-59250000D01*
X52650000Y-59250000D02*
X52650000Y-57350000D01*
X52650000Y-57350000D02*
X56350000Y-57350000D01*
%TO.C,R11*%
X56350000Y-44400000D02*
X56350000Y-46300000D01*
X56350000Y-46300000D02*
X52650000Y-46300000D01*
X52650000Y-46300000D02*
X52650000Y-44400000D01*
X52650000Y-44400000D02*
X56350000Y-44400000D01*
%TO.C,R18*%
X69550000Y-39850000D02*
X69550000Y-37950000D01*
X69550000Y-37950000D02*
X73250000Y-37950000D01*
X73250000Y-37950000D02*
X73250000Y-39850000D01*
X73250000Y-39850000D02*
X69550000Y-39850000D01*
%TO.C,R8*%
X56350000Y-50850000D02*
X56350000Y-52750000D01*
X56350000Y-52750000D02*
X52650000Y-52750000D01*
X52650000Y-52750000D02*
X52650000Y-50850000D01*
X52650000Y-50850000D02*
X56350000Y-50850000D01*
%TO.C,R19*%
X36950000Y-59250000D02*
X36950000Y-57350000D01*
X36950000Y-57350000D02*
X40650000Y-57350000D01*
X40650000Y-57350000D02*
X40650000Y-59250000D01*
X40650000Y-59250000D02*
X36950000Y-59250000D01*
%TO.C,R9*%
X48550000Y-57350000D02*
X48550000Y-59250000D01*
X48550000Y-59250000D02*
X44850000Y-59250000D01*
X44850000Y-59250000D02*
X44850000Y-57350000D01*
X44850000Y-57350000D02*
X48550000Y-57350000D01*
%TO.C,R14*%
X102250000Y-52066665D02*
X102250000Y-53966665D01*
X102250000Y-53966665D02*
X98550000Y-53966665D01*
X98550000Y-53966665D02*
X98550000Y-52066665D01*
X98550000Y-52066665D02*
X102250000Y-52066665D01*
%TO.C,R15*%
X102250000Y-41499999D02*
X102250000Y-43399999D01*
X102250000Y-43399999D02*
X98550000Y-43399999D01*
X98550000Y-43399999D02*
X98550000Y-41499999D01*
X98550000Y-41499999D02*
X102250000Y-41499999D01*
%TO.C,R12*%
X73250000Y-50850000D02*
X73250000Y-52750000D01*
X73250000Y-52750000D02*
X69550000Y-52750000D01*
X69550000Y-52750000D02*
X69550000Y-50850000D01*
X69550000Y-50850000D02*
X73250000Y-50850000D01*
%TO.C,R21*%
X73250000Y-31350000D02*
X73250000Y-33250000D01*
X73250000Y-33250000D02*
X69550000Y-33250000D01*
X69550000Y-33250000D02*
X69550000Y-31350000D01*
X69550000Y-31350000D02*
X73250000Y-31350000D01*
%TO.C,RV3 - Blue*%
X86450000Y-57600000D02*
X86450000Y-52100000D01*
X86450000Y-52100000D02*
X78800000Y-52100000D01*
X78800000Y-52100000D02*
X78800000Y-57600000D01*
X78800000Y-57600000D02*
X86450000Y-57600000D01*
%TO.C,RV2 - Red*%
X86450000Y-46785000D02*
X86450000Y-41285000D01*
X86450000Y-41285000D02*
X78800000Y-41285000D01*
X78800000Y-41285000D02*
X78800000Y-46785000D01*
X78800000Y-46785000D02*
X86450000Y-46785000D01*
%TD*%
M02*
