%TF.GenerationSoftware,KiCad,Pcbnew,(5.1.10)-1*%
%TF.CreationDate,2021-10-26T22:21:35+02:00*%
%TF.ProjectId,TMS9929_RGB_Adapter,544d5339-3932-4395-9f52-47425f416461,0*%
%TF.SameCoordinates,Original*%
%TF.FileFunction,Other,Fab,Top*%
%FSLAX46Y46*%
G04 Gerber Fmt 4.6, Leading zero omitted, Abs format (unit mm)*
G04 Created by KiCad (PCBNEW (5.1.10)-1) date 2021-10-26 22:21:35*
%MOMM*%
%LPD*%
G01*
G04 APERTURE LIST*
%ADD10C,0.100000*%
%ADD11C,0.150000*%
%ADD12C,0.080000*%
%ADD13C,0.090000*%
%ADD14C,0.075000*%
G04 APERTURE END LIST*
D10*
%TO.C,R5*%
X47700000Y-38250000D02*
X47700000Y-39500000D01*
X47700000Y-39500000D02*
X45700000Y-39500000D01*
X45700000Y-39500000D02*
X45700000Y-38250000D01*
X45700000Y-38250000D02*
X47700000Y-38250000D01*
%TO.C,R26*%
X101400000Y-57675000D02*
X101400000Y-58925000D01*
X101400000Y-58925000D02*
X99400000Y-58925000D01*
X99400000Y-58925000D02*
X99400000Y-57675000D01*
X99400000Y-57675000D02*
X101400000Y-57675000D01*
%TO.C,R25*%
X101400000Y-47108332D02*
X101400000Y-48358332D01*
X101400000Y-48358332D02*
X99400000Y-48358332D01*
X99400000Y-48358332D02*
X99400000Y-47108332D01*
X99400000Y-47108332D02*
X101400000Y-47108332D01*
%TO.C,R24*%
X99400000Y-37791666D02*
X99400000Y-36541666D01*
X99400000Y-36541666D02*
X101400000Y-36541666D01*
X101400000Y-36541666D02*
X101400000Y-37791666D01*
X101400000Y-37791666D02*
X99400000Y-37791666D01*
%TO.C,R23*%
X99400000Y-27225000D02*
X99400000Y-25975000D01*
X99400000Y-25975000D02*
X101400000Y-25975000D01*
X101400000Y-25975000D02*
X101400000Y-27225000D01*
X101400000Y-27225000D02*
X99400000Y-27225000D01*
%TO.C,J2*%
X108165000Y-35130000D02*
X110070000Y-35130000D01*
X110070000Y-35130000D02*
X110070000Y-52910000D01*
X110070000Y-52910000D02*
X107530000Y-52910000D01*
X107530000Y-52910000D02*
X107530000Y-35765000D01*
X107530000Y-35765000D02*
X108165000Y-35130000D01*
%TO.C,J1*%
X29565000Y-35130000D02*
X31470000Y-35130000D01*
X31470000Y-35130000D02*
X31470000Y-52910000D01*
X31470000Y-52910000D02*
X28930000Y-52910000D01*
X28930000Y-52910000D02*
X28930000Y-35765000D01*
X28930000Y-35765000D02*
X29565000Y-35130000D01*
%TO.C,C4*%
X73400000Y-26300000D02*
G75*
G03*
X73400000Y-26300000I-1500000J0D01*
G01*
X73550000Y-24650000D02*
X73550000Y-27950000D01*
X71075000Y-24650000D02*
X73550000Y-24650000D01*
X71075000Y-27950000D02*
X73550000Y-27950000D01*
X70250000Y-25475000D02*
X70250000Y-27125000D01*
X70250000Y-25475000D02*
X71075000Y-24650000D01*
X70250000Y-27125000D02*
X71075000Y-27950000D01*
X70789531Y-25500000D02*
X71089531Y-25500000D01*
X70939531Y-25350000D02*
X70939531Y-25650000D01*
%TO.C,C3*%
X56000000Y-26000000D02*
G75*
G03*
X56000000Y-26000000I-1500000J0D01*
G01*
X56150000Y-24350000D02*
X56150000Y-27650000D01*
X53675000Y-24350000D02*
X56150000Y-24350000D01*
X53675000Y-27650000D02*
X56150000Y-27650000D01*
X52850000Y-25175000D02*
X52850000Y-26825000D01*
X52850000Y-25175000D02*
X53675000Y-24350000D01*
X52850000Y-26825000D02*
X53675000Y-27650000D01*
X53389531Y-25200000D02*
X53689531Y-25200000D01*
X53539531Y-25050000D02*
X53539531Y-25350000D01*
%TO.C,C2*%
X73400000Y-58300000D02*
G75*
G03*
X73400000Y-58300000I-1500000J0D01*
G01*
X73550000Y-56650000D02*
X73550000Y-59950000D01*
X71075000Y-56650000D02*
X73550000Y-56650000D01*
X71075000Y-59950000D02*
X73550000Y-59950000D01*
X70250000Y-57475000D02*
X70250000Y-59125000D01*
X70250000Y-57475000D02*
X71075000Y-56650000D01*
X70250000Y-59125000D02*
X71075000Y-59950000D01*
X70789531Y-57500000D02*
X71089531Y-57500000D01*
X70939531Y-57350000D02*
X70939531Y-57650000D01*
%TO.C,C1*%
X41050000Y-26150000D02*
G75*
G03*
X41050000Y-26150000I-1500000J0D01*
G01*
X41200000Y-24500000D02*
X41200000Y-27800000D01*
X38725000Y-24500000D02*
X41200000Y-24500000D01*
X38725000Y-27800000D02*
X41200000Y-27800000D01*
X37900000Y-25325000D02*
X37900000Y-26975000D01*
X37900000Y-25325000D02*
X38725000Y-24500000D01*
X37900000Y-26975000D02*
X38725000Y-27800000D01*
X38439531Y-25350000D02*
X38739531Y-25350000D01*
X38589531Y-25200000D02*
X38589531Y-25500000D01*
%TO.C,Q2*%
X93100000Y-39280000D02*
X91700000Y-39280000D01*
X91700000Y-42320000D02*
X91700000Y-39280000D01*
X93100000Y-41750000D02*
X92550000Y-42320000D01*
X92550000Y-42320000D02*
X91700000Y-42320000D01*
X93100000Y-41750000D02*
X93100000Y-39300000D01*
%TO.C,Q3*%
X93100000Y-46730000D02*
X91700000Y-46730000D01*
X91700000Y-49770000D02*
X91700000Y-46730000D01*
X93100000Y-49200000D02*
X92550000Y-49770000D01*
X92550000Y-49770000D02*
X91700000Y-49770000D01*
X93100000Y-49200000D02*
X93100000Y-46750000D01*
%TO.C,Q4*%
X93100000Y-54530000D02*
X91700000Y-54530000D01*
X91700000Y-57570000D02*
X91700000Y-54530000D01*
X93100000Y-57000000D02*
X92550000Y-57570000D01*
X92550000Y-57570000D02*
X91700000Y-57570000D01*
X93100000Y-57000000D02*
X93100000Y-54550000D01*
%TO.C,Q1*%
X93100000Y-31030000D02*
X91700000Y-31030000D01*
X91700000Y-34070000D02*
X91700000Y-31030000D01*
X93100000Y-33500000D02*
X92550000Y-34070000D01*
X92550000Y-34070000D02*
X91700000Y-34070000D01*
X93100000Y-33500000D02*
X93100000Y-31050000D01*
%TO.C,Q9*%
X39500000Y-43930000D02*
X38100000Y-43930000D01*
X38100000Y-46970000D02*
X38100000Y-43930000D01*
X39500000Y-46400000D02*
X38950000Y-46970000D01*
X38950000Y-46970000D02*
X38100000Y-46970000D01*
X39500000Y-46400000D02*
X39500000Y-43950000D01*
%TO.C,R2*%
X47700000Y-52425000D02*
X45700000Y-52425000D01*
X47700000Y-51175000D02*
X47700000Y-52425000D01*
X45700000Y-51175000D02*
X47700000Y-51175000D01*
X45700000Y-52425000D02*
X45700000Y-51175000D01*
%TO.C,RV1 - Green*%
X83600000Y-33220000D02*
G75*
G03*
X83600000Y-33220000I-1150000J0D01*
G01*
X84950000Y-35720000D02*
X84950000Y-30720000D01*
X84950000Y-30720000D02*
X79950000Y-30720000D01*
X79950000Y-30720000D02*
X79950000Y-35720000D01*
X79950000Y-35720000D02*
X84950000Y-35720000D01*
X83370000Y-33278000D02*
X82508000Y-33278000D01*
X82508000Y-33278000D02*
X82508000Y-34140000D01*
X82508000Y-34140000D02*
X82392000Y-34140000D01*
X82392000Y-34140000D02*
X82392000Y-33278000D01*
X82392000Y-33278000D02*
X81530000Y-33278000D01*
X81530000Y-33278000D02*
X81530000Y-33162000D01*
X81530000Y-33162000D02*
X82392000Y-33162000D01*
X82392000Y-33162000D02*
X82392000Y-32300000D01*
X82392000Y-32300000D02*
X82508000Y-32300000D01*
X82508000Y-32300000D02*
X82508000Y-33162000D01*
X82508000Y-33162000D02*
X83370000Y-33162000D01*
X83370000Y-33162000D02*
X83370000Y-33278000D01*
%TO.C,R16*%
X101400000Y-31258333D02*
X101400000Y-32508333D01*
X101400000Y-32508333D02*
X99400000Y-32508333D01*
X99400000Y-32508333D02*
X99400000Y-31258333D01*
X99400000Y-31258333D02*
X101400000Y-31258333D01*
%TO.C,R6*%
X55500000Y-38275000D02*
X55500000Y-39525000D01*
X55500000Y-39525000D02*
X53500000Y-39525000D01*
X53500000Y-39525000D02*
X53500000Y-38275000D01*
X53500000Y-38275000D02*
X55500000Y-38275000D01*
%TO.C,Q10*%
X39500000Y-50930000D02*
X38100000Y-50930000D01*
X38100000Y-53970000D02*
X38100000Y-50930000D01*
X39500000Y-53400000D02*
X38950000Y-53970000D01*
X38950000Y-53970000D02*
X38100000Y-53970000D01*
X39500000Y-53400000D02*
X39500000Y-50950000D01*
%TO.C,Q8*%
X39500000Y-36930000D02*
X38100000Y-36930000D01*
X38100000Y-39970000D02*
X38100000Y-36930000D01*
X39500000Y-39400000D02*
X38950000Y-39970000D01*
X38950000Y-39970000D02*
X38100000Y-39970000D01*
X39500000Y-39400000D02*
X39500000Y-36950000D01*
%TO.C,R10*%
X62100000Y-45975000D02*
X62100000Y-44725000D01*
X62100000Y-44725000D02*
X64100000Y-44725000D01*
X64100000Y-44725000D02*
X64100000Y-45975000D01*
X64100000Y-45975000D02*
X62100000Y-45975000D01*
%TO.C,R4*%
X64100000Y-31675000D02*
X64100000Y-32925000D01*
X64100000Y-32925000D02*
X62100000Y-32925000D01*
X62100000Y-32925000D02*
X62100000Y-31675000D01*
X62100000Y-31675000D02*
X64100000Y-31675000D01*
%TO.C,Q7*%
X63800000Y-56880000D02*
X62400000Y-56880000D01*
X62400000Y-59920000D02*
X62400000Y-56880000D01*
X63800000Y-59350000D02*
X63250000Y-59920000D01*
X63250000Y-59920000D02*
X62400000Y-59920000D01*
X63800000Y-59350000D02*
X63800000Y-56900000D01*
%TO.C,R1*%
X39800000Y-33125000D02*
X37800000Y-33125000D01*
X39800000Y-31875000D02*
X39800000Y-33125000D01*
X37800000Y-31875000D02*
X39800000Y-31875000D01*
X37800000Y-33125000D02*
X37800000Y-31875000D01*
%TO.C,R20*%
X55500000Y-31775000D02*
X55500000Y-33025000D01*
X55500000Y-33025000D02*
X53500000Y-33025000D01*
X53500000Y-33025000D02*
X53500000Y-31775000D01*
X53500000Y-31775000D02*
X55500000Y-31775000D01*
%TO.C,Q6*%
X70700000Y-46520000D02*
X72100000Y-46520000D01*
X72100000Y-43480000D02*
X72100000Y-46520000D01*
X70700000Y-44050000D02*
X71250000Y-43480000D01*
X71250000Y-43480000D02*
X72100000Y-43480000D01*
X70700000Y-44050000D02*
X70700000Y-46500000D01*
%TO.C,Q5*%
X63800000Y-36880000D02*
X62400000Y-36880000D01*
X62400000Y-39920000D02*
X62400000Y-36880000D01*
X63800000Y-39350000D02*
X63250000Y-39920000D01*
X63250000Y-39920000D02*
X62400000Y-39920000D01*
X63800000Y-39350000D02*
X63800000Y-36900000D01*
%TO.C,R3*%
X47700000Y-31775000D02*
X47700000Y-33025000D01*
X47700000Y-33025000D02*
X45700000Y-33025000D01*
X45700000Y-33025000D02*
X45700000Y-31775000D01*
X45700000Y-31775000D02*
X47700000Y-31775000D01*
%TO.C,R7*%
X47700000Y-44725000D02*
X47700000Y-45975000D01*
X47700000Y-45975000D02*
X45700000Y-45975000D01*
X45700000Y-45975000D02*
X45700000Y-44725000D01*
X45700000Y-44725000D02*
X47700000Y-44725000D01*
%TO.C,R22*%
X62100000Y-52425000D02*
X62100000Y-51175000D01*
X62100000Y-51175000D02*
X64100000Y-51175000D01*
X64100000Y-51175000D02*
X64100000Y-52425000D01*
X64100000Y-52425000D02*
X62100000Y-52425000D01*
%TO.C,R13*%
X55500000Y-57675000D02*
X55500000Y-58925000D01*
X55500000Y-58925000D02*
X53500000Y-58925000D01*
X53500000Y-58925000D02*
X53500000Y-57675000D01*
X53500000Y-57675000D02*
X55500000Y-57675000D01*
%TO.C,R11*%
X55500000Y-44725000D02*
X55500000Y-45975000D01*
X55500000Y-45975000D02*
X53500000Y-45975000D01*
X53500000Y-45975000D02*
X53500000Y-44725000D01*
X53500000Y-44725000D02*
X55500000Y-44725000D01*
%TO.C,R18*%
X70400000Y-39525000D02*
X70400000Y-38275000D01*
X70400000Y-38275000D02*
X72400000Y-38275000D01*
X72400000Y-38275000D02*
X72400000Y-39525000D01*
X72400000Y-39525000D02*
X70400000Y-39525000D01*
%TO.C,R8*%
X55500000Y-51175000D02*
X55500000Y-52425000D01*
X55500000Y-52425000D02*
X53500000Y-52425000D01*
X53500000Y-52425000D02*
X53500000Y-51175000D01*
X53500000Y-51175000D02*
X55500000Y-51175000D01*
%TO.C,R19*%
X37800000Y-58925000D02*
X37800000Y-57675000D01*
X37800000Y-57675000D02*
X39800000Y-57675000D01*
X39800000Y-57675000D02*
X39800000Y-58925000D01*
X39800000Y-58925000D02*
X37800000Y-58925000D01*
%TO.C,R9*%
X47700000Y-57675000D02*
X47700000Y-58925000D01*
X47700000Y-58925000D02*
X45700000Y-58925000D01*
X45700000Y-58925000D02*
X45700000Y-57675000D01*
X45700000Y-57675000D02*
X47700000Y-57675000D01*
%TO.C,R14*%
X101400000Y-52391665D02*
X101400000Y-53641665D01*
X101400000Y-53641665D02*
X99400000Y-53641665D01*
X99400000Y-53641665D02*
X99400000Y-52391665D01*
X99400000Y-52391665D02*
X101400000Y-52391665D01*
%TO.C,R15*%
X101400000Y-41824999D02*
X101400000Y-43074999D01*
X101400000Y-43074999D02*
X99400000Y-43074999D01*
X99400000Y-43074999D02*
X99400000Y-41824999D01*
X99400000Y-41824999D02*
X101400000Y-41824999D01*
%TO.C,R12*%
X72400000Y-51175000D02*
X72400000Y-52425000D01*
X72400000Y-52425000D02*
X70400000Y-52425000D01*
X70400000Y-52425000D02*
X70400000Y-51175000D01*
X70400000Y-51175000D02*
X72400000Y-51175000D01*
%TO.C,R21*%
X72400000Y-31675000D02*
X72400000Y-32925000D01*
X72400000Y-32925000D02*
X70400000Y-32925000D01*
X70400000Y-32925000D02*
X70400000Y-31675000D01*
X70400000Y-31675000D02*
X72400000Y-31675000D01*
%TO.C,RV3 - Blue*%
X83600000Y-54850000D02*
G75*
G03*
X83600000Y-54850000I-1150000J0D01*
G01*
X84950000Y-57350000D02*
X84950000Y-52350000D01*
X84950000Y-52350000D02*
X79950000Y-52350000D01*
X79950000Y-52350000D02*
X79950000Y-57350000D01*
X79950000Y-57350000D02*
X84950000Y-57350000D01*
X83370000Y-54908000D02*
X82508000Y-54908000D01*
X82508000Y-54908000D02*
X82508000Y-55770000D01*
X82508000Y-55770000D02*
X82392000Y-55770000D01*
X82392000Y-55770000D02*
X82392000Y-54908000D01*
X82392000Y-54908000D02*
X81530000Y-54908000D01*
X81530000Y-54908000D02*
X81530000Y-54792000D01*
X81530000Y-54792000D02*
X82392000Y-54792000D01*
X82392000Y-54792000D02*
X82392000Y-53930000D01*
X82392000Y-53930000D02*
X82508000Y-53930000D01*
X82508000Y-53930000D02*
X82508000Y-54792000D01*
X82508000Y-54792000D02*
X83370000Y-54792000D01*
X83370000Y-54792000D02*
X83370000Y-54908000D01*
%TO.C,RV2 - Red*%
X83600000Y-44035000D02*
G75*
G03*
X83600000Y-44035000I-1150000J0D01*
G01*
X84950000Y-46535000D02*
X84950000Y-41535000D01*
X84950000Y-41535000D02*
X79950000Y-41535000D01*
X79950000Y-41535000D02*
X79950000Y-46535000D01*
X79950000Y-46535000D02*
X84950000Y-46535000D01*
X83370000Y-44093000D02*
X82508000Y-44093000D01*
X82508000Y-44093000D02*
X82508000Y-44955000D01*
X82508000Y-44955000D02*
X82392000Y-44955000D01*
X82392000Y-44955000D02*
X82392000Y-44093000D01*
X82392000Y-44093000D02*
X81530000Y-44093000D01*
X81530000Y-44093000D02*
X81530000Y-43977000D01*
X81530000Y-43977000D02*
X82392000Y-43977000D01*
X82392000Y-43977000D02*
X82392000Y-43115000D01*
X82392000Y-43115000D02*
X82508000Y-43115000D01*
X82508000Y-43115000D02*
X82508000Y-43977000D01*
X82508000Y-43977000D02*
X83370000Y-43977000D01*
X83370000Y-43977000D02*
X83370000Y-44093000D01*
%TD*%
%TO.C,R5*%
D11*
X46485714Y-37677380D02*
X45914285Y-37677380D01*
X46200000Y-37677380D02*
X46200000Y-36677380D01*
X46104761Y-36820238D01*
X46009523Y-36915476D01*
X45914285Y-36963095D01*
X46914285Y-37677380D02*
X46914285Y-36677380D01*
X47485714Y-37677380D02*
X47057142Y-37105952D01*
X47485714Y-36677380D02*
X46914285Y-37248809D01*
D12*
X46616666Y-39101190D02*
X46450000Y-38863095D01*
X46330952Y-39101190D02*
X46330952Y-38601190D01*
X46521428Y-38601190D01*
X46569047Y-38625000D01*
X46592857Y-38648809D01*
X46616666Y-38696428D01*
X46616666Y-38767857D01*
X46592857Y-38815476D01*
X46569047Y-38839285D01*
X46521428Y-38863095D01*
X46330952Y-38863095D01*
X47069047Y-38601190D02*
X46830952Y-38601190D01*
X46807142Y-38839285D01*
X46830952Y-38815476D01*
X46878571Y-38791666D01*
X46997619Y-38791666D01*
X47045238Y-38815476D01*
X47069047Y-38839285D01*
X47092857Y-38886904D01*
X47092857Y-39005952D01*
X47069047Y-39053571D01*
X47045238Y-39077380D01*
X46997619Y-39101190D01*
X46878571Y-39101190D01*
X46830952Y-39077380D01*
X46807142Y-39053571D01*
%TO.C,R26*%
D11*
X97185714Y-56435714D02*
X97185714Y-57102380D01*
X96947619Y-56054761D02*
X96709523Y-56769047D01*
X97328571Y-56769047D01*
X97709523Y-57102380D02*
X97709523Y-56102380D01*
X98280952Y-57102380D02*
X97852380Y-56530952D01*
X98280952Y-56102380D02*
X97709523Y-56673809D01*
X98614285Y-56102380D02*
X99280952Y-56102380D01*
X98852380Y-57102380D01*
X100947619Y-57102380D02*
X100376190Y-57102380D01*
X100661904Y-57102380D02*
X100661904Y-56102380D01*
X100566666Y-56245238D01*
X100471428Y-56340476D01*
X100376190Y-56388095D01*
X102090476Y-56054761D02*
X101233333Y-57340476D01*
X102852380Y-56435714D02*
X102852380Y-57102380D01*
X102614285Y-56054761D02*
X102376190Y-56769047D01*
X102995238Y-56769047D01*
X103280952Y-56102380D02*
X103519047Y-57102380D01*
X103709523Y-56388095D01*
X103900000Y-57102380D01*
X104138095Y-56102380D01*
D12*
X100078571Y-58526190D02*
X99911904Y-58288095D01*
X99792857Y-58526190D02*
X99792857Y-58026190D01*
X99983333Y-58026190D01*
X100030952Y-58050000D01*
X100054761Y-58073809D01*
X100078571Y-58121428D01*
X100078571Y-58192857D01*
X100054761Y-58240476D01*
X100030952Y-58264285D01*
X99983333Y-58288095D01*
X99792857Y-58288095D01*
X100269047Y-58073809D02*
X100292857Y-58050000D01*
X100340476Y-58026190D01*
X100459523Y-58026190D01*
X100507142Y-58050000D01*
X100530952Y-58073809D01*
X100554761Y-58121428D01*
X100554761Y-58169047D01*
X100530952Y-58240476D01*
X100245238Y-58526190D01*
X100554761Y-58526190D01*
X100983333Y-58026190D02*
X100888095Y-58026190D01*
X100840476Y-58050000D01*
X100816666Y-58073809D01*
X100769047Y-58145238D01*
X100745238Y-58240476D01*
X100745238Y-58430952D01*
X100769047Y-58478571D01*
X100792857Y-58502380D01*
X100840476Y-58526190D01*
X100935714Y-58526190D01*
X100983333Y-58502380D01*
X101007142Y-58478571D01*
X101030952Y-58430952D01*
X101030952Y-58311904D01*
X101007142Y-58264285D01*
X100983333Y-58240476D01*
X100935714Y-58216666D01*
X100840476Y-58216666D01*
X100792857Y-58240476D01*
X100769047Y-58264285D01*
X100745238Y-58311904D01*
%TO.C,R25*%
D11*
X97185714Y-45869046D02*
X97185714Y-46535712D01*
X96947619Y-45488093D02*
X96709523Y-46202379D01*
X97328571Y-46202379D01*
X97709523Y-46535712D02*
X97709523Y-45535712D01*
X98280952Y-46535712D02*
X97852380Y-45964284D01*
X98280952Y-45535712D02*
X97709523Y-46107141D01*
X98614285Y-45535712D02*
X99280952Y-45535712D01*
X98852380Y-46535712D01*
X100947619Y-46535712D02*
X100376190Y-46535712D01*
X100661904Y-46535712D02*
X100661904Y-45535712D01*
X100566666Y-45678570D01*
X100471428Y-45773808D01*
X100376190Y-45821427D01*
X102090476Y-45488093D02*
X101233333Y-46773808D01*
X102852380Y-45869046D02*
X102852380Y-46535712D01*
X102614285Y-45488093D02*
X102376190Y-46202379D01*
X102995238Y-46202379D01*
X103280952Y-45535712D02*
X103519047Y-46535712D01*
X103709523Y-45821427D01*
X103900000Y-46535712D01*
X104138095Y-45535712D01*
D12*
X100078571Y-47959522D02*
X99911904Y-47721427D01*
X99792857Y-47959522D02*
X99792857Y-47459522D01*
X99983333Y-47459522D01*
X100030952Y-47483332D01*
X100054761Y-47507141D01*
X100078571Y-47554760D01*
X100078571Y-47626189D01*
X100054761Y-47673808D01*
X100030952Y-47697617D01*
X99983333Y-47721427D01*
X99792857Y-47721427D01*
X100269047Y-47507141D02*
X100292857Y-47483332D01*
X100340476Y-47459522D01*
X100459523Y-47459522D01*
X100507142Y-47483332D01*
X100530952Y-47507141D01*
X100554761Y-47554760D01*
X100554761Y-47602379D01*
X100530952Y-47673808D01*
X100245238Y-47959522D01*
X100554761Y-47959522D01*
X101007142Y-47459522D02*
X100769047Y-47459522D01*
X100745238Y-47697617D01*
X100769047Y-47673808D01*
X100816666Y-47649998D01*
X100935714Y-47649998D01*
X100983333Y-47673808D01*
X101007142Y-47697617D01*
X101030952Y-47745236D01*
X101030952Y-47864284D01*
X101007142Y-47911903D01*
X100983333Y-47935712D01*
X100935714Y-47959522D01*
X100816666Y-47959522D01*
X100769047Y-47935712D01*
X100745238Y-47911903D01*
%TO.C,R24*%
D11*
X97185714Y-38602380D02*
X97185714Y-39269046D01*
X96947619Y-38221427D02*
X96709523Y-38935713D01*
X97328571Y-38935713D01*
X97709523Y-39269046D02*
X97709523Y-38269046D01*
X98280952Y-39269046D02*
X97852380Y-38697618D01*
X98280952Y-38269046D02*
X97709523Y-38840475D01*
X98614285Y-38269046D02*
X99280952Y-38269046D01*
X98852380Y-39269046D01*
X100947619Y-39269046D02*
X100376190Y-39269046D01*
X100661904Y-39269046D02*
X100661904Y-38269046D01*
X100566666Y-38411904D01*
X100471428Y-38507142D01*
X100376190Y-38554761D01*
X102090476Y-38221427D02*
X101233333Y-39507142D01*
X102852380Y-38602380D02*
X102852380Y-39269046D01*
X102614285Y-38221427D02*
X102376190Y-38935713D01*
X102995238Y-38935713D01*
X103280952Y-38269046D02*
X103519047Y-39269046D01*
X103709523Y-38554761D01*
X103900000Y-39269046D01*
X104138095Y-38269046D01*
D12*
X100078571Y-37392856D02*
X99911904Y-37154761D01*
X99792857Y-37392856D02*
X99792857Y-36892856D01*
X99983333Y-36892856D01*
X100030952Y-36916666D01*
X100054761Y-36940475D01*
X100078571Y-36988094D01*
X100078571Y-37059523D01*
X100054761Y-37107142D01*
X100030952Y-37130951D01*
X99983333Y-37154761D01*
X99792857Y-37154761D01*
X100269047Y-36940475D02*
X100292857Y-36916666D01*
X100340476Y-36892856D01*
X100459523Y-36892856D01*
X100507142Y-36916666D01*
X100530952Y-36940475D01*
X100554761Y-36988094D01*
X100554761Y-37035713D01*
X100530952Y-37107142D01*
X100245238Y-37392856D01*
X100554761Y-37392856D01*
X100983333Y-37059523D02*
X100983333Y-37392856D01*
X100864285Y-36869046D02*
X100745238Y-37226189D01*
X101054761Y-37226189D01*
%TO.C,R23*%
D11*
X97185714Y-28035714D02*
X97185714Y-28702380D01*
X96947619Y-27654761D02*
X96709523Y-28369047D01*
X97328571Y-28369047D01*
X97709523Y-28702380D02*
X97709523Y-27702380D01*
X98280952Y-28702380D02*
X97852380Y-28130952D01*
X98280952Y-27702380D02*
X97709523Y-28273809D01*
X98614285Y-27702380D02*
X99280952Y-27702380D01*
X98852380Y-28702380D01*
X100947619Y-28702380D02*
X100376190Y-28702380D01*
X100661904Y-28702380D02*
X100661904Y-27702380D01*
X100566666Y-27845238D01*
X100471428Y-27940476D01*
X100376190Y-27988095D01*
X102090476Y-27654761D02*
X101233333Y-28940476D01*
X102852380Y-28035714D02*
X102852380Y-28702380D01*
X102614285Y-27654761D02*
X102376190Y-28369047D01*
X102995238Y-28369047D01*
X103280952Y-27702380D02*
X103519047Y-28702380D01*
X103709523Y-27988095D01*
X103900000Y-28702380D01*
X104138095Y-27702380D01*
D12*
X100078571Y-26826190D02*
X99911904Y-26588095D01*
X99792857Y-26826190D02*
X99792857Y-26326190D01*
X99983333Y-26326190D01*
X100030952Y-26350000D01*
X100054761Y-26373809D01*
X100078571Y-26421428D01*
X100078571Y-26492857D01*
X100054761Y-26540476D01*
X100030952Y-26564285D01*
X99983333Y-26588095D01*
X99792857Y-26588095D01*
X100269047Y-26373809D02*
X100292857Y-26350000D01*
X100340476Y-26326190D01*
X100459523Y-26326190D01*
X100507142Y-26350000D01*
X100530952Y-26373809D01*
X100554761Y-26421428D01*
X100554761Y-26469047D01*
X100530952Y-26540476D01*
X100245238Y-26826190D01*
X100554761Y-26826190D01*
X100721428Y-26326190D02*
X101030952Y-26326190D01*
X100864285Y-26516666D01*
X100935714Y-26516666D01*
X100983333Y-26540476D01*
X101007142Y-26564285D01*
X101030952Y-26611904D01*
X101030952Y-26730952D01*
X101007142Y-26778571D01*
X100983333Y-26802380D01*
X100935714Y-26826190D01*
X100792857Y-26826190D01*
X100745238Y-26802380D01*
X100721428Y-26778571D01*
%TO.C,J2*%
D11*
X105061904Y-54327142D02*
X105014285Y-54374761D01*
X104871428Y-54422380D01*
X104776190Y-54422380D01*
X104633333Y-54374761D01*
X104538095Y-54279523D01*
X104490476Y-54184285D01*
X104442857Y-53993809D01*
X104442857Y-53850952D01*
X104490476Y-53660476D01*
X104538095Y-53565238D01*
X104633333Y-53470000D01*
X104776190Y-53422380D01*
X104871428Y-53422380D01*
X105014285Y-53470000D01*
X105061904Y-53517619D01*
X105633333Y-54422380D02*
X105538095Y-54374761D01*
X105490476Y-54327142D01*
X105442857Y-54231904D01*
X105442857Y-53946190D01*
X105490476Y-53850952D01*
X105538095Y-53803333D01*
X105633333Y-53755714D01*
X105776190Y-53755714D01*
X105871428Y-53803333D01*
X105919047Y-53850952D01*
X105966666Y-53946190D01*
X105966666Y-54231904D01*
X105919047Y-54327142D01*
X105871428Y-54374761D01*
X105776190Y-54422380D01*
X105633333Y-54422380D01*
X106395238Y-53755714D02*
X106395238Y-54422380D01*
X106395238Y-53850952D02*
X106442857Y-53803333D01*
X106538095Y-53755714D01*
X106680952Y-53755714D01*
X106776190Y-53803333D01*
X106823809Y-53898571D01*
X106823809Y-54422380D01*
X107300000Y-53755714D02*
X107300000Y-54422380D01*
X107300000Y-53850952D02*
X107347619Y-53803333D01*
X107442857Y-53755714D01*
X107585714Y-53755714D01*
X107680952Y-53803333D01*
X107728571Y-53898571D01*
X107728571Y-54422380D01*
X107966666Y-54517619D02*
X108728571Y-54517619D01*
X109157142Y-53422380D02*
X109252380Y-53422380D01*
X109347619Y-53470000D01*
X109395238Y-53517619D01*
X109442857Y-53612857D01*
X109490476Y-53803333D01*
X109490476Y-54041428D01*
X109442857Y-54231904D01*
X109395238Y-54327142D01*
X109347619Y-54374761D01*
X109252380Y-54422380D01*
X109157142Y-54422380D01*
X109061904Y-54374761D01*
X109014285Y-54327142D01*
X108966666Y-54231904D01*
X108919047Y-54041428D01*
X108919047Y-53803333D01*
X108966666Y-53612857D01*
X109014285Y-53517619D01*
X109061904Y-53470000D01*
X109157142Y-53422380D01*
X110442857Y-54422380D02*
X109871428Y-54422380D01*
X110157142Y-54422380D02*
X110157142Y-53422380D01*
X110061904Y-53565238D01*
X109966666Y-53660476D01*
X109871428Y-53708095D01*
X110776190Y-54422380D02*
X111300000Y-53755714D01*
X110776190Y-53755714D02*
X111300000Y-54422380D01*
X111871428Y-53422380D02*
X111966666Y-53422380D01*
X112061904Y-53470000D01*
X112109523Y-53517619D01*
X112157142Y-53612857D01*
X112204761Y-53803333D01*
X112204761Y-54041428D01*
X112157142Y-54231904D01*
X112109523Y-54327142D01*
X112061904Y-54374761D01*
X111966666Y-54422380D01*
X111871428Y-54422380D01*
X111776190Y-54374761D01*
X111728571Y-54327142D01*
X111680952Y-54231904D01*
X111633333Y-54041428D01*
X111633333Y-53803333D01*
X111680952Y-53612857D01*
X111728571Y-53517619D01*
X111776190Y-53470000D01*
X111871428Y-53422380D01*
X112538095Y-53422380D02*
X113204761Y-53422380D01*
X112776190Y-54422380D01*
X108252380Y-44353333D02*
X108966666Y-44353333D01*
X109109523Y-44400952D01*
X109204761Y-44496190D01*
X109252380Y-44639047D01*
X109252380Y-44734285D01*
X108347619Y-43924761D02*
X108300000Y-43877142D01*
X108252380Y-43781904D01*
X108252380Y-43543809D01*
X108300000Y-43448571D01*
X108347619Y-43400952D01*
X108442857Y-43353333D01*
X108538095Y-43353333D01*
X108680952Y-43400952D01*
X109252380Y-43972380D01*
X109252380Y-43353333D01*
%TO.C,J1*%
X26461904Y-54327142D02*
X26414285Y-54374761D01*
X26271428Y-54422380D01*
X26176190Y-54422380D01*
X26033333Y-54374761D01*
X25938095Y-54279523D01*
X25890476Y-54184285D01*
X25842857Y-53993809D01*
X25842857Y-53850952D01*
X25890476Y-53660476D01*
X25938095Y-53565238D01*
X26033333Y-53470000D01*
X26176190Y-53422380D01*
X26271428Y-53422380D01*
X26414285Y-53470000D01*
X26461904Y-53517619D01*
X27033333Y-54422380D02*
X26938095Y-54374761D01*
X26890476Y-54327142D01*
X26842857Y-54231904D01*
X26842857Y-53946190D01*
X26890476Y-53850952D01*
X26938095Y-53803333D01*
X27033333Y-53755714D01*
X27176190Y-53755714D01*
X27271428Y-53803333D01*
X27319047Y-53850952D01*
X27366666Y-53946190D01*
X27366666Y-54231904D01*
X27319047Y-54327142D01*
X27271428Y-54374761D01*
X27176190Y-54422380D01*
X27033333Y-54422380D01*
X27795238Y-53755714D02*
X27795238Y-54422380D01*
X27795238Y-53850952D02*
X27842857Y-53803333D01*
X27938095Y-53755714D01*
X28080952Y-53755714D01*
X28176190Y-53803333D01*
X28223809Y-53898571D01*
X28223809Y-54422380D01*
X28700000Y-53755714D02*
X28700000Y-54422380D01*
X28700000Y-53850952D02*
X28747619Y-53803333D01*
X28842857Y-53755714D01*
X28985714Y-53755714D01*
X29080952Y-53803333D01*
X29128571Y-53898571D01*
X29128571Y-54422380D01*
X29366666Y-54517619D02*
X30128571Y-54517619D01*
X30557142Y-53422380D02*
X30652380Y-53422380D01*
X30747619Y-53470000D01*
X30795238Y-53517619D01*
X30842857Y-53612857D01*
X30890476Y-53803333D01*
X30890476Y-54041428D01*
X30842857Y-54231904D01*
X30795238Y-54327142D01*
X30747619Y-54374761D01*
X30652380Y-54422380D01*
X30557142Y-54422380D01*
X30461904Y-54374761D01*
X30414285Y-54327142D01*
X30366666Y-54231904D01*
X30319047Y-54041428D01*
X30319047Y-53803333D01*
X30366666Y-53612857D01*
X30414285Y-53517619D01*
X30461904Y-53470000D01*
X30557142Y-53422380D01*
X31842857Y-54422380D02*
X31271428Y-54422380D01*
X31557142Y-54422380D02*
X31557142Y-53422380D01*
X31461904Y-53565238D01*
X31366666Y-53660476D01*
X31271428Y-53708095D01*
X32176190Y-54422380D02*
X32700000Y-53755714D01*
X32176190Y-53755714D02*
X32700000Y-54422380D01*
X33271428Y-53422380D02*
X33366666Y-53422380D01*
X33461904Y-53470000D01*
X33509523Y-53517619D01*
X33557142Y-53612857D01*
X33604761Y-53803333D01*
X33604761Y-54041428D01*
X33557142Y-54231904D01*
X33509523Y-54327142D01*
X33461904Y-54374761D01*
X33366666Y-54422380D01*
X33271428Y-54422380D01*
X33176190Y-54374761D01*
X33128571Y-54327142D01*
X33080952Y-54231904D01*
X33033333Y-54041428D01*
X33033333Y-53803333D01*
X33080952Y-53612857D01*
X33128571Y-53517619D01*
X33176190Y-53470000D01*
X33271428Y-53422380D01*
X33938095Y-53422380D02*
X34604761Y-53422380D01*
X34176190Y-54422380D01*
X29652380Y-44353333D02*
X30366666Y-44353333D01*
X30509523Y-44400952D01*
X30604761Y-44496190D01*
X30652380Y-44639047D01*
X30652380Y-44734285D01*
X30652380Y-43353333D02*
X30652380Y-43924761D01*
X30652380Y-43639047D02*
X29652380Y-43639047D01*
X29795238Y-43734285D01*
X29890476Y-43829523D01*
X29938095Y-43924761D01*
%TO.C,C4*%
X68852380Y-29452380D02*
X68280952Y-29452380D01*
X68566666Y-29452380D02*
X68566666Y-28452380D01*
X68471428Y-28595238D01*
X68376190Y-28690476D01*
X68280952Y-28738095D01*
X69709523Y-28452380D02*
X69519047Y-28452380D01*
X69423809Y-28500000D01*
X69376190Y-28547619D01*
X69280952Y-28690476D01*
X69233333Y-28880952D01*
X69233333Y-29261904D01*
X69280952Y-29357142D01*
X69328571Y-29404761D01*
X69423809Y-29452380D01*
X69614285Y-29452380D01*
X69709523Y-29404761D01*
X69757142Y-29357142D01*
X69804761Y-29261904D01*
X69804761Y-29023809D01*
X69757142Y-28928571D01*
X69709523Y-28880952D01*
X69614285Y-28833333D01*
X69423809Y-28833333D01*
X69328571Y-28880952D01*
X69280952Y-28928571D01*
X69233333Y-29023809D01*
X70090476Y-28452380D02*
X70423809Y-29452380D01*
X70757142Y-28452380D01*
X71804761Y-28404761D02*
X70947619Y-29690476D01*
X72661904Y-29452380D02*
X72090476Y-29452380D01*
X72376190Y-29452380D02*
X72376190Y-28452380D01*
X72280952Y-28595238D01*
X72185714Y-28690476D01*
X72090476Y-28738095D01*
X73280952Y-28452380D02*
X73376190Y-28452380D01*
X73471428Y-28500000D01*
X73519047Y-28547619D01*
X73566666Y-28642857D01*
X73614285Y-28833333D01*
X73614285Y-29071428D01*
X73566666Y-29261904D01*
X73519047Y-29357142D01*
X73471428Y-29404761D01*
X73376190Y-29452380D01*
X73280952Y-29452380D01*
X73185714Y-29404761D01*
X73138095Y-29357142D01*
X73090476Y-29261904D01*
X73042857Y-29071428D01*
X73042857Y-28833333D01*
X73090476Y-28642857D01*
X73138095Y-28547619D01*
X73185714Y-28500000D01*
X73280952Y-28452380D01*
X74042857Y-28452380D02*
X74042857Y-29261904D01*
X74090476Y-29357142D01*
X74138095Y-29404761D01*
X74233333Y-29452380D01*
X74423809Y-29452380D01*
X74519047Y-29404761D01*
X74566666Y-29357142D01*
X74614285Y-29261904D01*
X74614285Y-28452380D01*
X75423809Y-28928571D02*
X75090476Y-28928571D01*
X75090476Y-29452380D02*
X75090476Y-28452380D01*
X75566666Y-28452380D01*
D13*
X71800000Y-26514285D02*
X71771428Y-26542857D01*
X71685714Y-26571428D01*
X71628571Y-26571428D01*
X71542857Y-26542857D01*
X71485714Y-26485714D01*
X71457142Y-26428571D01*
X71428571Y-26314285D01*
X71428571Y-26228571D01*
X71457142Y-26114285D01*
X71485714Y-26057142D01*
X71542857Y-26000000D01*
X71628571Y-25971428D01*
X71685714Y-25971428D01*
X71771428Y-26000000D01*
X71800000Y-26028571D01*
X72314285Y-26171428D02*
X72314285Y-26571428D01*
X72171428Y-25942857D02*
X72028571Y-26371428D01*
X72400000Y-26371428D01*
%TO.C,C3*%
D11*
X51452380Y-29152380D02*
X50880952Y-29152380D01*
X51166666Y-29152380D02*
X51166666Y-28152380D01*
X51071428Y-28295238D01*
X50976190Y-28390476D01*
X50880952Y-28438095D01*
X52309523Y-28152380D02*
X52119047Y-28152380D01*
X52023809Y-28200000D01*
X51976190Y-28247619D01*
X51880952Y-28390476D01*
X51833333Y-28580952D01*
X51833333Y-28961904D01*
X51880952Y-29057142D01*
X51928571Y-29104761D01*
X52023809Y-29152380D01*
X52214285Y-29152380D01*
X52309523Y-29104761D01*
X52357142Y-29057142D01*
X52404761Y-28961904D01*
X52404761Y-28723809D01*
X52357142Y-28628571D01*
X52309523Y-28580952D01*
X52214285Y-28533333D01*
X52023809Y-28533333D01*
X51928571Y-28580952D01*
X51880952Y-28628571D01*
X51833333Y-28723809D01*
X52690476Y-28152380D02*
X53023809Y-29152380D01*
X53357142Y-28152380D01*
X54404761Y-28104761D02*
X53547619Y-29390476D01*
X55261904Y-29152380D02*
X54690476Y-29152380D01*
X54976190Y-29152380D02*
X54976190Y-28152380D01*
X54880952Y-28295238D01*
X54785714Y-28390476D01*
X54690476Y-28438095D01*
X55880952Y-28152380D02*
X55976190Y-28152380D01*
X56071428Y-28200000D01*
X56119047Y-28247619D01*
X56166666Y-28342857D01*
X56214285Y-28533333D01*
X56214285Y-28771428D01*
X56166666Y-28961904D01*
X56119047Y-29057142D01*
X56071428Y-29104761D01*
X55976190Y-29152380D01*
X55880952Y-29152380D01*
X55785714Y-29104761D01*
X55738095Y-29057142D01*
X55690476Y-28961904D01*
X55642857Y-28771428D01*
X55642857Y-28533333D01*
X55690476Y-28342857D01*
X55738095Y-28247619D01*
X55785714Y-28200000D01*
X55880952Y-28152380D01*
X56642857Y-28152380D02*
X56642857Y-28961904D01*
X56690476Y-29057142D01*
X56738095Y-29104761D01*
X56833333Y-29152380D01*
X57023809Y-29152380D01*
X57119047Y-29104761D01*
X57166666Y-29057142D01*
X57214285Y-28961904D01*
X57214285Y-28152380D01*
X58023809Y-28628571D02*
X57690476Y-28628571D01*
X57690476Y-29152380D02*
X57690476Y-28152380D01*
X58166666Y-28152380D01*
D13*
X54400000Y-26214285D02*
X54371428Y-26242857D01*
X54285714Y-26271428D01*
X54228571Y-26271428D01*
X54142857Y-26242857D01*
X54085714Y-26185714D01*
X54057142Y-26128571D01*
X54028571Y-26014285D01*
X54028571Y-25928571D01*
X54057142Y-25814285D01*
X54085714Y-25757142D01*
X54142857Y-25700000D01*
X54228571Y-25671428D01*
X54285714Y-25671428D01*
X54371428Y-25700000D01*
X54400000Y-25728571D01*
X54600000Y-25671428D02*
X54971428Y-25671428D01*
X54771428Y-25900000D01*
X54857142Y-25900000D01*
X54914285Y-25928571D01*
X54942857Y-25957142D01*
X54971428Y-26014285D01*
X54971428Y-26157142D01*
X54942857Y-26214285D01*
X54914285Y-26242857D01*
X54857142Y-26271428D01*
X54685714Y-26271428D01*
X54628571Y-26242857D01*
X54600000Y-26214285D01*
%TO.C,C2*%
D11*
X68852380Y-61452380D02*
X68280952Y-61452380D01*
X68566666Y-61452380D02*
X68566666Y-60452380D01*
X68471428Y-60595238D01*
X68376190Y-60690476D01*
X68280952Y-60738095D01*
X69709523Y-60452380D02*
X69519047Y-60452380D01*
X69423809Y-60500000D01*
X69376190Y-60547619D01*
X69280952Y-60690476D01*
X69233333Y-60880952D01*
X69233333Y-61261904D01*
X69280952Y-61357142D01*
X69328571Y-61404761D01*
X69423809Y-61452380D01*
X69614285Y-61452380D01*
X69709523Y-61404761D01*
X69757142Y-61357142D01*
X69804761Y-61261904D01*
X69804761Y-61023809D01*
X69757142Y-60928571D01*
X69709523Y-60880952D01*
X69614285Y-60833333D01*
X69423809Y-60833333D01*
X69328571Y-60880952D01*
X69280952Y-60928571D01*
X69233333Y-61023809D01*
X70090476Y-60452380D02*
X70423809Y-61452380D01*
X70757142Y-60452380D01*
X71804761Y-60404761D02*
X70947619Y-61690476D01*
X72661904Y-61452380D02*
X72090476Y-61452380D01*
X72376190Y-61452380D02*
X72376190Y-60452380D01*
X72280952Y-60595238D01*
X72185714Y-60690476D01*
X72090476Y-60738095D01*
X73280952Y-60452380D02*
X73376190Y-60452380D01*
X73471428Y-60500000D01*
X73519047Y-60547619D01*
X73566666Y-60642857D01*
X73614285Y-60833333D01*
X73614285Y-61071428D01*
X73566666Y-61261904D01*
X73519047Y-61357142D01*
X73471428Y-61404761D01*
X73376190Y-61452380D01*
X73280952Y-61452380D01*
X73185714Y-61404761D01*
X73138095Y-61357142D01*
X73090476Y-61261904D01*
X73042857Y-61071428D01*
X73042857Y-60833333D01*
X73090476Y-60642857D01*
X73138095Y-60547619D01*
X73185714Y-60500000D01*
X73280952Y-60452380D01*
X74042857Y-60452380D02*
X74042857Y-61261904D01*
X74090476Y-61357142D01*
X74138095Y-61404761D01*
X74233333Y-61452380D01*
X74423809Y-61452380D01*
X74519047Y-61404761D01*
X74566666Y-61357142D01*
X74614285Y-61261904D01*
X74614285Y-60452380D01*
X75423809Y-60928571D02*
X75090476Y-60928571D01*
X75090476Y-61452380D02*
X75090476Y-60452380D01*
X75566666Y-60452380D01*
D13*
X71800000Y-58514285D02*
X71771428Y-58542857D01*
X71685714Y-58571428D01*
X71628571Y-58571428D01*
X71542857Y-58542857D01*
X71485714Y-58485714D01*
X71457142Y-58428571D01*
X71428571Y-58314285D01*
X71428571Y-58228571D01*
X71457142Y-58114285D01*
X71485714Y-58057142D01*
X71542857Y-58000000D01*
X71628571Y-57971428D01*
X71685714Y-57971428D01*
X71771428Y-58000000D01*
X71800000Y-58028571D01*
X72028571Y-58028571D02*
X72057142Y-58000000D01*
X72114285Y-57971428D01*
X72257142Y-57971428D01*
X72314285Y-58000000D01*
X72342857Y-58028571D01*
X72371428Y-58085714D01*
X72371428Y-58142857D01*
X72342857Y-58228571D01*
X72000000Y-58571428D01*
X72371428Y-58571428D01*
%TO.C,C1*%
D11*
X36502380Y-29302380D02*
X35930952Y-29302380D01*
X36216666Y-29302380D02*
X36216666Y-28302380D01*
X36121428Y-28445238D01*
X36026190Y-28540476D01*
X35930952Y-28588095D01*
X37359523Y-28302380D02*
X37169047Y-28302380D01*
X37073809Y-28350000D01*
X37026190Y-28397619D01*
X36930952Y-28540476D01*
X36883333Y-28730952D01*
X36883333Y-29111904D01*
X36930952Y-29207142D01*
X36978571Y-29254761D01*
X37073809Y-29302380D01*
X37264285Y-29302380D01*
X37359523Y-29254761D01*
X37407142Y-29207142D01*
X37454761Y-29111904D01*
X37454761Y-28873809D01*
X37407142Y-28778571D01*
X37359523Y-28730952D01*
X37264285Y-28683333D01*
X37073809Y-28683333D01*
X36978571Y-28730952D01*
X36930952Y-28778571D01*
X36883333Y-28873809D01*
X37740476Y-28302380D02*
X38073809Y-29302380D01*
X38407142Y-28302380D01*
X39454761Y-28254761D02*
X38597619Y-29540476D01*
X40311904Y-29302380D02*
X39740476Y-29302380D01*
X40026190Y-29302380D02*
X40026190Y-28302380D01*
X39930952Y-28445238D01*
X39835714Y-28540476D01*
X39740476Y-28588095D01*
X40930952Y-28302380D02*
X41026190Y-28302380D01*
X41121428Y-28350000D01*
X41169047Y-28397619D01*
X41216666Y-28492857D01*
X41264285Y-28683333D01*
X41264285Y-28921428D01*
X41216666Y-29111904D01*
X41169047Y-29207142D01*
X41121428Y-29254761D01*
X41026190Y-29302380D01*
X40930952Y-29302380D01*
X40835714Y-29254761D01*
X40788095Y-29207142D01*
X40740476Y-29111904D01*
X40692857Y-28921428D01*
X40692857Y-28683333D01*
X40740476Y-28492857D01*
X40788095Y-28397619D01*
X40835714Y-28350000D01*
X40930952Y-28302380D01*
X41692857Y-28302380D02*
X41692857Y-29111904D01*
X41740476Y-29207142D01*
X41788095Y-29254761D01*
X41883333Y-29302380D01*
X42073809Y-29302380D01*
X42169047Y-29254761D01*
X42216666Y-29207142D01*
X42264285Y-29111904D01*
X42264285Y-28302380D01*
X43073809Y-28778571D02*
X42740476Y-28778571D01*
X42740476Y-29302380D02*
X42740476Y-28302380D01*
X43216666Y-28302380D01*
D13*
X39450000Y-26364285D02*
X39421428Y-26392857D01*
X39335714Y-26421428D01*
X39278571Y-26421428D01*
X39192857Y-26392857D01*
X39135714Y-26335714D01*
X39107142Y-26278571D01*
X39078571Y-26164285D01*
X39078571Y-26078571D01*
X39107142Y-25964285D01*
X39135714Y-25907142D01*
X39192857Y-25850000D01*
X39278571Y-25821428D01*
X39335714Y-25821428D01*
X39421428Y-25850000D01*
X39450000Y-25878571D01*
X40021428Y-26421428D02*
X39678571Y-26421428D01*
X39850000Y-26421428D02*
X39850000Y-25821428D01*
X39792857Y-25907142D01*
X39735714Y-25964285D01*
X39678571Y-25992857D01*
%TO.C,Q2*%
D11*
X88709523Y-38752380D02*
X88709523Y-37752380D01*
X89042857Y-38466666D01*
X89376190Y-37752380D01*
X89376190Y-38752380D01*
X89852380Y-38752380D02*
X89852380Y-37752380D01*
X90185714Y-38466666D01*
X90519047Y-37752380D01*
X90519047Y-38752380D01*
X91328571Y-38228571D02*
X91471428Y-38276190D01*
X91519047Y-38323809D01*
X91566666Y-38419047D01*
X91566666Y-38561904D01*
X91519047Y-38657142D01*
X91471428Y-38704761D01*
X91376190Y-38752380D01*
X90995238Y-38752380D01*
X90995238Y-37752380D01*
X91328571Y-37752380D01*
X91423809Y-37800000D01*
X91471428Y-37847619D01*
X91519047Y-37942857D01*
X91519047Y-38038095D01*
X91471428Y-38133333D01*
X91423809Y-38180952D01*
X91328571Y-38228571D01*
X90995238Y-38228571D01*
X91852380Y-37752380D02*
X92423809Y-37752380D01*
X92138095Y-38752380D02*
X92138095Y-37752380D01*
X92661904Y-37752380D02*
X93280952Y-37752380D01*
X92947619Y-38133333D01*
X93090476Y-38133333D01*
X93185714Y-38180952D01*
X93233333Y-38228571D01*
X93280952Y-38323809D01*
X93280952Y-38561904D01*
X93233333Y-38657142D01*
X93185714Y-38704761D01*
X93090476Y-38752380D01*
X92804761Y-38752380D01*
X92709523Y-38704761D01*
X92661904Y-38657142D01*
X93757142Y-38752380D02*
X93947619Y-38752380D01*
X94042857Y-38704761D01*
X94090476Y-38657142D01*
X94185714Y-38514285D01*
X94233333Y-38323809D01*
X94233333Y-37942857D01*
X94185714Y-37847619D01*
X94138095Y-37800000D01*
X94042857Y-37752380D01*
X93852380Y-37752380D01*
X93757142Y-37800000D01*
X93709523Y-37847619D01*
X93661904Y-37942857D01*
X93661904Y-38180952D01*
X93709523Y-38276190D01*
X93757142Y-38323809D01*
X93852380Y-38371428D01*
X94042857Y-38371428D01*
X94138095Y-38323809D01*
X94185714Y-38276190D01*
X94233333Y-38180952D01*
X94852380Y-37752380D02*
X94947619Y-37752380D01*
X95042857Y-37800000D01*
X95090476Y-37847619D01*
X95138095Y-37942857D01*
X95185714Y-38133333D01*
X95185714Y-38371428D01*
X95138095Y-38561904D01*
X95090476Y-38657142D01*
X95042857Y-38704761D01*
X94947619Y-38752380D01*
X94852380Y-38752380D01*
X94757142Y-38704761D01*
X94709523Y-38657142D01*
X94661904Y-38561904D01*
X94614285Y-38371428D01*
X94614285Y-38133333D01*
X94661904Y-37942857D01*
X94709523Y-37847619D01*
X94757142Y-37800000D01*
X94852380Y-37752380D01*
X96042857Y-38085714D02*
X96042857Y-38752380D01*
X95804761Y-37704761D02*
X95566666Y-38419047D01*
X96185714Y-38419047D01*
D14*
X92673809Y-40847619D02*
X92650000Y-40895238D01*
X92602380Y-40942857D01*
X92530952Y-41014285D01*
X92507142Y-41061904D01*
X92507142Y-41109523D01*
X92626190Y-41085714D02*
X92602380Y-41133333D01*
X92554761Y-41180952D01*
X92459523Y-41204761D01*
X92292857Y-41204761D01*
X92197619Y-41180952D01*
X92150000Y-41133333D01*
X92126190Y-41085714D01*
X92126190Y-40990476D01*
X92150000Y-40942857D01*
X92197619Y-40895238D01*
X92292857Y-40871428D01*
X92459523Y-40871428D01*
X92554761Y-40895238D01*
X92602380Y-40942857D01*
X92626190Y-40990476D01*
X92626190Y-41085714D01*
X92173809Y-40680952D02*
X92150000Y-40657142D01*
X92126190Y-40609523D01*
X92126190Y-40490476D01*
X92150000Y-40442857D01*
X92173809Y-40419047D01*
X92221428Y-40395238D01*
X92269047Y-40395238D01*
X92340476Y-40419047D01*
X92626190Y-40704761D01*
X92626190Y-40395238D01*
%TO.C,Q3*%
D11*
X88709523Y-46202380D02*
X88709523Y-45202380D01*
X89042857Y-45916666D01*
X89376190Y-45202380D01*
X89376190Y-46202380D01*
X89852380Y-46202380D02*
X89852380Y-45202380D01*
X90185714Y-45916666D01*
X90519047Y-45202380D01*
X90519047Y-46202380D01*
X91328571Y-45678571D02*
X91471428Y-45726190D01*
X91519047Y-45773809D01*
X91566666Y-45869047D01*
X91566666Y-46011904D01*
X91519047Y-46107142D01*
X91471428Y-46154761D01*
X91376190Y-46202380D01*
X90995238Y-46202380D01*
X90995238Y-45202380D01*
X91328571Y-45202380D01*
X91423809Y-45250000D01*
X91471428Y-45297619D01*
X91519047Y-45392857D01*
X91519047Y-45488095D01*
X91471428Y-45583333D01*
X91423809Y-45630952D01*
X91328571Y-45678571D01*
X90995238Y-45678571D01*
X91852380Y-45202380D02*
X92423809Y-45202380D01*
X92138095Y-46202380D02*
X92138095Y-45202380D01*
X92661904Y-45202380D02*
X93280952Y-45202380D01*
X92947619Y-45583333D01*
X93090476Y-45583333D01*
X93185714Y-45630952D01*
X93233333Y-45678571D01*
X93280952Y-45773809D01*
X93280952Y-46011904D01*
X93233333Y-46107142D01*
X93185714Y-46154761D01*
X93090476Y-46202380D01*
X92804761Y-46202380D01*
X92709523Y-46154761D01*
X92661904Y-46107142D01*
X93757142Y-46202380D02*
X93947619Y-46202380D01*
X94042857Y-46154761D01*
X94090476Y-46107142D01*
X94185714Y-45964285D01*
X94233333Y-45773809D01*
X94233333Y-45392857D01*
X94185714Y-45297619D01*
X94138095Y-45250000D01*
X94042857Y-45202380D01*
X93852380Y-45202380D01*
X93757142Y-45250000D01*
X93709523Y-45297619D01*
X93661904Y-45392857D01*
X93661904Y-45630952D01*
X93709523Y-45726190D01*
X93757142Y-45773809D01*
X93852380Y-45821428D01*
X94042857Y-45821428D01*
X94138095Y-45773809D01*
X94185714Y-45726190D01*
X94233333Y-45630952D01*
X94852380Y-45202380D02*
X94947619Y-45202380D01*
X95042857Y-45250000D01*
X95090476Y-45297619D01*
X95138095Y-45392857D01*
X95185714Y-45583333D01*
X95185714Y-45821428D01*
X95138095Y-46011904D01*
X95090476Y-46107142D01*
X95042857Y-46154761D01*
X94947619Y-46202380D01*
X94852380Y-46202380D01*
X94757142Y-46154761D01*
X94709523Y-46107142D01*
X94661904Y-46011904D01*
X94614285Y-45821428D01*
X94614285Y-45583333D01*
X94661904Y-45392857D01*
X94709523Y-45297619D01*
X94757142Y-45250000D01*
X94852380Y-45202380D01*
X96042857Y-45535714D02*
X96042857Y-46202380D01*
X95804761Y-45154761D02*
X95566666Y-45869047D01*
X96185714Y-45869047D01*
D14*
X92673809Y-48297619D02*
X92650000Y-48345238D01*
X92602380Y-48392857D01*
X92530952Y-48464285D01*
X92507142Y-48511904D01*
X92507142Y-48559523D01*
X92626190Y-48535714D02*
X92602380Y-48583333D01*
X92554761Y-48630952D01*
X92459523Y-48654761D01*
X92292857Y-48654761D01*
X92197619Y-48630952D01*
X92150000Y-48583333D01*
X92126190Y-48535714D01*
X92126190Y-48440476D01*
X92150000Y-48392857D01*
X92197619Y-48345238D01*
X92292857Y-48321428D01*
X92459523Y-48321428D01*
X92554761Y-48345238D01*
X92602380Y-48392857D01*
X92626190Y-48440476D01*
X92626190Y-48535714D01*
X92126190Y-48154761D02*
X92126190Y-47845238D01*
X92316666Y-48011904D01*
X92316666Y-47940476D01*
X92340476Y-47892857D01*
X92364285Y-47869047D01*
X92411904Y-47845238D01*
X92530952Y-47845238D01*
X92578571Y-47869047D01*
X92602380Y-47892857D01*
X92626190Y-47940476D01*
X92626190Y-48083333D01*
X92602380Y-48130952D01*
X92578571Y-48154761D01*
%TO.C,Q4*%
D11*
X88709523Y-54002380D02*
X88709523Y-53002380D01*
X89042857Y-53716666D01*
X89376190Y-53002380D01*
X89376190Y-54002380D01*
X89852380Y-54002380D02*
X89852380Y-53002380D01*
X90185714Y-53716666D01*
X90519047Y-53002380D01*
X90519047Y-54002380D01*
X91328571Y-53478571D02*
X91471428Y-53526190D01*
X91519047Y-53573809D01*
X91566666Y-53669047D01*
X91566666Y-53811904D01*
X91519047Y-53907142D01*
X91471428Y-53954761D01*
X91376190Y-54002380D01*
X90995238Y-54002380D01*
X90995238Y-53002380D01*
X91328571Y-53002380D01*
X91423809Y-53050000D01*
X91471428Y-53097619D01*
X91519047Y-53192857D01*
X91519047Y-53288095D01*
X91471428Y-53383333D01*
X91423809Y-53430952D01*
X91328571Y-53478571D01*
X90995238Y-53478571D01*
X91852380Y-53002380D02*
X92423809Y-53002380D01*
X92138095Y-54002380D02*
X92138095Y-53002380D01*
X92661904Y-53002380D02*
X93280952Y-53002380D01*
X92947619Y-53383333D01*
X93090476Y-53383333D01*
X93185714Y-53430952D01*
X93233333Y-53478571D01*
X93280952Y-53573809D01*
X93280952Y-53811904D01*
X93233333Y-53907142D01*
X93185714Y-53954761D01*
X93090476Y-54002380D01*
X92804761Y-54002380D01*
X92709523Y-53954761D01*
X92661904Y-53907142D01*
X93757142Y-54002380D02*
X93947619Y-54002380D01*
X94042857Y-53954761D01*
X94090476Y-53907142D01*
X94185714Y-53764285D01*
X94233333Y-53573809D01*
X94233333Y-53192857D01*
X94185714Y-53097619D01*
X94138095Y-53050000D01*
X94042857Y-53002380D01*
X93852380Y-53002380D01*
X93757142Y-53050000D01*
X93709523Y-53097619D01*
X93661904Y-53192857D01*
X93661904Y-53430952D01*
X93709523Y-53526190D01*
X93757142Y-53573809D01*
X93852380Y-53621428D01*
X94042857Y-53621428D01*
X94138095Y-53573809D01*
X94185714Y-53526190D01*
X94233333Y-53430952D01*
X94852380Y-53002380D02*
X94947619Y-53002380D01*
X95042857Y-53050000D01*
X95090476Y-53097619D01*
X95138095Y-53192857D01*
X95185714Y-53383333D01*
X95185714Y-53621428D01*
X95138095Y-53811904D01*
X95090476Y-53907142D01*
X95042857Y-53954761D01*
X94947619Y-54002380D01*
X94852380Y-54002380D01*
X94757142Y-53954761D01*
X94709523Y-53907142D01*
X94661904Y-53811904D01*
X94614285Y-53621428D01*
X94614285Y-53383333D01*
X94661904Y-53192857D01*
X94709523Y-53097619D01*
X94757142Y-53050000D01*
X94852380Y-53002380D01*
X96042857Y-53335714D02*
X96042857Y-54002380D01*
X95804761Y-52954761D02*
X95566666Y-53669047D01*
X96185714Y-53669047D01*
D14*
X92673809Y-56097619D02*
X92650000Y-56145238D01*
X92602380Y-56192857D01*
X92530952Y-56264285D01*
X92507142Y-56311904D01*
X92507142Y-56359523D01*
X92626190Y-56335714D02*
X92602380Y-56383333D01*
X92554761Y-56430952D01*
X92459523Y-56454761D01*
X92292857Y-56454761D01*
X92197619Y-56430952D01*
X92150000Y-56383333D01*
X92126190Y-56335714D01*
X92126190Y-56240476D01*
X92150000Y-56192857D01*
X92197619Y-56145238D01*
X92292857Y-56121428D01*
X92459523Y-56121428D01*
X92554761Y-56145238D01*
X92602380Y-56192857D01*
X92626190Y-56240476D01*
X92626190Y-56335714D01*
X92292857Y-55692857D02*
X92626190Y-55692857D01*
X92102380Y-55811904D02*
X92459523Y-55930952D01*
X92459523Y-55621428D01*
%TO.C,Q1*%
D11*
X88709523Y-30502380D02*
X88709523Y-29502380D01*
X89042857Y-30216666D01*
X89376190Y-29502380D01*
X89376190Y-30502380D01*
X89852380Y-30502380D02*
X89852380Y-29502380D01*
X90185714Y-30216666D01*
X90519047Y-29502380D01*
X90519047Y-30502380D01*
X91328571Y-29978571D02*
X91471428Y-30026190D01*
X91519047Y-30073809D01*
X91566666Y-30169047D01*
X91566666Y-30311904D01*
X91519047Y-30407142D01*
X91471428Y-30454761D01*
X91376190Y-30502380D01*
X90995238Y-30502380D01*
X90995238Y-29502380D01*
X91328571Y-29502380D01*
X91423809Y-29550000D01*
X91471428Y-29597619D01*
X91519047Y-29692857D01*
X91519047Y-29788095D01*
X91471428Y-29883333D01*
X91423809Y-29930952D01*
X91328571Y-29978571D01*
X90995238Y-29978571D01*
X91852380Y-29502380D02*
X92423809Y-29502380D01*
X92138095Y-30502380D02*
X92138095Y-29502380D01*
X92661904Y-29502380D02*
X93280952Y-29502380D01*
X92947619Y-29883333D01*
X93090476Y-29883333D01*
X93185714Y-29930952D01*
X93233333Y-29978571D01*
X93280952Y-30073809D01*
X93280952Y-30311904D01*
X93233333Y-30407142D01*
X93185714Y-30454761D01*
X93090476Y-30502380D01*
X92804761Y-30502380D01*
X92709523Y-30454761D01*
X92661904Y-30407142D01*
X93757142Y-30502380D02*
X93947619Y-30502380D01*
X94042857Y-30454761D01*
X94090476Y-30407142D01*
X94185714Y-30264285D01*
X94233333Y-30073809D01*
X94233333Y-29692857D01*
X94185714Y-29597619D01*
X94138095Y-29550000D01*
X94042857Y-29502380D01*
X93852380Y-29502380D01*
X93757142Y-29550000D01*
X93709523Y-29597619D01*
X93661904Y-29692857D01*
X93661904Y-29930952D01*
X93709523Y-30026190D01*
X93757142Y-30073809D01*
X93852380Y-30121428D01*
X94042857Y-30121428D01*
X94138095Y-30073809D01*
X94185714Y-30026190D01*
X94233333Y-29930952D01*
X94852380Y-29502380D02*
X94947619Y-29502380D01*
X95042857Y-29550000D01*
X95090476Y-29597619D01*
X95138095Y-29692857D01*
X95185714Y-29883333D01*
X95185714Y-30121428D01*
X95138095Y-30311904D01*
X95090476Y-30407142D01*
X95042857Y-30454761D01*
X94947619Y-30502380D01*
X94852380Y-30502380D01*
X94757142Y-30454761D01*
X94709523Y-30407142D01*
X94661904Y-30311904D01*
X94614285Y-30121428D01*
X94614285Y-29883333D01*
X94661904Y-29692857D01*
X94709523Y-29597619D01*
X94757142Y-29550000D01*
X94852380Y-29502380D01*
X96042857Y-29835714D02*
X96042857Y-30502380D01*
X95804761Y-29454761D02*
X95566666Y-30169047D01*
X96185714Y-30169047D01*
D14*
X92673809Y-32597619D02*
X92650000Y-32645238D01*
X92602380Y-32692857D01*
X92530952Y-32764285D01*
X92507142Y-32811904D01*
X92507142Y-32859523D01*
X92626190Y-32835714D02*
X92602380Y-32883333D01*
X92554761Y-32930952D01*
X92459523Y-32954761D01*
X92292857Y-32954761D01*
X92197619Y-32930952D01*
X92150000Y-32883333D01*
X92126190Y-32835714D01*
X92126190Y-32740476D01*
X92150000Y-32692857D01*
X92197619Y-32645238D01*
X92292857Y-32621428D01*
X92459523Y-32621428D01*
X92554761Y-32645238D01*
X92602380Y-32692857D01*
X92626190Y-32740476D01*
X92626190Y-32835714D01*
X92626190Y-32145238D02*
X92626190Y-32430952D01*
X92626190Y-32288095D02*
X92126190Y-32288095D01*
X92197619Y-32335714D01*
X92245238Y-32383333D01*
X92269047Y-32430952D01*
%TO.C,Q9*%
D11*
X35109523Y-43402380D02*
X35109523Y-42402380D01*
X35442857Y-43116666D01*
X35776190Y-42402380D01*
X35776190Y-43402380D01*
X36252380Y-43402380D02*
X36252380Y-42402380D01*
X36585714Y-43116666D01*
X36919047Y-42402380D01*
X36919047Y-43402380D01*
X37728571Y-42878571D02*
X37871428Y-42926190D01*
X37919047Y-42973809D01*
X37966666Y-43069047D01*
X37966666Y-43211904D01*
X37919047Y-43307142D01*
X37871428Y-43354761D01*
X37776190Y-43402380D01*
X37395238Y-43402380D01*
X37395238Y-42402380D01*
X37728571Y-42402380D01*
X37823809Y-42450000D01*
X37871428Y-42497619D01*
X37919047Y-42592857D01*
X37919047Y-42688095D01*
X37871428Y-42783333D01*
X37823809Y-42830952D01*
X37728571Y-42878571D01*
X37395238Y-42878571D01*
X38252380Y-42402380D02*
X38823809Y-42402380D01*
X38538095Y-43402380D02*
X38538095Y-42402380D01*
X39061904Y-42402380D02*
X39680952Y-42402380D01*
X39347619Y-42783333D01*
X39490476Y-42783333D01*
X39585714Y-42830952D01*
X39633333Y-42878571D01*
X39680952Y-42973809D01*
X39680952Y-43211904D01*
X39633333Y-43307142D01*
X39585714Y-43354761D01*
X39490476Y-43402380D01*
X39204761Y-43402380D01*
X39109523Y-43354761D01*
X39061904Y-43307142D01*
X40157142Y-43402380D02*
X40347619Y-43402380D01*
X40442857Y-43354761D01*
X40490476Y-43307142D01*
X40585714Y-43164285D01*
X40633333Y-42973809D01*
X40633333Y-42592857D01*
X40585714Y-42497619D01*
X40538095Y-42450000D01*
X40442857Y-42402380D01*
X40252380Y-42402380D01*
X40157142Y-42450000D01*
X40109523Y-42497619D01*
X40061904Y-42592857D01*
X40061904Y-42830952D01*
X40109523Y-42926190D01*
X40157142Y-42973809D01*
X40252380Y-43021428D01*
X40442857Y-43021428D01*
X40538095Y-42973809D01*
X40585714Y-42926190D01*
X40633333Y-42830952D01*
X41252380Y-42402380D02*
X41347619Y-42402380D01*
X41442857Y-42450000D01*
X41490476Y-42497619D01*
X41538095Y-42592857D01*
X41585714Y-42783333D01*
X41585714Y-43021428D01*
X41538095Y-43211904D01*
X41490476Y-43307142D01*
X41442857Y-43354761D01*
X41347619Y-43402380D01*
X41252380Y-43402380D01*
X41157142Y-43354761D01*
X41109523Y-43307142D01*
X41061904Y-43211904D01*
X41014285Y-43021428D01*
X41014285Y-42783333D01*
X41061904Y-42592857D01*
X41109523Y-42497619D01*
X41157142Y-42450000D01*
X41252380Y-42402380D01*
X42442857Y-42735714D02*
X42442857Y-43402380D01*
X42204761Y-42354761D02*
X41966666Y-43069047D01*
X42585714Y-43069047D01*
D14*
X39073809Y-45497619D02*
X39050000Y-45545238D01*
X39002380Y-45592857D01*
X38930952Y-45664285D01*
X38907142Y-45711904D01*
X38907142Y-45759523D01*
X39026190Y-45735714D02*
X39002380Y-45783333D01*
X38954761Y-45830952D01*
X38859523Y-45854761D01*
X38692857Y-45854761D01*
X38597619Y-45830952D01*
X38550000Y-45783333D01*
X38526190Y-45735714D01*
X38526190Y-45640476D01*
X38550000Y-45592857D01*
X38597619Y-45545238D01*
X38692857Y-45521428D01*
X38859523Y-45521428D01*
X38954761Y-45545238D01*
X39002380Y-45592857D01*
X39026190Y-45640476D01*
X39026190Y-45735714D01*
X39026190Y-45283333D02*
X39026190Y-45188095D01*
X39002380Y-45140476D01*
X38978571Y-45116666D01*
X38907142Y-45069047D01*
X38811904Y-45045238D01*
X38621428Y-45045238D01*
X38573809Y-45069047D01*
X38550000Y-45092857D01*
X38526190Y-45140476D01*
X38526190Y-45235714D01*
X38550000Y-45283333D01*
X38573809Y-45307142D01*
X38621428Y-45330952D01*
X38740476Y-45330952D01*
X38788095Y-45307142D01*
X38811904Y-45283333D01*
X38835714Y-45235714D01*
X38835714Y-45140476D01*
X38811904Y-45092857D01*
X38788095Y-45069047D01*
X38740476Y-45045238D01*
%TO.C,R2*%
D11*
X46485714Y-53902380D02*
X45914285Y-53902380D01*
X46200000Y-53902380D02*
X46200000Y-52902380D01*
X46104761Y-53045238D01*
X46009523Y-53140476D01*
X45914285Y-53188095D01*
X46914285Y-53902380D02*
X46914285Y-52902380D01*
X47485714Y-53902380D02*
X47057142Y-53330952D01*
X47485714Y-52902380D02*
X46914285Y-53473809D01*
D12*
X46616666Y-52026190D02*
X46450000Y-51788095D01*
X46330952Y-52026190D02*
X46330952Y-51526190D01*
X46521428Y-51526190D01*
X46569047Y-51550000D01*
X46592857Y-51573809D01*
X46616666Y-51621428D01*
X46616666Y-51692857D01*
X46592857Y-51740476D01*
X46569047Y-51764285D01*
X46521428Y-51788095D01*
X46330952Y-51788095D01*
X46807142Y-51573809D02*
X46830952Y-51550000D01*
X46878571Y-51526190D01*
X46997619Y-51526190D01*
X47045238Y-51550000D01*
X47069047Y-51573809D01*
X47092857Y-51621428D01*
X47092857Y-51669047D01*
X47069047Y-51740476D01*
X46783333Y-52026190D01*
X47092857Y-52026190D01*
%TO.C,RV1 - Green*%
D11*
X82363095Y-28922380D02*
X81886904Y-28922380D01*
X81839285Y-29398571D01*
X81886904Y-29350952D01*
X81982142Y-29303333D01*
X82220238Y-29303333D01*
X82315476Y-29350952D01*
X82363095Y-29398571D01*
X82410714Y-29493809D01*
X82410714Y-29731904D01*
X82363095Y-29827142D01*
X82315476Y-29874761D01*
X82220238Y-29922380D01*
X81982142Y-29922380D01*
X81886904Y-29874761D01*
X81839285Y-29827142D01*
X82839285Y-29922380D02*
X82839285Y-28922380D01*
X83410714Y-29922380D02*
X82982142Y-29350952D01*
X83410714Y-28922380D02*
X82839285Y-29493809D01*
X79665238Y-35527619D02*
X79438571Y-35203809D01*
X79276666Y-35527619D02*
X79276666Y-34847619D01*
X79535714Y-34847619D01*
X79600476Y-34880000D01*
X79632857Y-34912380D01*
X79665238Y-34977142D01*
X79665238Y-35074285D01*
X79632857Y-35139047D01*
X79600476Y-35171428D01*
X79535714Y-35203809D01*
X79276666Y-35203809D01*
X79859523Y-34847619D02*
X80086190Y-35527619D01*
X80312857Y-34847619D01*
X80895714Y-35527619D02*
X80507142Y-35527619D01*
X80701428Y-35527619D02*
X80701428Y-34847619D01*
X80636666Y-34944761D01*
X80571904Y-35009523D01*
X80507142Y-35041904D01*
X81705238Y-35268571D02*
X82223333Y-35268571D01*
X83421428Y-34880000D02*
X83356666Y-34847619D01*
X83259523Y-34847619D01*
X83162380Y-34880000D01*
X83097619Y-34944761D01*
X83065238Y-35009523D01*
X83032857Y-35139047D01*
X83032857Y-35236190D01*
X83065238Y-35365714D01*
X83097619Y-35430476D01*
X83162380Y-35495238D01*
X83259523Y-35527619D01*
X83324285Y-35527619D01*
X83421428Y-35495238D01*
X83453809Y-35462857D01*
X83453809Y-35236190D01*
X83324285Y-35236190D01*
X83745238Y-35527619D02*
X83745238Y-35074285D01*
X83745238Y-35203809D02*
X83777619Y-35139047D01*
X83810000Y-35106666D01*
X83874761Y-35074285D01*
X83939523Y-35074285D01*
X84425238Y-35495238D02*
X84360476Y-35527619D01*
X84230952Y-35527619D01*
X84166190Y-35495238D01*
X84133809Y-35430476D01*
X84133809Y-35171428D01*
X84166190Y-35106666D01*
X84230952Y-35074285D01*
X84360476Y-35074285D01*
X84425238Y-35106666D01*
X84457619Y-35171428D01*
X84457619Y-35236190D01*
X84133809Y-35300952D01*
X85008095Y-35495238D02*
X84943333Y-35527619D01*
X84813809Y-35527619D01*
X84749047Y-35495238D01*
X84716666Y-35430476D01*
X84716666Y-35171428D01*
X84749047Y-35106666D01*
X84813809Y-35074285D01*
X84943333Y-35074285D01*
X85008095Y-35106666D01*
X85040476Y-35171428D01*
X85040476Y-35236190D01*
X84716666Y-35300952D01*
X85331904Y-35074285D02*
X85331904Y-35527619D01*
X85331904Y-35139047D02*
X85364285Y-35106666D01*
X85429047Y-35074285D01*
X85526190Y-35074285D01*
X85590952Y-35106666D01*
X85623333Y-35171428D01*
X85623333Y-35527619D01*
%TO.C,R16*%
X96804761Y-30685713D02*
X96233333Y-30685713D01*
X96519047Y-30685713D02*
X96519047Y-29685713D01*
X96423809Y-29828571D01*
X96328571Y-29923809D01*
X96233333Y-29971428D01*
X97423809Y-29685713D02*
X97519047Y-29685713D01*
X97614285Y-29733333D01*
X97661904Y-29780952D01*
X97709523Y-29876190D01*
X97757142Y-30066666D01*
X97757142Y-30304761D01*
X97709523Y-30495237D01*
X97661904Y-30590475D01*
X97614285Y-30638094D01*
X97519047Y-30685713D01*
X97423809Y-30685713D01*
X97328571Y-30638094D01*
X97280952Y-30590475D01*
X97233333Y-30495237D01*
X97185714Y-30304761D01*
X97185714Y-30066666D01*
X97233333Y-29876190D01*
X97280952Y-29780952D01*
X97328571Y-29733333D01*
X97423809Y-29685713D01*
X98376190Y-29685713D02*
X98471428Y-29685713D01*
X98566666Y-29733333D01*
X98614285Y-29780952D01*
X98661904Y-29876190D01*
X98709523Y-30066666D01*
X98709523Y-30304761D01*
X98661904Y-30495237D01*
X98614285Y-30590475D01*
X98566666Y-30638094D01*
X98471428Y-30685713D01*
X98376190Y-30685713D01*
X98280952Y-30638094D01*
X98233333Y-30590475D01*
X98185714Y-30495237D01*
X98138095Y-30304761D01*
X98138095Y-30066666D01*
X98185714Y-29876190D01*
X98233333Y-29780952D01*
X98280952Y-29733333D01*
X98376190Y-29685713D01*
X99709523Y-30685713D02*
X99376190Y-30209523D01*
X99138095Y-30685713D02*
X99138095Y-29685713D01*
X99519047Y-29685713D01*
X99614285Y-29733333D01*
X99661904Y-29780952D01*
X99709523Y-29876190D01*
X99709523Y-30019047D01*
X99661904Y-30114285D01*
X99614285Y-30161904D01*
X99519047Y-30209523D01*
X99138095Y-30209523D01*
X101423809Y-30685713D02*
X100852380Y-30685713D01*
X101138095Y-30685713D02*
X101138095Y-29685713D01*
X101042857Y-29828571D01*
X100947619Y-29923809D01*
X100852380Y-29971428D01*
X102566666Y-29638094D02*
X101709523Y-30923809D01*
X103328571Y-30019047D02*
X103328571Y-30685713D01*
X103090476Y-29638094D02*
X102852380Y-30352380D01*
X103471428Y-30352380D01*
X103757142Y-29685713D02*
X103995238Y-30685713D01*
X104185714Y-29971428D01*
X104376190Y-30685713D01*
X104614285Y-29685713D01*
D12*
X100078571Y-32109523D02*
X99911904Y-31871428D01*
X99792857Y-32109523D02*
X99792857Y-31609523D01*
X99983333Y-31609523D01*
X100030952Y-31633333D01*
X100054761Y-31657142D01*
X100078571Y-31704761D01*
X100078571Y-31776190D01*
X100054761Y-31823809D01*
X100030952Y-31847618D01*
X99983333Y-31871428D01*
X99792857Y-31871428D01*
X100554761Y-32109523D02*
X100269047Y-32109523D01*
X100411904Y-32109523D02*
X100411904Y-31609523D01*
X100364285Y-31680952D01*
X100316666Y-31728571D01*
X100269047Y-31752380D01*
X100983333Y-31609523D02*
X100888095Y-31609523D01*
X100840476Y-31633333D01*
X100816666Y-31657142D01*
X100769047Y-31728571D01*
X100745238Y-31823809D01*
X100745238Y-32014285D01*
X100769047Y-32061904D01*
X100792857Y-32085713D01*
X100840476Y-32109523D01*
X100935714Y-32109523D01*
X100983333Y-32085713D01*
X101007142Y-32061904D01*
X101030952Y-32014285D01*
X101030952Y-31895237D01*
X101007142Y-31847618D01*
X100983333Y-31823809D01*
X100935714Y-31799999D01*
X100840476Y-31799999D01*
X100792857Y-31823809D01*
X100769047Y-31847618D01*
X100745238Y-31895237D01*
%TO.C,R6*%
D11*
X54285714Y-37702380D02*
X53714285Y-37702380D01*
X54000000Y-37702380D02*
X54000000Y-36702380D01*
X53904761Y-36845238D01*
X53809523Y-36940476D01*
X53714285Y-36988095D01*
X54714285Y-37702380D02*
X54714285Y-36702380D01*
X55285714Y-37702380D02*
X54857142Y-37130952D01*
X55285714Y-36702380D02*
X54714285Y-37273809D01*
D12*
X54416666Y-39126190D02*
X54250000Y-38888095D01*
X54130952Y-39126190D02*
X54130952Y-38626190D01*
X54321428Y-38626190D01*
X54369047Y-38650000D01*
X54392857Y-38673809D01*
X54416666Y-38721428D01*
X54416666Y-38792857D01*
X54392857Y-38840476D01*
X54369047Y-38864285D01*
X54321428Y-38888095D01*
X54130952Y-38888095D01*
X54845238Y-38626190D02*
X54750000Y-38626190D01*
X54702380Y-38650000D01*
X54678571Y-38673809D01*
X54630952Y-38745238D01*
X54607142Y-38840476D01*
X54607142Y-39030952D01*
X54630952Y-39078571D01*
X54654761Y-39102380D01*
X54702380Y-39126190D01*
X54797619Y-39126190D01*
X54845238Y-39102380D01*
X54869047Y-39078571D01*
X54892857Y-39030952D01*
X54892857Y-38911904D01*
X54869047Y-38864285D01*
X54845238Y-38840476D01*
X54797619Y-38816666D01*
X54702380Y-38816666D01*
X54654761Y-38840476D01*
X54630952Y-38864285D01*
X54607142Y-38911904D01*
%TO.C,Q10*%
D11*
X35109523Y-50402380D02*
X35109523Y-49402380D01*
X35442857Y-50116666D01*
X35776190Y-49402380D01*
X35776190Y-50402380D01*
X36252380Y-50402380D02*
X36252380Y-49402380D01*
X36585714Y-50116666D01*
X36919047Y-49402380D01*
X36919047Y-50402380D01*
X37728571Y-49878571D02*
X37871428Y-49926190D01*
X37919047Y-49973809D01*
X37966666Y-50069047D01*
X37966666Y-50211904D01*
X37919047Y-50307142D01*
X37871428Y-50354761D01*
X37776190Y-50402380D01*
X37395238Y-50402380D01*
X37395238Y-49402380D01*
X37728571Y-49402380D01*
X37823809Y-49450000D01*
X37871428Y-49497619D01*
X37919047Y-49592857D01*
X37919047Y-49688095D01*
X37871428Y-49783333D01*
X37823809Y-49830952D01*
X37728571Y-49878571D01*
X37395238Y-49878571D01*
X38252380Y-49402380D02*
X38823809Y-49402380D01*
X38538095Y-50402380D02*
X38538095Y-49402380D01*
X39061904Y-49402380D02*
X39680952Y-49402380D01*
X39347619Y-49783333D01*
X39490476Y-49783333D01*
X39585714Y-49830952D01*
X39633333Y-49878571D01*
X39680952Y-49973809D01*
X39680952Y-50211904D01*
X39633333Y-50307142D01*
X39585714Y-50354761D01*
X39490476Y-50402380D01*
X39204761Y-50402380D01*
X39109523Y-50354761D01*
X39061904Y-50307142D01*
X40157142Y-50402380D02*
X40347619Y-50402380D01*
X40442857Y-50354761D01*
X40490476Y-50307142D01*
X40585714Y-50164285D01*
X40633333Y-49973809D01*
X40633333Y-49592857D01*
X40585714Y-49497619D01*
X40538095Y-49450000D01*
X40442857Y-49402380D01*
X40252380Y-49402380D01*
X40157142Y-49450000D01*
X40109523Y-49497619D01*
X40061904Y-49592857D01*
X40061904Y-49830952D01*
X40109523Y-49926190D01*
X40157142Y-49973809D01*
X40252380Y-50021428D01*
X40442857Y-50021428D01*
X40538095Y-49973809D01*
X40585714Y-49926190D01*
X40633333Y-49830952D01*
X41252380Y-49402380D02*
X41347619Y-49402380D01*
X41442857Y-49450000D01*
X41490476Y-49497619D01*
X41538095Y-49592857D01*
X41585714Y-49783333D01*
X41585714Y-50021428D01*
X41538095Y-50211904D01*
X41490476Y-50307142D01*
X41442857Y-50354761D01*
X41347619Y-50402380D01*
X41252380Y-50402380D01*
X41157142Y-50354761D01*
X41109523Y-50307142D01*
X41061904Y-50211904D01*
X41014285Y-50021428D01*
X41014285Y-49783333D01*
X41061904Y-49592857D01*
X41109523Y-49497619D01*
X41157142Y-49450000D01*
X41252380Y-49402380D01*
X42442857Y-49735714D02*
X42442857Y-50402380D01*
X42204761Y-49354761D02*
X41966666Y-50069047D01*
X42585714Y-50069047D01*
D14*
X39073809Y-52735714D02*
X39050000Y-52783333D01*
X39002380Y-52830952D01*
X38930952Y-52902380D01*
X38907142Y-52950000D01*
X38907142Y-52997619D01*
X39026190Y-52973809D02*
X39002380Y-53021428D01*
X38954761Y-53069047D01*
X38859523Y-53092857D01*
X38692857Y-53092857D01*
X38597619Y-53069047D01*
X38550000Y-53021428D01*
X38526190Y-52973809D01*
X38526190Y-52878571D01*
X38550000Y-52830952D01*
X38597619Y-52783333D01*
X38692857Y-52759523D01*
X38859523Y-52759523D01*
X38954761Y-52783333D01*
X39002380Y-52830952D01*
X39026190Y-52878571D01*
X39026190Y-52973809D01*
X39026190Y-52283333D02*
X39026190Y-52569047D01*
X39026190Y-52426190D02*
X38526190Y-52426190D01*
X38597619Y-52473809D01*
X38645238Y-52521428D01*
X38669047Y-52569047D01*
X38526190Y-51973809D02*
X38526190Y-51926190D01*
X38550000Y-51878571D01*
X38573809Y-51854761D01*
X38621428Y-51830952D01*
X38716666Y-51807142D01*
X38835714Y-51807142D01*
X38930952Y-51830952D01*
X38978571Y-51854761D01*
X39002380Y-51878571D01*
X39026190Y-51926190D01*
X39026190Y-51973809D01*
X39002380Y-52021428D01*
X38978571Y-52045238D01*
X38930952Y-52069047D01*
X38835714Y-52092857D01*
X38716666Y-52092857D01*
X38621428Y-52069047D01*
X38573809Y-52045238D01*
X38550000Y-52021428D01*
X38526190Y-51973809D01*
%TO.C,Q8*%
D11*
X35109523Y-36402380D02*
X35109523Y-35402380D01*
X35442857Y-36116666D01*
X35776190Y-35402380D01*
X35776190Y-36402380D01*
X36252380Y-36402380D02*
X36252380Y-35402380D01*
X36585714Y-36116666D01*
X36919047Y-35402380D01*
X36919047Y-36402380D01*
X37728571Y-35878571D02*
X37871428Y-35926190D01*
X37919047Y-35973809D01*
X37966666Y-36069047D01*
X37966666Y-36211904D01*
X37919047Y-36307142D01*
X37871428Y-36354761D01*
X37776190Y-36402380D01*
X37395238Y-36402380D01*
X37395238Y-35402380D01*
X37728571Y-35402380D01*
X37823809Y-35450000D01*
X37871428Y-35497619D01*
X37919047Y-35592857D01*
X37919047Y-35688095D01*
X37871428Y-35783333D01*
X37823809Y-35830952D01*
X37728571Y-35878571D01*
X37395238Y-35878571D01*
X38252380Y-35402380D02*
X38823809Y-35402380D01*
X38538095Y-36402380D02*
X38538095Y-35402380D01*
X39061904Y-35402380D02*
X39680952Y-35402380D01*
X39347619Y-35783333D01*
X39490476Y-35783333D01*
X39585714Y-35830952D01*
X39633333Y-35878571D01*
X39680952Y-35973809D01*
X39680952Y-36211904D01*
X39633333Y-36307142D01*
X39585714Y-36354761D01*
X39490476Y-36402380D01*
X39204761Y-36402380D01*
X39109523Y-36354761D01*
X39061904Y-36307142D01*
X40157142Y-36402380D02*
X40347619Y-36402380D01*
X40442857Y-36354761D01*
X40490476Y-36307142D01*
X40585714Y-36164285D01*
X40633333Y-35973809D01*
X40633333Y-35592857D01*
X40585714Y-35497619D01*
X40538095Y-35450000D01*
X40442857Y-35402380D01*
X40252380Y-35402380D01*
X40157142Y-35450000D01*
X40109523Y-35497619D01*
X40061904Y-35592857D01*
X40061904Y-35830952D01*
X40109523Y-35926190D01*
X40157142Y-35973809D01*
X40252380Y-36021428D01*
X40442857Y-36021428D01*
X40538095Y-35973809D01*
X40585714Y-35926190D01*
X40633333Y-35830952D01*
X41252380Y-35402380D02*
X41347619Y-35402380D01*
X41442857Y-35450000D01*
X41490476Y-35497619D01*
X41538095Y-35592857D01*
X41585714Y-35783333D01*
X41585714Y-36021428D01*
X41538095Y-36211904D01*
X41490476Y-36307142D01*
X41442857Y-36354761D01*
X41347619Y-36402380D01*
X41252380Y-36402380D01*
X41157142Y-36354761D01*
X41109523Y-36307142D01*
X41061904Y-36211904D01*
X41014285Y-36021428D01*
X41014285Y-35783333D01*
X41061904Y-35592857D01*
X41109523Y-35497619D01*
X41157142Y-35450000D01*
X41252380Y-35402380D01*
X42442857Y-35735714D02*
X42442857Y-36402380D01*
X42204761Y-35354761D02*
X41966666Y-36069047D01*
X42585714Y-36069047D01*
D14*
X39073809Y-38497619D02*
X39050000Y-38545238D01*
X39002380Y-38592857D01*
X38930952Y-38664285D01*
X38907142Y-38711904D01*
X38907142Y-38759523D01*
X39026190Y-38735714D02*
X39002380Y-38783333D01*
X38954761Y-38830952D01*
X38859523Y-38854761D01*
X38692857Y-38854761D01*
X38597619Y-38830952D01*
X38550000Y-38783333D01*
X38526190Y-38735714D01*
X38526190Y-38640476D01*
X38550000Y-38592857D01*
X38597619Y-38545238D01*
X38692857Y-38521428D01*
X38859523Y-38521428D01*
X38954761Y-38545238D01*
X39002380Y-38592857D01*
X39026190Y-38640476D01*
X39026190Y-38735714D01*
X38740476Y-38235714D02*
X38716666Y-38283333D01*
X38692857Y-38307142D01*
X38645238Y-38330952D01*
X38621428Y-38330952D01*
X38573809Y-38307142D01*
X38550000Y-38283333D01*
X38526190Y-38235714D01*
X38526190Y-38140476D01*
X38550000Y-38092857D01*
X38573809Y-38069047D01*
X38621428Y-38045238D01*
X38645238Y-38045238D01*
X38692857Y-38069047D01*
X38716666Y-38092857D01*
X38740476Y-38140476D01*
X38740476Y-38235714D01*
X38764285Y-38283333D01*
X38788095Y-38307142D01*
X38835714Y-38330952D01*
X38930952Y-38330952D01*
X38978571Y-38307142D01*
X39002380Y-38283333D01*
X39026190Y-38235714D01*
X39026190Y-38140476D01*
X39002380Y-38092857D01*
X38978571Y-38069047D01*
X38930952Y-38045238D01*
X38835714Y-38045238D01*
X38788095Y-38069047D01*
X38764285Y-38092857D01*
X38740476Y-38140476D01*
%TO.C,R10*%
D11*
X61933333Y-47452380D02*
X61361904Y-47452380D01*
X61647619Y-47452380D02*
X61647619Y-46452380D01*
X61552380Y-46595238D01*
X61457142Y-46690476D01*
X61361904Y-46738095D01*
X62552380Y-46452380D02*
X62647619Y-46452380D01*
X62742857Y-46500000D01*
X62790476Y-46547619D01*
X62838095Y-46642857D01*
X62885714Y-46833333D01*
X62885714Y-47071428D01*
X62838095Y-47261904D01*
X62790476Y-47357142D01*
X62742857Y-47404761D01*
X62647619Y-47452380D01*
X62552380Y-47452380D01*
X62457142Y-47404761D01*
X62409523Y-47357142D01*
X62361904Y-47261904D01*
X62314285Y-47071428D01*
X62314285Y-46833333D01*
X62361904Y-46642857D01*
X62409523Y-46547619D01*
X62457142Y-46500000D01*
X62552380Y-46452380D01*
X63504761Y-46452380D02*
X63600000Y-46452380D01*
X63695238Y-46500000D01*
X63742857Y-46547619D01*
X63790476Y-46642857D01*
X63838095Y-46833333D01*
X63838095Y-47071428D01*
X63790476Y-47261904D01*
X63742857Y-47357142D01*
X63695238Y-47404761D01*
X63600000Y-47452380D01*
X63504761Y-47452380D01*
X63409523Y-47404761D01*
X63361904Y-47357142D01*
X63314285Y-47261904D01*
X63266666Y-47071428D01*
X63266666Y-46833333D01*
X63314285Y-46642857D01*
X63361904Y-46547619D01*
X63409523Y-46500000D01*
X63504761Y-46452380D01*
X64266666Y-47452380D02*
X64266666Y-46452380D01*
X64838095Y-47452380D02*
X64409523Y-46880952D01*
X64838095Y-46452380D02*
X64266666Y-47023809D01*
D12*
X62778571Y-45576190D02*
X62611904Y-45338095D01*
X62492857Y-45576190D02*
X62492857Y-45076190D01*
X62683333Y-45076190D01*
X62730952Y-45100000D01*
X62754761Y-45123809D01*
X62778571Y-45171428D01*
X62778571Y-45242857D01*
X62754761Y-45290476D01*
X62730952Y-45314285D01*
X62683333Y-45338095D01*
X62492857Y-45338095D01*
X63254761Y-45576190D02*
X62969047Y-45576190D01*
X63111904Y-45576190D02*
X63111904Y-45076190D01*
X63064285Y-45147619D01*
X63016666Y-45195238D01*
X62969047Y-45219047D01*
X63564285Y-45076190D02*
X63611904Y-45076190D01*
X63659523Y-45100000D01*
X63683333Y-45123809D01*
X63707142Y-45171428D01*
X63730952Y-45266666D01*
X63730952Y-45385714D01*
X63707142Y-45480952D01*
X63683333Y-45528571D01*
X63659523Y-45552380D01*
X63611904Y-45576190D01*
X63564285Y-45576190D01*
X63516666Y-45552380D01*
X63492857Y-45528571D01*
X63469047Y-45480952D01*
X63445238Y-45385714D01*
X63445238Y-45266666D01*
X63469047Y-45171428D01*
X63492857Y-45123809D01*
X63516666Y-45100000D01*
X63564285Y-45076190D01*
%TO.C,R4*%
D11*
X62885714Y-31102380D02*
X62314285Y-31102380D01*
X62600000Y-31102380D02*
X62600000Y-30102380D01*
X62504761Y-30245238D01*
X62409523Y-30340476D01*
X62314285Y-30388095D01*
X63314285Y-31102380D02*
X63314285Y-30102380D01*
X63885714Y-31102380D02*
X63457142Y-30530952D01*
X63885714Y-30102380D02*
X63314285Y-30673809D01*
D12*
X63016666Y-32526190D02*
X62850000Y-32288095D01*
X62730952Y-32526190D02*
X62730952Y-32026190D01*
X62921428Y-32026190D01*
X62969047Y-32050000D01*
X62992857Y-32073809D01*
X63016666Y-32121428D01*
X63016666Y-32192857D01*
X62992857Y-32240476D01*
X62969047Y-32264285D01*
X62921428Y-32288095D01*
X62730952Y-32288095D01*
X63445238Y-32192857D02*
X63445238Y-32526190D01*
X63326190Y-32002380D02*
X63207142Y-32359523D01*
X63516666Y-32359523D01*
%TO.C,Q7*%
D11*
X59409523Y-56352380D02*
X59409523Y-55352380D01*
X59742857Y-56066666D01*
X60076190Y-55352380D01*
X60076190Y-56352380D01*
X60552380Y-56352380D02*
X60552380Y-55352380D01*
X60885714Y-56066666D01*
X61219047Y-55352380D01*
X61219047Y-56352380D01*
X62028571Y-55828571D02*
X62171428Y-55876190D01*
X62219047Y-55923809D01*
X62266666Y-56019047D01*
X62266666Y-56161904D01*
X62219047Y-56257142D01*
X62171428Y-56304761D01*
X62076190Y-56352380D01*
X61695238Y-56352380D01*
X61695238Y-55352380D01*
X62028571Y-55352380D01*
X62123809Y-55400000D01*
X62171428Y-55447619D01*
X62219047Y-55542857D01*
X62219047Y-55638095D01*
X62171428Y-55733333D01*
X62123809Y-55780952D01*
X62028571Y-55828571D01*
X61695238Y-55828571D01*
X62552380Y-55352380D02*
X63123809Y-55352380D01*
X62838095Y-56352380D02*
X62838095Y-55352380D01*
X63361904Y-55352380D02*
X63980952Y-55352380D01*
X63647619Y-55733333D01*
X63790476Y-55733333D01*
X63885714Y-55780952D01*
X63933333Y-55828571D01*
X63980952Y-55923809D01*
X63980952Y-56161904D01*
X63933333Y-56257142D01*
X63885714Y-56304761D01*
X63790476Y-56352380D01*
X63504761Y-56352380D01*
X63409523Y-56304761D01*
X63361904Y-56257142D01*
X64457142Y-56352380D02*
X64647619Y-56352380D01*
X64742857Y-56304761D01*
X64790476Y-56257142D01*
X64885714Y-56114285D01*
X64933333Y-55923809D01*
X64933333Y-55542857D01*
X64885714Y-55447619D01*
X64838095Y-55400000D01*
X64742857Y-55352380D01*
X64552380Y-55352380D01*
X64457142Y-55400000D01*
X64409523Y-55447619D01*
X64361904Y-55542857D01*
X64361904Y-55780952D01*
X64409523Y-55876190D01*
X64457142Y-55923809D01*
X64552380Y-55971428D01*
X64742857Y-55971428D01*
X64838095Y-55923809D01*
X64885714Y-55876190D01*
X64933333Y-55780952D01*
X65552380Y-55352380D02*
X65647619Y-55352380D01*
X65742857Y-55400000D01*
X65790476Y-55447619D01*
X65838095Y-55542857D01*
X65885714Y-55733333D01*
X65885714Y-55971428D01*
X65838095Y-56161904D01*
X65790476Y-56257142D01*
X65742857Y-56304761D01*
X65647619Y-56352380D01*
X65552380Y-56352380D01*
X65457142Y-56304761D01*
X65409523Y-56257142D01*
X65361904Y-56161904D01*
X65314285Y-55971428D01*
X65314285Y-55733333D01*
X65361904Y-55542857D01*
X65409523Y-55447619D01*
X65457142Y-55400000D01*
X65552380Y-55352380D01*
X66742857Y-55685714D02*
X66742857Y-56352380D01*
X66504761Y-55304761D02*
X66266666Y-56019047D01*
X66885714Y-56019047D01*
D14*
X63373809Y-58447619D02*
X63350000Y-58495238D01*
X63302380Y-58542857D01*
X63230952Y-58614285D01*
X63207142Y-58661904D01*
X63207142Y-58709523D01*
X63326190Y-58685714D02*
X63302380Y-58733333D01*
X63254761Y-58780952D01*
X63159523Y-58804761D01*
X62992857Y-58804761D01*
X62897619Y-58780952D01*
X62850000Y-58733333D01*
X62826190Y-58685714D01*
X62826190Y-58590476D01*
X62850000Y-58542857D01*
X62897619Y-58495238D01*
X62992857Y-58471428D01*
X63159523Y-58471428D01*
X63254761Y-58495238D01*
X63302380Y-58542857D01*
X63326190Y-58590476D01*
X63326190Y-58685714D01*
X62826190Y-58304761D02*
X62826190Y-57971428D01*
X63326190Y-58185714D01*
%TO.C,R1*%
D11*
X37538095Y-33697619D02*
X37585714Y-33650000D01*
X37680952Y-33602380D01*
X37919047Y-33602380D01*
X38014285Y-33650000D01*
X38061904Y-33697619D01*
X38109523Y-33792857D01*
X38109523Y-33888095D01*
X38061904Y-34030952D01*
X37490476Y-34602380D01*
X38109523Y-34602380D01*
X38538095Y-34602380D02*
X38538095Y-33602380D01*
X39109523Y-34602380D02*
X38680952Y-34030952D01*
X39109523Y-33602380D02*
X38538095Y-34173809D01*
X39490476Y-33697619D02*
X39538095Y-33650000D01*
X39633333Y-33602380D01*
X39871428Y-33602380D01*
X39966666Y-33650000D01*
X40014285Y-33697619D01*
X40061904Y-33792857D01*
X40061904Y-33888095D01*
X40014285Y-34030952D01*
X39442857Y-34602380D01*
X40061904Y-34602380D01*
D12*
X38716666Y-32726190D02*
X38550000Y-32488095D01*
X38430952Y-32726190D02*
X38430952Y-32226190D01*
X38621428Y-32226190D01*
X38669047Y-32250000D01*
X38692857Y-32273809D01*
X38716666Y-32321428D01*
X38716666Y-32392857D01*
X38692857Y-32440476D01*
X38669047Y-32464285D01*
X38621428Y-32488095D01*
X38430952Y-32488095D01*
X39192857Y-32726190D02*
X38907142Y-32726190D01*
X39050000Y-32726190D02*
X39050000Y-32226190D01*
X39002380Y-32297619D01*
X38954761Y-32345238D01*
X38907142Y-32369047D01*
%TO.C,R20*%
D11*
X54285714Y-31202380D02*
X53714285Y-31202380D01*
X54000000Y-31202380D02*
X54000000Y-30202380D01*
X53904761Y-30345238D01*
X53809523Y-30440476D01*
X53714285Y-30488095D01*
X54714285Y-31202380D02*
X54714285Y-30202380D01*
X55285714Y-31202380D02*
X54857142Y-30630952D01*
X55285714Y-30202380D02*
X54714285Y-30773809D01*
D12*
X54178571Y-32626190D02*
X54011904Y-32388095D01*
X53892857Y-32626190D02*
X53892857Y-32126190D01*
X54083333Y-32126190D01*
X54130952Y-32150000D01*
X54154761Y-32173809D01*
X54178571Y-32221428D01*
X54178571Y-32292857D01*
X54154761Y-32340476D01*
X54130952Y-32364285D01*
X54083333Y-32388095D01*
X53892857Y-32388095D01*
X54369047Y-32173809D02*
X54392857Y-32150000D01*
X54440476Y-32126190D01*
X54559523Y-32126190D01*
X54607142Y-32150000D01*
X54630952Y-32173809D01*
X54654761Y-32221428D01*
X54654761Y-32269047D01*
X54630952Y-32340476D01*
X54345238Y-32626190D01*
X54654761Y-32626190D01*
X54964285Y-32126190D02*
X55011904Y-32126190D01*
X55059523Y-32150000D01*
X55083333Y-32173809D01*
X55107142Y-32221428D01*
X55130952Y-32316666D01*
X55130952Y-32435714D01*
X55107142Y-32530952D01*
X55083333Y-32578571D01*
X55059523Y-32602380D01*
X55011904Y-32626190D01*
X54964285Y-32626190D01*
X54916666Y-32602380D01*
X54892857Y-32578571D01*
X54869047Y-32530952D01*
X54845238Y-32435714D01*
X54845238Y-32316666D01*
X54869047Y-32221428D01*
X54892857Y-32173809D01*
X54916666Y-32150000D01*
X54964285Y-32126190D01*
%TO.C,Q6*%
D11*
X67709523Y-47952380D02*
X67709523Y-46952380D01*
X68042857Y-47666666D01*
X68376190Y-46952380D01*
X68376190Y-47952380D01*
X68852380Y-47952380D02*
X68852380Y-46952380D01*
X69185714Y-47666666D01*
X69519047Y-46952380D01*
X69519047Y-47952380D01*
X70328571Y-47428571D02*
X70471428Y-47476190D01*
X70519047Y-47523809D01*
X70566666Y-47619047D01*
X70566666Y-47761904D01*
X70519047Y-47857142D01*
X70471428Y-47904761D01*
X70376190Y-47952380D01*
X69995238Y-47952380D01*
X69995238Y-46952380D01*
X70328571Y-46952380D01*
X70423809Y-47000000D01*
X70471428Y-47047619D01*
X70519047Y-47142857D01*
X70519047Y-47238095D01*
X70471428Y-47333333D01*
X70423809Y-47380952D01*
X70328571Y-47428571D01*
X69995238Y-47428571D01*
X70852380Y-46952380D02*
X71423809Y-46952380D01*
X71138095Y-47952380D02*
X71138095Y-46952380D01*
X71661904Y-46952380D02*
X72280952Y-46952380D01*
X71947619Y-47333333D01*
X72090476Y-47333333D01*
X72185714Y-47380952D01*
X72233333Y-47428571D01*
X72280952Y-47523809D01*
X72280952Y-47761904D01*
X72233333Y-47857142D01*
X72185714Y-47904761D01*
X72090476Y-47952380D01*
X71804761Y-47952380D01*
X71709523Y-47904761D01*
X71661904Y-47857142D01*
X72757142Y-47952380D02*
X72947619Y-47952380D01*
X73042857Y-47904761D01*
X73090476Y-47857142D01*
X73185714Y-47714285D01*
X73233333Y-47523809D01*
X73233333Y-47142857D01*
X73185714Y-47047619D01*
X73138095Y-47000000D01*
X73042857Y-46952380D01*
X72852380Y-46952380D01*
X72757142Y-47000000D01*
X72709523Y-47047619D01*
X72661904Y-47142857D01*
X72661904Y-47380952D01*
X72709523Y-47476190D01*
X72757142Y-47523809D01*
X72852380Y-47571428D01*
X73042857Y-47571428D01*
X73138095Y-47523809D01*
X73185714Y-47476190D01*
X73233333Y-47380952D01*
X73852380Y-46952380D02*
X73947619Y-46952380D01*
X74042857Y-47000000D01*
X74090476Y-47047619D01*
X74138095Y-47142857D01*
X74185714Y-47333333D01*
X74185714Y-47571428D01*
X74138095Y-47761904D01*
X74090476Y-47857142D01*
X74042857Y-47904761D01*
X73947619Y-47952380D01*
X73852380Y-47952380D01*
X73757142Y-47904761D01*
X73709523Y-47857142D01*
X73661904Y-47761904D01*
X73614285Y-47571428D01*
X73614285Y-47333333D01*
X73661904Y-47142857D01*
X73709523Y-47047619D01*
X73757142Y-47000000D01*
X73852380Y-46952380D01*
X75042857Y-47285714D02*
X75042857Y-47952380D01*
X74804761Y-46904761D02*
X74566666Y-47619047D01*
X75185714Y-47619047D01*
D14*
X71673809Y-45047619D02*
X71650000Y-45095238D01*
X71602380Y-45142857D01*
X71530952Y-45214285D01*
X71507142Y-45261904D01*
X71507142Y-45309523D01*
X71626190Y-45285714D02*
X71602380Y-45333333D01*
X71554761Y-45380952D01*
X71459523Y-45404761D01*
X71292857Y-45404761D01*
X71197619Y-45380952D01*
X71150000Y-45333333D01*
X71126190Y-45285714D01*
X71126190Y-45190476D01*
X71150000Y-45142857D01*
X71197619Y-45095238D01*
X71292857Y-45071428D01*
X71459523Y-45071428D01*
X71554761Y-45095238D01*
X71602380Y-45142857D01*
X71626190Y-45190476D01*
X71626190Y-45285714D01*
X71126190Y-44642857D02*
X71126190Y-44738095D01*
X71150000Y-44785714D01*
X71173809Y-44809523D01*
X71245238Y-44857142D01*
X71340476Y-44880952D01*
X71530952Y-44880952D01*
X71578571Y-44857142D01*
X71602380Y-44833333D01*
X71626190Y-44785714D01*
X71626190Y-44690476D01*
X71602380Y-44642857D01*
X71578571Y-44619047D01*
X71530952Y-44595238D01*
X71411904Y-44595238D01*
X71364285Y-44619047D01*
X71340476Y-44642857D01*
X71316666Y-44690476D01*
X71316666Y-44785714D01*
X71340476Y-44833333D01*
X71364285Y-44857142D01*
X71411904Y-44880952D01*
%TO.C,Q5*%
D11*
X59409523Y-36352380D02*
X59409523Y-35352380D01*
X59742857Y-36066666D01*
X60076190Y-35352380D01*
X60076190Y-36352380D01*
X60552380Y-36352380D02*
X60552380Y-35352380D01*
X60885714Y-36066666D01*
X61219047Y-35352380D01*
X61219047Y-36352380D01*
X62028571Y-35828571D02*
X62171428Y-35876190D01*
X62219047Y-35923809D01*
X62266666Y-36019047D01*
X62266666Y-36161904D01*
X62219047Y-36257142D01*
X62171428Y-36304761D01*
X62076190Y-36352380D01*
X61695238Y-36352380D01*
X61695238Y-35352380D01*
X62028571Y-35352380D01*
X62123809Y-35400000D01*
X62171428Y-35447619D01*
X62219047Y-35542857D01*
X62219047Y-35638095D01*
X62171428Y-35733333D01*
X62123809Y-35780952D01*
X62028571Y-35828571D01*
X61695238Y-35828571D01*
X62552380Y-35352380D02*
X63123809Y-35352380D01*
X62838095Y-36352380D02*
X62838095Y-35352380D01*
X63361904Y-35352380D02*
X63980952Y-35352380D01*
X63647619Y-35733333D01*
X63790476Y-35733333D01*
X63885714Y-35780952D01*
X63933333Y-35828571D01*
X63980952Y-35923809D01*
X63980952Y-36161904D01*
X63933333Y-36257142D01*
X63885714Y-36304761D01*
X63790476Y-36352380D01*
X63504761Y-36352380D01*
X63409523Y-36304761D01*
X63361904Y-36257142D01*
X64457142Y-36352380D02*
X64647619Y-36352380D01*
X64742857Y-36304761D01*
X64790476Y-36257142D01*
X64885714Y-36114285D01*
X64933333Y-35923809D01*
X64933333Y-35542857D01*
X64885714Y-35447619D01*
X64838095Y-35400000D01*
X64742857Y-35352380D01*
X64552380Y-35352380D01*
X64457142Y-35400000D01*
X64409523Y-35447619D01*
X64361904Y-35542857D01*
X64361904Y-35780952D01*
X64409523Y-35876190D01*
X64457142Y-35923809D01*
X64552380Y-35971428D01*
X64742857Y-35971428D01*
X64838095Y-35923809D01*
X64885714Y-35876190D01*
X64933333Y-35780952D01*
X65552380Y-35352380D02*
X65647619Y-35352380D01*
X65742857Y-35400000D01*
X65790476Y-35447619D01*
X65838095Y-35542857D01*
X65885714Y-35733333D01*
X65885714Y-35971428D01*
X65838095Y-36161904D01*
X65790476Y-36257142D01*
X65742857Y-36304761D01*
X65647619Y-36352380D01*
X65552380Y-36352380D01*
X65457142Y-36304761D01*
X65409523Y-36257142D01*
X65361904Y-36161904D01*
X65314285Y-35971428D01*
X65314285Y-35733333D01*
X65361904Y-35542857D01*
X65409523Y-35447619D01*
X65457142Y-35400000D01*
X65552380Y-35352380D01*
X66742857Y-35685714D02*
X66742857Y-36352380D01*
X66504761Y-35304761D02*
X66266666Y-36019047D01*
X66885714Y-36019047D01*
D14*
X63373809Y-38447619D02*
X63350000Y-38495238D01*
X63302380Y-38542857D01*
X63230952Y-38614285D01*
X63207142Y-38661904D01*
X63207142Y-38709523D01*
X63326190Y-38685714D02*
X63302380Y-38733333D01*
X63254761Y-38780952D01*
X63159523Y-38804761D01*
X62992857Y-38804761D01*
X62897619Y-38780952D01*
X62850000Y-38733333D01*
X62826190Y-38685714D01*
X62826190Y-38590476D01*
X62850000Y-38542857D01*
X62897619Y-38495238D01*
X62992857Y-38471428D01*
X63159523Y-38471428D01*
X63254761Y-38495238D01*
X63302380Y-38542857D01*
X63326190Y-38590476D01*
X63326190Y-38685714D01*
X62826190Y-38019047D02*
X62826190Y-38257142D01*
X63064285Y-38280952D01*
X63040476Y-38257142D01*
X63016666Y-38209523D01*
X63016666Y-38090476D01*
X63040476Y-38042857D01*
X63064285Y-38019047D01*
X63111904Y-37995238D01*
X63230952Y-37995238D01*
X63278571Y-38019047D01*
X63302380Y-38042857D01*
X63326190Y-38090476D01*
X63326190Y-38209523D01*
X63302380Y-38257142D01*
X63278571Y-38280952D01*
%TO.C,R3*%
D11*
X46485714Y-31202380D02*
X45914285Y-31202380D01*
X46200000Y-31202380D02*
X46200000Y-30202380D01*
X46104761Y-30345238D01*
X46009523Y-30440476D01*
X45914285Y-30488095D01*
X46914285Y-31202380D02*
X46914285Y-30202380D01*
X47485714Y-31202380D02*
X47057142Y-30630952D01*
X47485714Y-30202380D02*
X46914285Y-30773809D01*
D12*
X46616666Y-32626190D02*
X46450000Y-32388095D01*
X46330952Y-32626190D02*
X46330952Y-32126190D01*
X46521428Y-32126190D01*
X46569047Y-32150000D01*
X46592857Y-32173809D01*
X46616666Y-32221428D01*
X46616666Y-32292857D01*
X46592857Y-32340476D01*
X46569047Y-32364285D01*
X46521428Y-32388095D01*
X46330952Y-32388095D01*
X46783333Y-32126190D02*
X47092857Y-32126190D01*
X46926190Y-32316666D01*
X46997619Y-32316666D01*
X47045238Y-32340476D01*
X47069047Y-32364285D01*
X47092857Y-32411904D01*
X47092857Y-32530952D01*
X47069047Y-32578571D01*
X47045238Y-32602380D01*
X46997619Y-32626190D01*
X46854761Y-32626190D01*
X46807142Y-32602380D01*
X46783333Y-32578571D01*
%TO.C,R7*%
D11*
X46485714Y-44152380D02*
X45914285Y-44152380D01*
X46200000Y-44152380D02*
X46200000Y-43152380D01*
X46104761Y-43295238D01*
X46009523Y-43390476D01*
X45914285Y-43438095D01*
X46914285Y-44152380D02*
X46914285Y-43152380D01*
X47485714Y-44152380D02*
X47057142Y-43580952D01*
X47485714Y-43152380D02*
X46914285Y-43723809D01*
D12*
X46616666Y-45576190D02*
X46450000Y-45338095D01*
X46330952Y-45576190D02*
X46330952Y-45076190D01*
X46521428Y-45076190D01*
X46569047Y-45100000D01*
X46592857Y-45123809D01*
X46616666Y-45171428D01*
X46616666Y-45242857D01*
X46592857Y-45290476D01*
X46569047Y-45314285D01*
X46521428Y-45338095D01*
X46330952Y-45338095D01*
X46783333Y-45076190D02*
X47116666Y-45076190D01*
X46902380Y-45576190D01*
%TO.C,R22*%
D11*
X62885714Y-53902380D02*
X62314285Y-53902380D01*
X62600000Y-53902380D02*
X62600000Y-52902380D01*
X62504761Y-53045238D01*
X62409523Y-53140476D01*
X62314285Y-53188095D01*
X63314285Y-53902380D02*
X63314285Y-52902380D01*
X63885714Y-53902380D02*
X63457142Y-53330952D01*
X63885714Y-52902380D02*
X63314285Y-53473809D01*
D12*
X62778571Y-52026190D02*
X62611904Y-51788095D01*
X62492857Y-52026190D02*
X62492857Y-51526190D01*
X62683333Y-51526190D01*
X62730952Y-51550000D01*
X62754761Y-51573809D01*
X62778571Y-51621428D01*
X62778571Y-51692857D01*
X62754761Y-51740476D01*
X62730952Y-51764285D01*
X62683333Y-51788095D01*
X62492857Y-51788095D01*
X62969047Y-51573809D02*
X62992857Y-51550000D01*
X63040476Y-51526190D01*
X63159523Y-51526190D01*
X63207142Y-51550000D01*
X63230952Y-51573809D01*
X63254761Y-51621428D01*
X63254761Y-51669047D01*
X63230952Y-51740476D01*
X62945238Y-52026190D01*
X63254761Y-52026190D01*
X63445238Y-51573809D02*
X63469047Y-51550000D01*
X63516666Y-51526190D01*
X63635714Y-51526190D01*
X63683333Y-51550000D01*
X63707142Y-51573809D01*
X63730952Y-51621428D01*
X63730952Y-51669047D01*
X63707142Y-51740476D01*
X63421428Y-52026190D01*
X63730952Y-52026190D01*
%TO.C,R13*%
D11*
X54285714Y-57102380D02*
X53714285Y-57102380D01*
X54000000Y-57102380D02*
X54000000Y-56102380D01*
X53904761Y-56245238D01*
X53809523Y-56340476D01*
X53714285Y-56388095D01*
X54714285Y-57102380D02*
X54714285Y-56102380D01*
X55285714Y-57102380D02*
X54857142Y-56530952D01*
X55285714Y-56102380D02*
X54714285Y-56673809D01*
D12*
X54178571Y-58526190D02*
X54011904Y-58288095D01*
X53892857Y-58526190D02*
X53892857Y-58026190D01*
X54083333Y-58026190D01*
X54130952Y-58050000D01*
X54154761Y-58073809D01*
X54178571Y-58121428D01*
X54178571Y-58192857D01*
X54154761Y-58240476D01*
X54130952Y-58264285D01*
X54083333Y-58288095D01*
X53892857Y-58288095D01*
X54654761Y-58526190D02*
X54369047Y-58526190D01*
X54511904Y-58526190D02*
X54511904Y-58026190D01*
X54464285Y-58097619D01*
X54416666Y-58145238D01*
X54369047Y-58169047D01*
X54821428Y-58026190D02*
X55130952Y-58026190D01*
X54964285Y-58216666D01*
X55035714Y-58216666D01*
X55083333Y-58240476D01*
X55107142Y-58264285D01*
X55130952Y-58311904D01*
X55130952Y-58430952D01*
X55107142Y-58478571D01*
X55083333Y-58502380D01*
X55035714Y-58526190D01*
X54892857Y-58526190D01*
X54845238Y-58502380D01*
X54821428Y-58478571D01*
%TO.C,R11*%
D11*
X54285714Y-44152380D02*
X53714285Y-44152380D01*
X54000000Y-44152380D02*
X54000000Y-43152380D01*
X53904761Y-43295238D01*
X53809523Y-43390476D01*
X53714285Y-43438095D01*
X54714285Y-44152380D02*
X54714285Y-43152380D01*
X55285714Y-44152380D02*
X54857142Y-43580952D01*
X55285714Y-43152380D02*
X54714285Y-43723809D01*
D12*
X54178571Y-45576190D02*
X54011904Y-45338095D01*
X53892857Y-45576190D02*
X53892857Y-45076190D01*
X54083333Y-45076190D01*
X54130952Y-45100000D01*
X54154761Y-45123809D01*
X54178571Y-45171428D01*
X54178571Y-45242857D01*
X54154761Y-45290476D01*
X54130952Y-45314285D01*
X54083333Y-45338095D01*
X53892857Y-45338095D01*
X54654761Y-45576190D02*
X54369047Y-45576190D01*
X54511904Y-45576190D02*
X54511904Y-45076190D01*
X54464285Y-45147619D01*
X54416666Y-45195238D01*
X54369047Y-45219047D01*
X55130952Y-45576190D02*
X54845238Y-45576190D01*
X54988095Y-45576190D02*
X54988095Y-45076190D01*
X54940476Y-45147619D01*
X54892857Y-45195238D01*
X54845238Y-45219047D01*
%TO.C,R18*%
D11*
X70233333Y-41002380D02*
X69661904Y-41002380D01*
X69947619Y-41002380D02*
X69947619Y-40002380D01*
X69852380Y-40145238D01*
X69757142Y-40240476D01*
X69661904Y-40288095D01*
X70852380Y-40002380D02*
X70947619Y-40002380D01*
X71042857Y-40050000D01*
X71090476Y-40097619D01*
X71138095Y-40192857D01*
X71185714Y-40383333D01*
X71185714Y-40621428D01*
X71138095Y-40811904D01*
X71090476Y-40907142D01*
X71042857Y-40954761D01*
X70947619Y-41002380D01*
X70852380Y-41002380D01*
X70757142Y-40954761D01*
X70709523Y-40907142D01*
X70661904Y-40811904D01*
X70614285Y-40621428D01*
X70614285Y-40383333D01*
X70661904Y-40192857D01*
X70709523Y-40097619D01*
X70757142Y-40050000D01*
X70852380Y-40002380D01*
X71804761Y-40002380D02*
X71900000Y-40002380D01*
X71995238Y-40050000D01*
X72042857Y-40097619D01*
X72090476Y-40192857D01*
X72138095Y-40383333D01*
X72138095Y-40621428D01*
X72090476Y-40811904D01*
X72042857Y-40907142D01*
X71995238Y-40954761D01*
X71900000Y-41002380D01*
X71804761Y-41002380D01*
X71709523Y-40954761D01*
X71661904Y-40907142D01*
X71614285Y-40811904D01*
X71566666Y-40621428D01*
X71566666Y-40383333D01*
X71614285Y-40192857D01*
X71661904Y-40097619D01*
X71709523Y-40050000D01*
X71804761Y-40002380D01*
X72566666Y-41002380D02*
X72566666Y-40002380D01*
X73138095Y-41002380D02*
X72709523Y-40430952D01*
X73138095Y-40002380D02*
X72566666Y-40573809D01*
D12*
X71078571Y-39126190D02*
X70911904Y-38888095D01*
X70792857Y-39126190D02*
X70792857Y-38626190D01*
X70983333Y-38626190D01*
X71030952Y-38650000D01*
X71054761Y-38673809D01*
X71078571Y-38721428D01*
X71078571Y-38792857D01*
X71054761Y-38840476D01*
X71030952Y-38864285D01*
X70983333Y-38888095D01*
X70792857Y-38888095D01*
X71554761Y-39126190D02*
X71269047Y-39126190D01*
X71411904Y-39126190D02*
X71411904Y-38626190D01*
X71364285Y-38697619D01*
X71316666Y-38745238D01*
X71269047Y-38769047D01*
X71840476Y-38840476D02*
X71792857Y-38816666D01*
X71769047Y-38792857D01*
X71745238Y-38745238D01*
X71745238Y-38721428D01*
X71769047Y-38673809D01*
X71792857Y-38650000D01*
X71840476Y-38626190D01*
X71935714Y-38626190D01*
X71983333Y-38650000D01*
X72007142Y-38673809D01*
X72030952Y-38721428D01*
X72030952Y-38745238D01*
X72007142Y-38792857D01*
X71983333Y-38816666D01*
X71935714Y-38840476D01*
X71840476Y-38840476D01*
X71792857Y-38864285D01*
X71769047Y-38888095D01*
X71745238Y-38935714D01*
X71745238Y-39030952D01*
X71769047Y-39078571D01*
X71792857Y-39102380D01*
X71840476Y-39126190D01*
X71935714Y-39126190D01*
X71983333Y-39102380D01*
X72007142Y-39078571D01*
X72030952Y-39030952D01*
X72030952Y-38935714D01*
X72007142Y-38888095D01*
X71983333Y-38864285D01*
X71935714Y-38840476D01*
%TO.C,R8*%
D11*
X54285714Y-50602380D02*
X53714285Y-50602380D01*
X54000000Y-50602380D02*
X54000000Y-49602380D01*
X53904761Y-49745238D01*
X53809523Y-49840476D01*
X53714285Y-49888095D01*
X54714285Y-50602380D02*
X54714285Y-49602380D01*
X55285714Y-50602380D02*
X54857142Y-50030952D01*
X55285714Y-49602380D02*
X54714285Y-50173809D01*
D12*
X54416666Y-52026190D02*
X54250000Y-51788095D01*
X54130952Y-52026190D02*
X54130952Y-51526190D01*
X54321428Y-51526190D01*
X54369047Y-51550000D01*
X54392857Y-51573809D01*
X54416666Y-51621428D01*
X54416666Y-51692857D01*
X54392857Y-51740476D01*
X54369047Y-51764285D01*
X54321428Y-51788095D01*
X54130952Y-51788095D01*
X54702380Y-51740476D02*
X54654761Y-51716666D01*
X54630952Y-51692857D01*
X54607142Y-51645238D01*
X54607142Y-51621428D01*
X54630952Y-51573809D01*
X54654761Y-51550000D01*
X54702380Y-51526190D01*
X54797619Y-51526190D01*
X54845238Y-51550000D01*
X54869047Y-51573809D01*
X54892857Y-51621428D01*
X54892857Y-51645238D01*
X54869047Y-51692857D01*
X54845238Y-51716666D01*
X54797619Y-51740476D01*
X54702380Y-51740476D01*
X54654761Y-51764285D01*
X54630952Y-51788095D01*
X54607142Y-51835714D01*
X54607142Y-51930952D01*
X54630952Y-51978571D01*
X54654761Y-52002380D01*
X54702380Y-52026190D01*
X54797619Y-52026190D01*
X54845238Y-52002380D01*
X54869047Y-51978571D01*
X54892857Y-51930952D01*
X54892857Y-51835714D01*
X54869047Y-51788095D01*
X54845238Y-51764285D01*
X54797619Y-51740476D01*
%TO.C,R19*%
D11*
X38585714Y-60402380D02*
X38014285Y-60402380D01*
X38300000Y-60402380D02*
X38300000Y-59402380D01*
X38204761Y-59545238D01*
X38109523Y-59640476D01*
X38014285Y-59688095D01*
X39014285Y-60402380D02*
X39014285Y-59402380D01*
X39585714Y-60402380D02*
X39157142Y-59830952D01*
X39585714Y-59402380D02*
X39014285Y-59973809D01*
D12*
X38478571Y-58526190D02*
X38311904Y-58288095D01*
X38192857Y-58526190D02*
X38192857Y-58026190D01*
X38383333Y-58026190D01*
X38430952Y-58050000D01*
X38454761Y-58073809D01*
X38478571Y-58121428D01*
X38478571Y-58192857D01*
X38454761Y-58240476D01*
X38430952Y-58264285D01*
X38383333Y-58288095D01*
X38192857Y-58288095D01*
X38954761Y-58526190D02*
X38669047Y-58526190D01*
X38811904Y-58526190D02*
X38811904Y-58026190D01*
X38764285Y-58097619D01*
X38716666Y-58145238D01*
X38669047Y-58169047D01*
X39192857Y-58526190D02*
X39288095Y-58526190D01*
X39335714Y-58502380D01*
X39359523Y-58478571D01*
X39407142Y-58407142D01*
X39430952Y-58311904D01*
X39430952Y-58121428D01*
X39407142Y-58073809D01*
X39383333Y-58050000D01*
X39335714Y-58026190D01*
X39240476Y-58026190D01*
X39192857Y-58050000D01*
X39169047Y-58073809D01*
X39145238Y-58121428D01*
X39145238Y-58240476D01*
X39169047Y-58288095D01*
X39192857Y-58311904D01*
X39240476Y-58335714D01*
X39335714Y-58335714D01*
X39383333Y-58311904D01*
X39407142Y-58288095D01*
X39430952Y-58240476D01*
%TO.C,R9*%
D11*
X46485714Y-57102380D02*
X45914285Y-57102380D01*
X46200000Y-57102380D02*
X46200000Y-56102380D01*
X46104761Y-56245238D01*
X46009523Y-56340476D01*
X45914285Y-56388095D01*
X46914285Y-57102380D02*
X46914285Y-56102380D01*
X47485714Y-57102380D02*
X47057142Y-56530952D01*
X47485714Y-56102380D02*
X46914285Y-56673809D01*
D12*
X46616666Y-58526190D02*
X46450000Y-58288095D01*
X46330952Y-58526190D02*
X46330952Y-58026190D01*
X46521428Y-58026190D01*
X46569047Y-58050000D01*
X46592857Y-58073809D01*
X46616666Y-58121428D01*
X46616666Y-58192857D01*
X46592857Y-58240476D01*
X46569047Y-58264285D01*
X46521428Y-58288095D01*
X46330952Y-58288095D01*
X46854761Y-58526190D02*
X46950000Y-58526190D01*
X46997619Y-58502380D01*
X47021428Y-58478571D01*
X47069047Y-58407142D01*
X47092857Y-58311904D01*
X47092857Y-58121428D01*
X47069047Y-58073809D01*
X47045238Y-58050000D01*
X46997619Y-58026190D01*
X46902380Y-58026190D01*
X46854761Y-58050000D01*
X46830952Y-58073809D01*
X46807142Y-58121428D01*
X46807142Y-58240476D01*
X46830952Y-58288095D01*
X46854761Y-58311904D01*
X46902380Y-58335714D01*
X46997619Y-58335714D01*
X47045238Y-58311904D01*
X47069047Y-58288095D01*
X47092857Y-58240476D01*
%TO.C,R14*%
D11*
X96804761Y-51819045D02*
X96233333Y-51819045D01*
X96519047Y-51819045D02*
X96519047Y-50819045D01*
X96423809Y-50961903D01*
X96328571Y-51057141D01*
X96233333Y-51104760D01*
X97423809Y-50819045D02*
X97519047Y-50819045D01*
X97614285Y-50866665D01*
X97661904Y-50914284D01*
X97709523Y-51009522D01*
X97757142Y-51199998D01*
X97757142Y-51438093D01*
X97709523Y-51628569D01*
X97661904Y-51723807D01*
X97614285Y-51771426D01*
X97519047Y-51819045D01*
X97423809Y-51819045D01*
X97328571Y-51771426D01*
X97280952Y-51723807D01*
X97233333Y-51628569D01*
X97185714Y-51438093D01*
X97185714Y-51199998D01*
X97233333Y-51009522D01*
X97280952Y-50914284D01*
X97328571Y-50866665D01*
X97423809Y-50819045D01*
X98376190Y-50819045D02*
X98471428Y-50819045D01*
X98566666Y-50866665D01*
X98614285Y-50914284D01*
X98661904Y-51009522D01*
X98709523Y-51199998D01*
X98709523Y-51438093D01*
X98661904Y-51628569D01*
X98614285Y-51723807D01*
X98566666Y-51771426D01*
X98471428Y-51819045D01*
X98376190Y-51819045D01*
X98280952Y-51771426D01*
X98233333Y-51723807D01*
X98185714Y-51628569D01*
X98138095Y-51438093D01*
X98138095Y-51199998D01*
X98185714Y-51009522D01*
X98233333Y-50914284D01*
X98280952Y-50866665D01*
X98376190Y-50819045D01*
X99709523Y-51819045D02*
X99376190Y-51342855D01*
X99138095Y-51819045D02*
X99138095Y-50819045D01*
X99519047Y-50819045D01*
X99614285Y-50866665D01*
X99661904Y-50914284D01*
X99709523Y-51009522D01*
X99709523Y-51152379D01*
X99661904Y-51247617D01*
X99614285Y-51295236D01*
X99519047Y-51342855D01*
X99138095Y-51342855D01*
X101423809Y-51819045D02*
X100852380Y-51819045D01*
X101138095Y-51819045D02*
X101138095Y-50819045D01*
X101042857Y-50961903D01*
X100947619Y-51057141D01*
X100852380Y-51104760D01*
X102566666Y-50771426D02*
X101709523Y-52057141D01*
X103328571Y-51152379D02*
X103328571Y-51819045D01*
X103090476Y-50771426D02*
X102852380Y-51485712D01*
X103471428Y-51485712D01*
X103757142Y-50819045D02*
X103995238Y-51819045D01*
X104185714Y-51104760D01*
X104376190Y-51819045D01*
X104614285Y-50819045D01*
D12*
X100078571Y-53242855D02*
X99911904Y-53004760D01*
X99792857Y-53242855D02*
X99792857Y-52742855D01*
X99983333Y-52742855D01*
X100030952Y-52766665D01*
X100054761Y-52790474D01*
X100078571Y-52838093D01*
X100078571Y-52909522D01*
X100054761Y-52957141D01*
X100030952Y-52980950D01*
X99983333Y-53004760D01*
X99792857Y-53004760D01*
X100554761Y-53242855D02*
X100269047Y-53242855D01*
X100411904Y-53242855D02*
X100411904Y-52742855D01*
X100364285Y-52814284D01*
X100316666Y-52861903D01*
X100269047Y-52885712D01*
X100983333Y-52909522D02*
X100983333Y-53242855D01*
X100864285Y-52719045D02*
X100745238Y-53076188D01*
X101054761Y-53076188D01*
%TO.C,R15*%
D11*
X96804761Y-41252379D02*
X96233333Y-41252379D01*
X96519047Y-41252379D02*
X96519047Y-40252379D01*
X96423809Y-40395237D01*
X96328571Y-40490475D01*
X96233333Y-40538094D01*
X97423809Y-40252379D02*
X97519047Y-40252379D01*
X97614285Y-40299999D01*
X97661904Y-40347618D01*
X97709523Y-40442856D01*
X97757142Y-40633332D01*
X97757142Y-40871427D01*
X97709523Y-41061903D01*
X97661904Y-41157141D01*
X97614285Y-41204760D01*
X97519047Y-41252379D01*
X97423809Y-41252379D01*
X97328571Y-41204760D01*
X97280952Y-41157141D01*
X97233333Y-41061903D01*
X97185714Y-40871427D01*
X97185714Y-40633332D01*
X97233333Y-40442856D01*
X97280952Y-40347618D01*
X97328571Y-40299999D01*
X97423809Y-40252379D01*
X98376190Y-40252379D02*
X98471428Y-40252379D01*
X98566666Y-40299999D01*
X98614285Y-40347618D01*
X98661904Y-40442856D01*
X98709523Y-40633332D01*
X98709523Y-40871427D01*
X98661904Y-41061903D01*
X98614285Y-41157141D01*
X98566666Y-41204760D01*
X98471428Y-41252379D01*
X98376190Y-41252379D01*
X98280952Y-41204760D01*
X98233333Y-41157141D01*
X98185714Y-41061903D01*
X98138095Y-40871427D01*
X98138095Y-40633332D01*
X98185714Y-40442856D01*
X98233333Y-40347618D01*
X98280952Y-40299999D01*
X98376190Y-40252379D01*
X99709523Y-41252379D02*
X99376190Y-40776189D01*
X99138095Y-41252379D02*
X99138095Y-40252379D01*
X99519047Y-40252379D01*
X99614285Y-40299999D01*
X99661904Y-40347618D01*
X99709523Y-40442856D01*
X99709523Y-40585713D01*
X99661904Y-40680951D01*
X99614285Y-40728570D01*
X99519047Y-40776189D01*
X99138095Y-40776189D01*
X101423809Y-41252379D02*
X100852380Y-41252379D01*
X101138095Y-41252379D02*
X101138095Y-40252379D01*
X101042857Y-40395237D01*
X100947619Y-40490475D01*
X100852380Y-40538094D01*
X102566666Y-40204760D02*
X101709523Y-41490475D01*
X103328571Y-40585713D02*
X103328571Y-41252379D01*
X103090476Y-40204760D02*
X102852380Y-40919046D01*
X103471428Y-40919046D01*
X103757142Y-40252379D02*
X103995238Y-41252379D01*
X104185714Y-40538094D01*
X104376190Y-41252379D01*
X104614285Y-40252379D01*
D12*
X100078571Y-42676189D02*
X99911904Y-42438094D01*
X99792857Y-42676189D02*
X99792857Y-42176189D01*
X99983333Y-42176189D01*
X100030952Y-42199999D01*
X100054761Y-42223808D01*
X100078571Y-42271427D01*
X100078571Y-42342856D01*
X100054761Y-42390475D01*
X100030952Y-42414284D01*
X99983333Y-42438094D01*
X99792857Y-42438094D01*
X100554761Y-42676189D02*
X100269047Y-42676189D01*
X100411904Y-42676189D02*
X100411904Y-42176189D01*
X100364285Y-42247618D01*
X100316666Y-42295237D01*
X100269047Y-42319046D01*
X101007142Y-42176189D02*
X100769047Y-42176189D01*
X100745238Y-42414284D01*
X100769047Y-42390475D01*
X100816666Y-42366665D01*
X100935714Y-42366665D01*
X100983333Y-42390475D01*
X101007142Y-42414284D01*
X101030952Y-42461903D01*
X101030952Y-42580951D01*
X101007142Y-42628570D01*
X100983333Y-42652379D01*
X100935714Y-42676189D01*
X100816666Y-42676189D01*
X100769047Y-42652379D01*
X100745238Y-42628570D01*
%TO.C,R12*%
D11*
X70233333Y-50602380D02*
X69661904Y-50602380D01*
X69947619Y-50602380D02*
X69947619Y-49602380D01*
X69852380Y-49745238D01*
X69757142Y-49840476D01*
X69661904Y-49888095D01*
X70852380Y-49602380D02*
X70947619Y-49602380D01*
X71042857Y-49650000D01*
X71090476Y-49697619D01*
X71138095Y-49792857D01*
X71185714Y-49983333D01*
X71185714Y-50221428D01*
X71138095Y-50411904D01*
X71090476Y-50507142D01*
X71042857Y-50554761D01*
X70947619Y-50602380D01*
X70852380Y-50602380D01*
X70757142Y-50554761D01*
X70709523Y-50507142D01*
X70661904Y-50411904D01*
X70614285Y-50221428D01*
X70614285Y-49983333D01*
X70661904Y-49792857D01*
X70709523Y-49697619D01*
X70757142Y-49650000D01*
X70852380Y-49602380D01*
X71804761Y-49602380D02*
X71900000Y-49602380D01*
X71995238Y-49650000D01*
X72042857Y-49697619D01*
X72090476Y-49792857D01*
X72138095Y-49983333D01*
X72138095Y-50221428D01*
X72090476Y-50411904D01*
X72042857Y-50507142D01*
X71995238Y-50554761D01*
X71900000Y-50602380D01*
X71804761Y-50602380D01*
X71709523Y-50554761D01*
X71661904Y-50507142D01*
X71614285Y-50411904D01*
X71566666Y-50221428D01*
X71566666Y-49983333D01*
X71614285Y-49792857D01*
X71661904Y-49697619D01*
X71709523Y-49650000D01*
X71804761Y-49602380D01*
X72566666Y-50602380D02*
X72566666Y-49602380D01*
X73138095Y-50602380D02*
X72709523Y-50030952D01*
X73138095Y-49602380D02*
X72566666Y-50173809D01*
D12*
X71078571Y-52026190D02*
X70911904Y-51788095D01*
X70792857Y-52026190D02*
X70792857Y-51526190D01*
X70983333Y-51526190D01*
X71030952Y-51550000D01*
X71054761Y-51573809D01*
X71078571Y-51621428D01*
X71078571Y-51692857D01*
X71054761Y-51740476D01*
X71030952Y-51764285D01*
X70983333Y-51788095D01*
X70792857Y-51788095D01*
X71554761Y-52026190D02*
X71269047Y-52026190D01*
X71411904Y-52026190D02*
X71411904Y-51526190D01*
X71364285Y-51597619D01*
X71316666Y-51645238D01*
X71269047Y-51669047D01*
X71745238Y-51573809D02*
X71769047Y-51550000D01*
X71816666Y-51526190D01*
X71935714Y-51526190D01*
X71983333Y-51550000D01*
X72007142Y-51573809D01*
X72030952Y-51621428D01*
X72030952Y-51669047D01*
X72007142Y-51740476D01*
X71721428Y-52026190D01*
X72030952Y-52026190D01*
%TO.C,R21*%
D11*
X71185714Y-31102380D02*
X70614285Y-31102380D01*
X70900000Y-31102380D02*
X70900000Y-30102380D01*
X70804761Y-30245238D01*
X70709523Y-30340476D01*
X70614285Y-30388095D01*
X71614285Y-31102380D02*
X71614285Y-30102380D01*
X72185714Y-31102380D02*
X71757142Y-30530952D01*
X72185714Y-30102380D02*
X71614285Y-30673809D01*
D12*
X71078571Y-32526190D02*
X70911904Y-32288095D01*
X70792857Y-32526190D02*
X70792857Y-32026190D01*
X70983333Y-32026190D01*
X71030952Y-32050000D01*
X71054761Y-32073809D01*
X71078571Y-32121428D01*
X71078571Y-32192857D01*
X71054761Y-32240476D01*
X71030952Y-32264285D01*
X70983333Y-32288095D01*
X70792857Y-32288095D01*
X71269047Y-32073809D02*
X71292857Y-32050000D01*
X71340476Y-32026190D01*
X71459523Y-32026190D01*
X71507142Y-32050000D01*
X71530952Y-32073809D01*
X71554761Y-32121428D01*
X71554761Y-32169047D01*
X71530952Y-32240476D01*
X71245238Y-32526190D01*
X71554761Y-32526190D01*
X72030952Y-32526190D02*
X71745238Y-32526190D01*
X71888095Y-32526190D02*
X71888095Y-32026190D01*
X71840476Y-32097619D01*
X71792857Y-32145238D01*
X71745238Y-32169047D01*
%TO.C,RV3 - Blue*%
D11*
X82363095Y-50552380D02*
X81886904Y-50552380D01*
X81839285Y-51028571D01*
X81886904Y-50980952D01*
X81982142Y-50933333D01*
X82220238Y-50933333D01*
X82315476Y-50980952D01*
X82363095Y-51028571D01*
X82410714Y-51123809D01*
X82410714Y-51361904D01*
X82363095Y-51457142D01*
X82315476Y-51504761D01*
X82220238Y-51552380D01*
X81982142Y-51552380D01*
X81886904Y-51504761D01*
X81839285Y-51457142D01*
X82839285Y-51552380D02*
X82839285Y-50552380D01*
X83410714Y-51552380D02*
X82982142Y-50980952D01*
X83410714Y-50552380D02*
X82839285Y-51123809D01*
X79989047Y-57157619D02*
X79762380Y-56833809D01*
X79600476Y-57157619D02*
X79600476Y-56477619D01*
X79859523Y-56477619D01*
X79924285Y-56510000D01*
X79956666Y-56542380D01*
X79989047Y-56607142D01*
X79989047Y-56704285D01*
X79956666Y-56769047D01*
X79924285Y-56801428D01*
X79859523Y-56833809D01*
X79600476Y-56833809D01*
X80183333Y-56477619D02*
X80410000Y-57157619D01*
X80636666Y-56477619D01*
X80798571Y-56477619D02*
X81219523Y-56477619D01*
X80992857Y-56736666D01*
X81090000Y-56736666D01*
X81154761Y-56769047D01*
X81187142Y-56801428D01*
X81219523Y-56866190D01*
X81219523Y-57028095D01*
X81187142Y-57092857D01*
X81154761Y-57125238D01*
X81090000Y-57157619D01*
X80895714Y-57157619D01*
X80830952Y-57125238D01*
X80798571Y-57092857D01*
X82029047Y-56898571D02*
X82547142Y-56898571D01*
X83615714Y-56801428D02*
X83712857Y-56833809D01*
X83745238Y-56866190D01*
X83777619Y-56930952D01*
X83777619Y-57028095D01*
X83745238Y-57092857D01*
X83712857Y-57125238D01*
X83648095Y-57157619D01*
X83389047Y-57157619D01*
X83389047Y-56477619D01*
X83615714Y-56477619D01*
X83680476Y-56510000D01*
X83712857Y-56542380D01*
X83745238Y-56607142D01*
X83745238Y-56671904D01*
X83712857Y-56736666D01*
X83680476Y-56769047D01*
X83615714Y-56801428D01*
X83389047Y-56801428D01*
X84166190Y-57157619D02*
X84101428Y-57125238D01*
X84069047Y-57060476D01*
X84069047Y-56477619D01*
X84716666Y-56704285D02*
X84716666Y-57157619D01*
X84425238Y-56704285D02*
X84425238Y-57060476D01*
X84457619Y-57125238D01*
X84522380Y-57157619D01*
X84619523Y-57157619D01*
X84684285Y-57125238D01*
X84716666Y-57092857D01*
X85299523Y-57125238D02*
X85234761Y-57157619D01*
X85105238Y-57157619D01*
X85040476Y-57125238D01*
X85008095Y-57060476D01*
X85008095Y-56801428D01*
X85040476Y-56736666D01*
X85105238Y-56704285D01*
X85234761Y-56704285D01*
X85299523Y-56736666D01*
X85331904Y-56801428D01*
X85331904Y-56866190D01*
X85008095Y-56930952D01*
%TO.C,RV2 - Red*%
X82363095Y-39737380D02*
X81886904Y-39737380D01*
X81839285Y-40213571D01*
X81886904Y-40165952D01*
X81982142Y-40118333D01*
X82220238Y-40118333D01*
X82315476Y-40165952D01*
X82363095Y-40213571D01*
X82410714Y-40308809D01*
X82410714Y-40546904D01*
X82363095Y-40642142D01*
X82315476Y-40689761D01*
X82220238Y-40737380D01*
X81982142Y-40737380D01*
X81886904Y-40689761D01*
X81839285Y-40642142D01*
X82839285Y-40737380D02*
X82839285Y-39737380D01*
X83410714Y-40737380D02*
X82982142Y-40165952D01*
X83410714Y-39737380D02*
X82839285Y-40308809D01*
X80167142Y-46342619D02*
X79940476Y-46018809D01*
X79778571Y-46342619D02*
X79778571Y-45662619D01*
X80037619Y-45662619D01*
X80102380Y-45695000D01*
X80134761Y-45727380D01*
X80167142Y-45792142D01*
X80167142Y-45889285D01*
X80134761Y-45954047D01*
X80102380Y-45986428D01*
X80037619Y-46018809D01*
X79778571Y-46018809D01*
X80361428Y-45662619D02*
X80588095Y-46342619D01*
X80814761Y-45662619D01*
X81009047Y-45727380D02*
X81041428Y-45695000D01*
X81106190Y-45662619D01*
X81268095Y-45662619D01*
X81332857Y-45695000D01*
X81365238Y-45727380D01*
X81397619Y-45792142D01*
X81397619Y-45856904D01*
X81365238Y-45954047D01*
X80976666Y-46342619D01*
X81397619Y-46342619D01*
X82207142Y-46083571D02*
X82725238Y-46083571D01*
X83955714Y-46342619D02*
X83729047Y-46018809D01*
X83567142Y-46342619D02*
X83567142Y-45662619D01*
X83826190Y-45662619D01*
X83890952Y-45695000D01*
X83923333Y-45727380D01*
X83955714Y-45792142D01*
X83955714Y-45889285D01*
X83923333Y-45954047D01*
X83890952Y-45986428D01*
X83826190Y-46018809D01*
X83567142Y-46018809D01*
X84506190Y-46310238D02*
X84441428Y-46342619D01*
X84311904Y-46342619D01*
X84247142Y-46310238D01*
X84214761Y-46245476D01*
X84214761Y-45986428D01*
X84247142Y-45921666D01*
X84311904Y-45889285D01*
X84441428Y-45889285D01*
X84506190Y-45921666D01*
X84538571Y-45986428D01*
X84538571Y-46051190D01*
X84214761Y-46115952D01*
X85121428Y-46342619D02*
X85121428Y-45662619D01*
X85121428Y-46310238D02*
X85056666Y-46342619D01*
X84927142Y-46342619D01*
X84862380Y-46310238D01*
X84830000Y-46277857D01*
X84797619Y-46213095D01*
X84797619Y-46018809D01*
X84830000Y-45954047D01*
X84862380Y-45921666D01*
X84927142Y-45889285D01*
X85056666Y-45889285D01*
X85121428Y-45921666D01*
%TO.C,P6*%
X22646190Y-27281142D02*
X22598571Y-27328761D01*
X22455714Y-27376380D01*
X22360476Y-27376380D01*
X22217619Y-27328761D01*
X22122380Y-27233523D01*
X22074761Y-27138285D01*
X22027142Y-26947809D01*
X22027142Y-26804952D01*
X22074761Y-26614476D01*
X22122380Y-26519238D01*
X22217619Y-26424000D01*
X22360476Y-26376380D01*
X22455714Y-26376380D01*
X22598571Y-26424000D01*
X22646190Y-26471619D01*
X23265238Y-26376380D02*
X23455714Y-26376380D01*
X23550952Y-26424000D01*
X23646190Y-26519238D01*
X23693809Y-26709714D01*
X23693809Y-27043047D01*
X23646190Y-27233523D01*
X23550952Y-27328761D01*
X23455714Y-27376380D01*
X23265238Y-27376380D01*
X23170000Y-27328761D01*
X23074761Y-27233523D01*
X23027142Y-27043047D01*
X23027142Y-26709714D01*
X23074761Y-26519238D01*
X23170000Y-26424000D01*
X23265238Y-26376380D01*
X24122380Y-27376380D02*
X24122380Y-26376380D01*
X24693809Y-27376380D01*
X24693809Y-26376380D01*
X25170000Y-27376380D02*
X25170000Y-26376380D01*
X25741428Y-27376380D01*
X25741428Y-26376380D01*
X25979523Y-27471619D02*
X26741428Y-27471619D01*
X27170000Y-26376380D02*
X27265238Y-26376380D01*
X27360476Y-26424000D01*
X27408095Y-26471619D01*
X27455714Y-26566857D01*
X27503333Y-26757333D01*
X27503333Y-26995428D01*
X27455714Y-27185904D01*
X27408095Y-27281142D01*
X27360476Y-27328761D01*
X27265238Y-27376380D01*
X27170000Y-27376380D01*
X27074761Y-27328761D01*
X27027142Y-27281142D01*
X26979523Y-27185904D01*
X26931904Y-26995428D01*
X26931904Y-26757333D01*
X26979523Y-26566857D01*
X27027142Y-26471619D01*
X27074761Y-26424000D01*
X27170000Y-26376380D01*
X28455714Y-27376380D02*
X27884285Y-27376380D01*
X28170000Y-27376380D02*
X28170000Y-26376380D01*
X28074761Y-26519238D01*
X27979523Y-26614476D01*
X27884285Y-26662095D01*
X28789047Y-26376380D02*
X29455714Y-27376380D01*
X29455714Y-26376380D02*
X28789047Y-27376380D01*
X30027142Y-26376380D02*
X30122380Y-26376380D01*
X30217619Y-26424000D01*
X30265238Y-26471619D01*
X30312857Y-26566857D01*
X30360476Y-26757333D01*
X30360476Y-26995428D01*
X30312857Y-27185904D01*
X30265238Y-27281142D01*
X30217619Y-27328761D01*
X30122380Y-27376380D01*
X30027142Y-27376380D01*
X29931904Y-27328761D01*
X29884285Y-27281142D01*
X29836666Y-27185904D01*
X29789047Y-26995428D01*
X29789047Y-26757333D01*
X29836666Y-26566857D01*
X29884285Y-26471619D01*
X29931904Y-26424000D01*
X30027142Y-26376380D01*
X31312857Y-27376380D02*
X30741428Y-27376380D01*
X31027142Y-27376380D02*
X31027142Y-26376380D01*
X30931904Y-26519238D01*
X30836666Y-26614476D01*
X30741428Y-26662095D01*
%TO.C,P8*%
X114086190Y-27281142D02*
X114038571Y-27328761D01*
X113895714Y-27376380D01*
X113800476Y-27376380D01*
X113657619Y-27328761D01*
X113562380Y-27233523D01*
X113514761Y-27138285D01*
X113467142Y-26947809D01*
X113467142Y-26804952D01*
X113514761Y-26614476D01*
X113562380Y-26519238D01*
X113657619Y-26424000D01*
X113800476Y-26376380D01*
X113895714Y-26376380D01*
X114038571Y-26424000D01*
X114086190Y-26471619D01*
X114705238Y-26376380D02*
X114895714Y-26376380D01*
X114990952Y-26424000D01*
X115086190Y-26519238D01*
X115133809Y-26709714D01*
X115133809Y-27043047D01*
X115086190Y-27233523D01*
X114990952Y-27328761D01*
X114895714Y-27376380D01*
X114705238Y-27376380D01*
X114610000Y-27328761D01*
X114514761Y-27233523D01*
X114467142Y-27043047D01*
X114467142Y-26709714D01*
X114514761Y-26519238D01*
X114610000Y-26424000D01*
X114705238Y-26376380D01*
X115562380Y-27376380D02*
X115562380Y-26376380D01*
X116133809Y-27376380D01*
X116133809Y-26376380D01*
X116610000Y-27376380D02*
X116610000Y-26376380D01*
X117181428Y-27376380D01*
X117181428Y-26376380D01*
X117419523Y-27471619D02*
X118181428Y-27471619D01*
X118610000Y-26376380D02*
X118705238Y-26376380D01*
X118800476Y-26424000D01*
X118848095Y-26471619D01*
X118895714Y-26566857D01*
X118943333Y-26757333D01*
X118943333Y-26995428D01*
X118895714Y-27185904D01*
X118848095Y-27281142D01*
X118800476Y-27328761D01*
X118705238Y-27376380D01*
X118610000Y-27376380D01*
X118514761Y-27328761D01*
X118467142Y-27281142D01*
X118419523Y-27185904D01*
X118371904Y-26995428D01*
X118371904Y-26757333D01*
X118419523Y-26566857D01*
X118467142Y-26471619D01*
X118514761Y-26424000D01*
X118610000Y-26376380D01*
X119895714Y-27376380D02*
X119324285Y-27376380D01*
X119610000Y-27376380D02*
X119610000Y-26376380D01*
X119514761Y-26519238D01*
X119419523Y-26614476D01*
X119324285Y-26662095D01*
X120229047Y-26376380D02*
X120895714Y-27376380D01*
X120895714Y-26376380D02*
X120229047Y-27376380D01*
X121467142Y-26376380D02*
X121562380Y-26376380D01*
X121657619Y-26424000D01*
X121705238Y-26471619D01*
X121752857Y-26566857D01*
X121800476Y-26757333D01*
X121800476Y-26995428D01*
X121752857Y-27185904D01*
X121705238Y-27281142D01*
X121657619Y-27328761D01*
X121562380Y-27376380D01*
X121467142Y-27376380D01*
X121371904Y-27328761D01*
X121324285Y-27281142D01*
X121276666Y-27185904D01*
X121229047Y-26995428D01*
X121229047Y-26757333D01*
X121276666Y-26566857D01*
X121324285Y-26471619D01*
X121371904Y-26424000D01*
X121467142Y-26376380D01*
X122752857Y-27376380D02*
X122181428Y-27376380D01*
X122467142Y-27376380D02*
X122467142Y-26376380D01*
X122371904Y-26519238D01*
X122276666Y-26614476D01*
X122181428Y-26662095D01*
%TO.C,P9*%
X114086190Y-65381142D02*
X114038571Y-65428761D01*
X113895714Y-65476380D01*
X113800476Y-65476380D01*
X113657619Y-65428761D01*
X113562380Y-65333523D01*
X113514761Y-65238285D01*
X113467142Y-65047809D01*
X113467142Y-64904952D01*
X113514761Y-64714476D01*
X113562380Y-64619238D01*
X113657619Y-64524000D01*
X113800476Y-64476380D01*
X113895714Y-64476380D01*
X114038571Y-64524000D01*
X114086190Y-64571619D01*
X114705238Y-64476380D02*
X114895714Y-64476380D01*
X114990952Y-64524000D01*
X115086190Y-64619238D01*
X115133809Y-64809714D01*
X115133809Y-65143047D01*
X115086190Y-65333523D01*
X114990952Y-65428761D01*
X114895714Y-65476380D01*
X114705238Y-65476380D01*
X114610000Y-65428761D01*
X114514761Y-65333523D01*
X114467142Y-65143047D01*
X114467142Y-64809714D01*
X114514761Y-64619238D01*
X114610000Y-64524000D01*
X114705238Y-64476380D01*
X115562380Y-65476380D02*
X115562380Y-64476380D01*
X116133809Y-65476380D01*
X116133809Y-64476380D01*
X116610000Y-65476380D02*
X116610000Y-64476380D01*
X117181428Y-65476380D01*
X117181428Y-64476380D01*
X117419523Y-65571619D02*
X118181428Y-65571619D01*
X118610000Y-64476380D02*
X118705238Y-64476380D01*
X118800476Y-64524000D01*
X118848095Y-64571619D01*
X118895714Y-64666857D01*
X118943333Y-64857333D01*
X118943333Y-65095428D01*
X118895714Y-65285904D01*
X118848095Y-65381142D01*
X118800476Y-65428761D01*
X118705238Y-65476380D01*
X118610000Y-65476380D01*
X118514761Y-65428761D01*
X118467142Y-65381142D01*
X118419523Y-65285904D01*
X118371904Y-65095428D01*
X118371904Y-64857333D01*
X118419523Y-64666857D01*
X118467142Y-64571619D01*
X118514761Y-64524000D01*
X118610000Y-64476380D01*
X119895714Y-65476380D02*
X119324285Y-65476380D01*
X119610000Y-65476380D02*
X119610000Y-64476380D01*
X119514761Y-64619238D01*
X119419523Y-64714476D01*
X119324285Y-64762095D01*
X120229047Y-64476380D02*
X120895714Y-65476380D01*
X120895714Y-64476380D02*
X120229047Y-65476380D01*
X121467142Y-64476380D02*
X121562380Y-64476380D01*
X121657619Y-64524000D01*
X121705238Y-64571619D01*
X121752857Y-64666857D01*
X121800476Y-64857333D01*
X121800476Y-65095428D01*
X121752857Y-65285904D01*
X121705238Y-65381142D01*
X121657619Y-65428761D01*
X121562380Y-65476380D01*
X121467142Y-65476380D01*
X121371904Y-65428761D01*
X121324285Y-65381142D01*
X121276666Y-65285904D01*
X121229047Y-65095428D01*
X121229047Y-64857333D01*
X121276666Y-64666857D01*
X121324285Y-64571619D01*
X121371904Y-64524000D01*
X121467142Y-64476380D01*
X122752857Y-65476380D02*
X122181428Y-65476380D01*
X122467142Y-65476380D02*
X122467142Y-64476380D01*
X122371904Y-64619238D01*
X122276666Y-64714476D01*
X122181428Y-64762095D01*
%TO.C,P7*%
X22646190Y-65381142D02*
X22598571Y-65428761D01*
X22455714Y-65476380D01*
X22360476Y-65476380D01*
X22217619Y-65428761D01*
X22122380Y-65333523D01*
X22074761Y-65238285D01*
X22027142Y-65047809D01*
X22027142Y-64904952D01*
X22074761Y-64714476D01*
X22122380Y-64619238D01*
X22217619Y-64524000D01*
X22360476Y-64476380D01*
X22455714Y-64476380D01*
X22598571Y-64524000D01*
X22646190Y-64571619D01*
X23265238Y-64476380D02*
X23455714Y-64476380D01*
X23550952Y-64524000D01*
X23646190Y-64619238D01*
X23693809Y-64809714D01*
X23693809Y-65143047D01*
X23646190Y-65333523D01*
X23550952Y-65428761D01*
X23455714Y-65476380D01*
X23265238Y-65476380D01*
X23170000Y-65428761D01*
X23074761Y-65333523D01*
X23027142Y-65143047D01*
X23027142Y-64809714D01*
X23074761Y-64619238D01*
X23170000Y-64524000D01*
X23265238Y-64476380D01*
X24122380Y-65476380D02*
X24122380Y-64476380D01*
X24693809Y-65476380D01*
X24693809Y-64476380D01*
X25170000Y-65476380D02*
X25170000Y-64476380D01*
X25741428Y-65476380D01*
X25741428Y-64476380D01*
X25979523Y-65571619D02*
X26741428Y-65571619D01*
X27170000Y-64476380D02*
X27265238Y-64476380D01*
X27360476Y-64524000D01*
X27408095Y-64571619D01*
X27455714Y-64666857D01*
X27503333Y-64857333D01*
X27503333Y-65095428D01*
X27455714Y-65285904D01*
X27408095Y-65381142D01*
X27360476Y-65428761D01*
X27265238Y-65476380D01*
X27170000Y-65476380D01*
X27074761Y-65428761D01*
X27027142Y-65381142D01*
X26979523Y-65285904D01*
X26931904Y-65095428D01*
X26931904Y-64857333D01*
X26979523Y-64666857D01*
X27027142Y-64571619D01*
X27074761Y-64524000D01*
X27170000Y-64476380D01*
X28455714Y-65476380D02*
X27884285Y-65476380D01*
X28170000Y-65476380D02*
X28170000Y-64476380D01*
X28074761Y-64619238D01*
X27979523Y-64714476D01*
X27884285Y-64762095D01*
X28789047Y-64476380D02*
X29455714Y-65476380D01*
X29455714Y-64476380D02*
X28789047Y-65476380D01*
X30027142Y-64476380D02*
X30122380Y-64476380D01*
X30217619Y-64524000D01*
X30265238Y-64571619D01*
X30312857Y-64666857D01*
X30360476Y-64857333D01*
X30360476Y-65095428D01*
X30312857Y-65285904D01*
X30265238Y-65381142D01*
X30217619Y-65428761D01*
X30122380Y-65476380D01*
X30027142Y-65476380D01*
X29931904Y-65428761D01*
X29884285Y-65381142D01*
X29836666Y-65285904D01*
X29789047Y-65095428D01*
X29789047Y-64857333D01*
X29836666Y-64666857D01*
X29884285Y-64571619D01*
X29931904Y-64524000D01*
X30027142Y-64476380D01*
X31312857Y-65476380D02*
X30741428Y-65476380D01*
X31027142Y-65476380D02*
X31027142Y-64476380D01*
X30931904Y-64619238D01*
X30836666Y-64714476D01*
X30741428Y-64762095D01*
%TD*%
M02*
