%TF.GenerationSoftware,KiCad,Pcbnew,(5.1.10)-1*%
%TF.CreationDate,2021-10-26T22:21:35+02:00*%
%TF.ProjectId,TMS9929_RGB_Adapter,544d5339-3932-4395-9f52-47425f416461,0*%
%TF.SameCoordinates,Original*%
%TF.FileFunction,Paste,Top*%
%TF.FilePolarity,Positive*%
%FSLAX46Y46*%
G04 Gerber Fmt 4.6, Leading zero omitted, Abs format (unit mm)*
G04 Created by KiCad (PCBNEW (5.1.10)-1) date 2021-10-26 22:21:35*
%MOMM*%
%LPD*%
G01*
G04 APERTURE LIST*
%ADD10R,2.200000X1.600000*%
%ADD11R,0.900000X0.800000*%
%ADD12R,1.300000X1.300000*%
%ADD13R,2.000000X1.300000*%
G04 APERTURE END LIST*
%TO.C,R5*%
G36*
G01*
X48300000Y-38424999D02*
X48300000Y-39325001D01*
G75*
G02*
X48050001Y-39575000I-249999J0D01*
G01*
X47349999Y-39575000D01*
G75*
G02*
X47100000Y-39325001I0J249999D01*
G01*
X47100000Y-38424999D01*
G75*
G02*
X47349999Y-38175000I249999J0D01*
G01*
X48050001Y-38175000D01*
G75*
G02*
X48300000Y-38424999I0J-249999D01*
G01*
G37*
G36*
G01*
X46300000Y-38424999D02*
X46300000Y-39325001D01*
G75*
G02*
X46050001Y-39575000I-249999J0D01*
G01*
X45349999Y-39575000D01*
G75*
G02*
X45100000Y-39325001I0J249999D01*
G01*
X45100000Y-38424999D01*
G75*
G02*
X45349999Y-38175000I249999J0D01*
G01*
X46050001Y-38175000D01*
G75*
G02*
X46300000Y-38424999I0J-249999D01*
G01*
G37*
%TD*%
%TO.C,R26*%
G36*
G01*
X100000000Y-57849999D02*
X100000000Y-58750001D01*
G75*
G02*
X99750001Y-59000000I-249999J0D01*
G01*
X99049999Y-59000000D01*
G75*
G02*
X98800000Y-58750001I0J249999D01*
G01*
X98800000Y-57849999D01*
G75*
G02*
X99049999Y-57600000I249999J0D01*
G01*
X99750001Y-57600000D01*
G75*
G02*
X100000000Y-57849999I0J-249999D01*
G01*
G37*
G36*
G01*
X102000000Y-57849999D02*
X102000000Y-58750001D01*
G75*
G02*
X101750001Y-59000000I-249999J0D01*
G01*
X101049999Y-59000000D01*
G75*
G02*
X100800000Y-58750001I0J249999D01*
G01*
X100800000Y-57849999D01*
G75*
G02*
X101049999Y-57600000I249999J0D01*
G01*
X101750001Y-57600000D01*
G75*
G02*
X102000000Y-57849999I0J-249999D01*
G01*
G37*
%TD*%
%TO.C,R25*%
G36*
G01*
X100000000Y-47283331D02*
X100000000Y-48183333D01*
G75*
G02*
X99750001Y-48433332I-249999J0D01*
G01*
X99049999Y-48433332D01*
G75*
G02*
X98800000Y-48183333I0J249999D01*
G01*
X98800000Y-47283331D01*
G75*
G02*
X99049999Y-47033332I249999J0D01*
G01*
X99750001Y-47033332D01*
G75*
G02*
X100000000Y-47283331I0J-249999D01*
G01*
G37*
G36*
G01*
X102000000Y-47283331D02*
X102000000Y-48183333D01*
G75*
G02*
X101750001Y-48433332I-249999J0D01*
G01*
X101049999Y-48433332D01*
G75*
G02*
X100800000Y-48183333I0J249999D01*
G01*
X100800000Y-47283331D01*
G75*
G02*
X101049999Y-47033332I249999J0D01*
G01*
X101750001Y-47033332D01*
G75*
G02*
X102000000Y-47283331I0J-249999D01*
G01*
G37*
%TD*%
%TO.C,R24*%
G36*
G01*
X100800000Y-37616667D02*
X100800000Y-36716665D01*
G75*
G02*
X101049999Y-36466666I249999J0D01*
G01*
X101750001Y-36466666D01*
G75*
G02*
X102000000Y-36716665I0J-249999D01*
G01*
X102000000Y-37616667D01*
G75*
G02*
X101750001Y-37866666I-249999J0D01*
G01*
X101049999Y-37866666D01*
G75*
G02*
X100800000Y-37616667I0J249999D01*
G01*
G37*
G36*
G01*
X98800000Y-37616667D02*
X98800000Y-36716665D01*
G75*
G02*
X99049999Y-36466666I249999J0D01*
G01*
X99750001Y-36466666D01*
G75*
G02*
X100000000Y-36716665I0J-249999D01*
G01*
X100000000Y-37616667D01*
G75*
G02*
X99750001Y-37866666I-249999J0D01*
G01*
X99049999Y-37866666D01*
G75*
G02*
X98800000Y-37616667I0J249999D01*
G01*
G37*
%TD*%
%TO.C,R23*%
G36*
G01*
X100800000Y-27050001D02*
X100800000Y-26149999D01*
G75*
G02*
X101049999Y-25900000I249999J0D01*
G01*
X101750001Y-25900000D01*
G75*
G02*
X102000000Y-26149999I0J-249999D01*
G01*
X102000000Y-27050001D01*
G75*
G02*
X101750001Y-27300000I-249999J0D01*
G01*
X101049999Y-27300000D01*
G75*
G02*
X100800000Y-27050001I0J249999D01*
G01*
G37*
G36*
G01*
X98800000Y-27050001D02*
X98800000Y-26149999D01*
G75*
G02*
X99049999Y-25900000I249999J0D01*
G01*
X99750001Y-25900000D01*
G75*
G02*
X100000000Y-26149999I0J-249999D01*
G01*
X100000000Y-27050001D01*
G75*
G02*
X99750001Y-27300000I-249999J0D01*
G01*
X99049999Y-27300000D01*
G75*
G02*
X98800000Y-27050001I0J249999D01*
G01*
G37*
%TD*%
D10*
%TO.C,C4*%
X73400000Y-26300000D03*
X70400000Y-26300000D03*
%TD*%
%TO.C,C3*%
X56000000Y-26000000D03*
X53000000Y-26000000D03*
%TD*%
%TO.C,C2*%
X73400000Y-58300000D03*
X70400000Y-58300000D03*
%TD*%
%TO.C,C1*%
X41050000Y-26150000D03*
X38050000Y-26150000D03*
%TD*%
D11*
%TO.C,Q2*%
X93400000Y-41750000D03*
X93400000Y-39850000D03*
X91400000Y-40800000D03*
%TD*%
%TO.C,Q3*%
X93400000Y-49200000D03*
X93400000Y-47300000D03*
X91400000Y-48250000D03*
%TD*%
%TO.C,Q4*%
X93400000Y-57000000D03*
X93400000Y-55100000D03*
X91400000Y-56050000D03*
%TD*%
%TO.C,Q1*%
X93400000Y-33500000D03*
X93400000Y-31600000D03*
X91400000Y-32550000D03*
%TD*%
%TO.C,Q9*%
X39800000Y-46400000D03*
X39800000Y-44500000D03*
X37800000Y-45450000D03*
%TD*%
%TO.C,R2*%
G36*
G01*
X47100000Y-52250001D02*
X47100000Y-51349999D01*
G75*
G02*
X47349999Y-51100000I249999J0D01*
G01*
X48050001Y-51100000D01*
G75*
G02*
X48300000Y-51349999I0J-249999D01*
G01*
X48300000Y-52250001D01*
G75*
G02*
X48050001Y-52500000I-249999J0D01*
G01*
X47349999Y-52500000D01*
G75*
G02*
X47100000Y-52250001I0J249999D01*
G01*
G37*
G36*
G01*
X45100000Y-52250001D02*
X45100000Y-51349999D01*
G75*
G02*
X45349999Y-51100000I249999J0D01*
G01*
X46050001Y-51100000D01*
G75*
G02*
X46300000Y-51349999I0J-249999D01*
G01*
X46300000Y-52250001D01*
G75*
G02*
X46050001Y-52500000I-249999J0D01*
G01*
X45349999Y-52500000D01*
G75*
G02*
X45100000Y-52250001I0J249999D01*
G01*
G37*
%TD*%
D12*
%TO.C,RV1 - Green*%
X79700000Y-34370000D03*
D13*
X85200000Y-33220000D03*
D12*
X79700000Y-32070000D03*
%TD*%
%TO.C,R16*%
G36*
G01*
X102000000Y-31433332D02*
X102000000Y-32333334D01*
G75*
G02*
X101750001Y-32583333I-249999J0D01*
G01*
X101049999Y-32583333D01*
G75*
G02*
X100800000Y-32333334I0J249999D01*
G01*
X100800000Y-31433332D01*
G75*
G02*
X101049999Y-31183333I249999J0D01*
G01*
X101750001Y-31183333D01*
G75*
G02*
X102000000Y-31433332I0J-249999D01*
G01*
G37*
G36*
G01*
X100000000Y-31433332D02*
X100000000Y-32333334D01*
G75*
G02*
X99750001Y-32583333I-249999J0D01*
G01*
X99049999Y-32583333D01*
G75*
G02*
X98800000Y-32333334I0J249999D01*
G01*
X98800000Y-31433332D01*
G75*
G02*
X99049999Y-31183333I249999J0D01*
G01*
X99750001Y-31183333D01*
G75*
G02*
X100000000Y-31433332I0J-249999D01*
G01*
G37*
%TD*%
%TO.C,R6*%
G36*
G01*
X56100000Y-38449999D02*
X56100000Y-39350001D01*
G75*
G02*
X55850001Y-39600000I-249999J0D01*
G01*
X55149999Y-39600000D01*
G75*
G02*
X54900000Y-39350001I0J249999D01*
G01*
X54900000Y-38449999D01*
G75*
G02*
X55149999Y-38200000I249999J0D01*
G01*
X55850001Y-38200000D01*
G75*
G02*
X56100000Y-38449999I0J-249999D01*
G01*
G37*
G36*
G01*
X54100000Y-38449999D02*
X54100000Y-39350001D01*
G75*
G02*
X53850001Y-39600000I-249999J0D01*
G01*
X53149999Y-39600000D01*
G75*
G02*
X52900000Y-39350001I0J249999D01*
G01*
X52900000Y-38449999D01*
G75*
G02*
X53149999Y-38200000I249999J0D01*
G01*
X53850001Y-38200000D01*
G75*
G02*
X54100000Y-38449999I0J-249999D01*
G01*
G37*
%TD*%
D11*
%TO.C,Q10*%
X39800000Y-53400000D03*
X39800000Y-51500000D03*
X37800000Y-52450000D03*
%TD*%
%TO.C,Q8*%
X39800000Y-39400000D03*
X39800000Y-37500000D03*
X37800000Y-38450000D03*
%TD*%
%TO.C,R10*%
G36*
G01*
X61500000Y-45800001D02*
X61500000Y-44899999D01*
G75*
G02*
X61749999Y-44650000I249999J0D01*
G01*
X62450001Y-44650000D01*
G75*
G02*
X62700000Y-44899999I0J-249999D01*
G01*
X62700000Y-45800001D01*
G75*
G02*
X62450001Y-46050000I-249999J0D01*
G01*
X61749999Y-46050000D01*
G75*
G02*
X61500000Y-45800001I0J249999D01*
G01*
G37*
G36*
G01*
X63500000Y-45800001D02*
X63500000Y-44899999D01*
G75*
G02*
X63749999Y-44650000I249999J0D01*
G01*
X64450001Y-44650000D01*
G75*
G02*
X64700000Y-44899999I0J-249999D01*
G01*
X64700000Y-45800001D01*
G75*
G02*
X64450001Y-46050000I-249999J0D01*
G01*
X63749999Y-46050000D01*
G75*
G02*
X63500000Y-45800001I0J249999D01*
G01*
G37*
%TD*%
%TO.C,R4*%
G36*
G01*
X64700000Y-31849999D02*
X64700000Y-32750001D01*
G75*
G02*
X64450001Y-33000000I-249999J0D01*
G01*
X63749999Y-33000000D01*
G75*
G02*
X63500000Y-32750001I0J249999D01*
G01*
X63500000Y-31849999D01*
G75*
G02*
X63749999Y-31600000I249999J0D01*
G01*
X64450001Y-31600000D01*
G75*
G02*
X64700000Y-31849999I0J-249999D01*
G01*
G37*
G36*
G01*
X62700000Y-31849999D02*
X62700000Y-32750001D01*
G75*
G02*
X62450001Y-33000000I-249999J0D01*
G01*
X61749999Y-33000000D01*
G75*
G02*
X61500000Y-32750001I0J249999D01*
G01*
X61500000Y-31849999D01*
G75*
G02*
X61749999Y-31600000I249999J0D01*
G01*
X62450001Y-31600000D01*
G75*
G02*
X62700000Y-31849999I0J-249999D01*
G01*
G37*
%TD*%
%TO.C,Q7*%
X64100000Y-59350000D03*
X64100000Y-57450000D03*
X62100000Y-58400000D03*
%TD*%
%TO.C,R1*%
G36*
G01*
X37200000Y-32950001D02*
X37200000Y-32049999D01*
G75*
G02*
X37449999Y-31800000I249999J0D01*
G01*
X38150001Y-31800000D01*
G75*
G02*
X38400000Y-32049999I0J-249999D01*
G01*
X38400000Y-32950001D01*
G75*
G02*
X38150001Y-33200000I-249999J0D01*
G01*
X37449999Y-33200000D01*
G75*
G02*
X37200000Y-32950001I0J249999D01*
G01*
G37*
G36*
G01*
X39200000Y-32950001D02*
X39200000Y-32049999D01*
G75*
G02*
X39449999Y-31800000I249999J0D01*
G01*
X40150001Y-31800000D01*
G75*
G02*
X40400000Y-32049999I0J-249999D01*
G01*
X40400000Y-32950001D01*
G75*
G02*
X40150001Y-33200000I-249999J0D01*
G01*
X39449999Y-33200000D01*
G75*
G02*
X39200000Y-32950001I0J249999D01*
G01*
G37*
%TD*%
%TO.C,R20*%
G36*
G01*
X56100000Y-31949999D02*
X56100000Y-32850001D01*
G75*
G02*
X55850001Y-33100000I-249999J0D01*
G01*
X55149999Y-33100000D01*
G75*
G02*
X54900000Y-32850001I0J249999D01*
G01*
X54900000Y-31949999D01*
G75*
G02*
X55149999Y-31700000I249999J0D01*
G01*
X55850001Y-31700000D01*
G75*
G02*
X56100000Y-31949999I0J-249999D01*
G01*
G37*
G36*
G01*
X54100000Y-31949999D02*
X54100000Y-32850001D01*
G75*
G02*
X53850001Y-33100000I-249999J0D01*
G01*
X53149999Y-33100000D01*
G75*
G02*
X52900000Y-32850001I0J249999D01*
G01*
X52900000Y-31949999D01*
G75*
G02*
X53149999Y-31700000I249999J0D01*
G01*
X53850001Y-31700000D01*
G75*
G02*
X54100000Y-31949999I0J-249999D01*
G01*
G37*
%TD*%
%TO.C,Q6*%
X70400000Y-44050000D03*
X70400000Y-45950000D03*
X72400000Y-45000000D03*
%TD*%
%TO.C,Q5*%
X64100000Y-39350000D03*
X64100000Y-37450000D03*
X62100000Y-38400000D03*
%TD*%
%TO.C,R3*%
G36*
G01*
X48300000Y-31949999D02*
X48300000Y-32850001D01*
G75*
G02*
X48050001Y-33100000I-249999J0D01*
G01*
X47349999Y-33100000D01*
G75*
G02*
X47100000Y-32850001I0J249999D01*
G01*
X47100000Y-31949999D01*
G75*
G02*
X47349999Y-31700000I249999J0D01*
G01*
X48050001Y-31700000D01*
G75*
G02*
X48300000Y-31949999I0J-249999D01*
G01*
G37*
G36*
G01*
X46300000Y-31949999D02*
X46300000Y-32850001D01*
G75*
G02*
X46050001Y-33100000I-249999J0D01*
G01*
X45349999Y-33100000D01*
G75*
G02*
X45100000Y-32850001I0J249999D01*
G01*
X45100000Y-31949999D01*
G75*
G02*
X45349999Y-31700000I249999J0D01*
G01*
X46050001Y-31700000D01*
G75*
G02*
X46300000Y-31949999I0J-249999D01*
G01*
G37*
%TD*%
%TO.C,R7*%
G36*
G01*
X48300000Y-44899999D02*
X48300000Y-45800001D01*
G75*
G02*
X48050001Y-46050000I-249999J0D01*
G01*
X47349999Y-46050000D01*
G75*
G02*
X47100000Y-45800001I0J249999D01*
G01*
X47100000Y-44899999D01*
G75*
G02*
X47349999Y-44650000I249999J0D01*
G01*
X48050001Y-44650000D01*
G75*
G02*
X48300000Y-44899999I0J-249999D01*
G01*
G37*
G36*
G01*
X46300000Y-44899999D02*
X46300000Y-45800001D01*
G75*
G02*
X46050001Y-46050000I-249999J0D01*
G01*
X45349999Y-46050000D01*
G75*
G02*
X45100000Y-45800001I0J249999D01*
G01*
X45100000Y-44899999D01*
G75*
G02*
X45349999Y-44650000I249999J0D01*
G01*
X46050001Y-44650000D01*
G75*
G02*
X46300000Y-44899999I0J-249999D01*
G01*
G37*
%TD*%
%TO.C,R22*%
G36*
G01*
X61500000Y-52250001D02*
X61500000Y-51349999D01*
G75*
G02*
X61749999Y-51100000I249999J0D01*
G01*
X62450001Y-51100000D01*
G75*
G02*
X62700000Y-51349999I0J-249999D01*
G01*
X62700000Y-52250001D01*
G75*
G02*
X62450001Y-52500000I-249999J0D01*
G01*
X61749999Y-52500000D01*
G75*
G02*
X61500000Y-52250001I0J249999D01*
G01*
G37*
G36*
G01*
X63500000Y-52250001D02*
X63500000Y-51349999D01*
G75*
G02*
X63749999Y-51100000I249999J0D01*
G01*
X64450001Y-51100000D01*
G75*
G02*
X64700000Y-51349999I0J-249999D01*
G01*
X64700000Y-52250001D01*
G75*
G02*
X64450001Y-52500000I-249999J0D01*
G01*
X63749999Y-52500000D01*
G75*
G02*
X63500000Y-52250001I0J249999D01*
G01*
G37*
%TD*%
%TO.C,R13*%
G36*
G01*
X56100000Y-57849999D02*
X56100000Y-58750001D01*
G75*
G02*
X55850001Y-59000000I-249999J0D01*
G01*
X55149999Y-59000000D01*
G75*
G02*
X54900000Y-58750001I0J249999D01*
G01*
X54900000Y-57849999D01*
G75*
G02*
X55149999Y-57600000I249999J0D01*
G01*
X55850001Y-57600000D01*
G75*
G02*
X56100000Y-57849999I0J-249999D01*
G01*
G37*
G36*
G01*
X54100000Y-57849999D02*
X54100000Y-58750001D01*
G75*
G02*
X53850001Y-59000000I-249999J0D01*
G01*
X53149999Y-59000000D01*
G75*
G02*
X52900000Y-58750001I0J249999D01*
G01*
X52900000Y-57849999D01*
G75*
G02*
X53149999Y-57600000I249999J0D01*
G01*
X53850001Y-57600000D01*
G75*
G02*
X54100000Y-57849999I0J-249999D01*
G01*
G37*
%TD*%
%TO.C,R11*%
G36*
G01*
X56100000Y-44899999D02*
X56100000Y-45800001D01*
G75*
G02*
X55850001Y-46050000I-249999J0D01*
G01*
X55149999Y-46050000D01*
G75*
G02*
X54900000Y-45800001I0J249999D01*
G01*
X54900000Y-44899999D01*
G75*
G02*
X55149999Y-44650000I249999J0D01*
G01*
X55850001Y-44650000D01*
G75*
G02*
X56100000Y-44899999I0J-249999D01*
G01*
G37*
G36*
G01*
X54100000Y-44899999D02*
X54100000Y-45800001D01*
G75*
G02*
X53850001Y-46050000I-249999J0D01*
G01*
X53149999Y-46050000D01*
G75*
G02*
X52900000Y-45800001I0J249999D01*
G01*
X52900000Y-44899999D01*
G75*
G02*
X53149999Y-44650000I249999J0D01*
G01*
X53850001Y-44650000D01*
G75*
G02*
X54100000Y-44899999I0J-249999D01*
G01*
G37*
%TD*%
%TO.C,R18*%
G36*
G01*
X69800000Y-39350001D02*
X69800000Y-38449999D01*
G75*
G02*
X70049999Y-38200000I249999J0D01*
G01*
X70750001Y-38200000D01*
G75*
G02*
X71000000Y-38449999I0J-249999D01*
G01*
X71000000Y-39350001D01*
G75*
G02*
X70750001Y-39600000I-249999J0D01*
G01*
X70049999Y-39600000D01*
G75*
G02*
X69800000Y-39350001I0J249999D01*
G01*
G37*
G36*
G01*
X71800000Y-39350001D02*
X71800000Y-38449999D01*
G75*
G02*
X72049999Y-38200000I249999J0D01*
G01*
X72750001Y-38200000D01*
G75*
G02*
X73000000Y-38449999I0J-249999D01*
G01*
X73000000Y-39350001D01*
G75*
G02*
X72750001Y-39600000I-249999J0D01*
G01*
X72049999Y-39600000D01*
G75*
G02*
X71800000Y-39350001I0J249999D01*
G01*
G37*
%TD*%
%TO.C,R8*%
G36*
G01*
X56100000Y-51349999D02*
X56100000Y-52250001D01*
G75*
G02*
X55850001Y-52500000I-249999J0D01*
G01*
X55149999Y-52500000D01*
G75*
G02*
X54900000Y-52250001I0J249999D01*
G01*
X54900000Y-51349999D01*
G75*
G02*
X55149999Y-51100000I249999J0D01*
G01*
X55850001Y-51100000D01*
G75*
G02*
X56100000Y-51349999I0J-249999D01*
G01*
G37*
G36*
G01*
X54100000Y-51349999D02*
X54100000Y-52250001D01*
G75*
G02*
X53850001Y-52500000I-249999J0D01*
G01*
X53149999Y-52500000D01*
G75*
G02*
X52900000Y-52250001I0J249999D01*
G01*
X52900000Y-51349999D01*
G75*
G02*
X53149999Y-51100000I249999J0D01*
G01*
X53850001Y-51100000D01*
G75*
G02*
X54100000Y-51349999I0J-249999D01*
G01*
G37*
%TD*%
%TO.C,R19*%
G36*
G01*
X37200000Y-58750001D02*
X37200000Y-57849999D01*
G75*
G02*
X37449999Y-57600000I249999J0D01*
G01*
X38150001Y-57600000D01*
G75*
G02*
X38400000Y-57849999I0J-249999D01*
G01*
X38400000Y-58750001D01*
G75*
G02*
X38150001Y-59000000I-249999J0D01*
G01*
X37449999Y-59000000D01*
G75*
G02*
X37200000Y-58750001I0J249999D01*
G01*
G37*
G36*
G01*
X39200000Y-58750001D02*
X39200000Y-57849999D01*
G75*
G02*
X39449999Y-57600000I249999J0D01*
G01*
X40150001Y-57600000D01*
G75*
G02*
X40400000Y-57849999I0J-249999D01*
G01*
X40400000Y-58750001D01*
G75*
G02*
X40150001Y-59000000I-249999J0D01*
G01*
X39449999Y-59000000D01*
G75*
G02*
X39200000Y-58750001I0J249999D01*
G01*
G37*
%TD*%
%TO.C,R9*%
G36*
G01*
X48300000Y-57849999D02*
X48300000Y-58750001D01*
G75*
G02*
X48050001Y-59000000I-249999J0D01*
G01*
X47349999Y-59000000D01*
G75*
G02*
X47100000Y-58750001I0J249999D01*
G01*
X47100000Y-57849999D01*
G75*
G02*
X47349999Y-57600000I249999J0D01*
G01*
X48050001Y-57600000D01*
G75*
G02*
X48300000Y-57849999I0J-249999D01*
G01*
G37*
G36*
G01*
X46300000Y-57849999D02*
X46300000Y-58750001D01*
G75*
G02*
X46050001Y-59000000I-249999J0D01*
G01*
X45349999Y-59000000D01*
G75*
G02*
X45100000Y-58750001I0J249999D01*
G01*
X45100000Y-57849999D01*
G75*
G02*
X45349999Y-57600000I249999J0D01*
G01*
X46050001Y-57600000D01*
G75*
G02*
X46300000Y-57849999I0J-249999D01*
G01*
G37*
%TD*%
%TO.C,R14*%
G36*
G01*
X102000000Y-52566664D02*
X102000000Y-53466666D01*
G75*
G02*
X101750001Y-53716665I-249999J0D01*
G01*
X101049999Y-53716665D01*
G75*
G02*
X100800000Y-53466666I0J249999D01*
G01*
X100800000Y-52566664D01*
G75*
G02*
X101049999Y-52316665I249999J0D01*
G01*
X101750001Y-52316665D01*
G75*
G02*
X102000000Y-52566664I0J-249999D01*
G01*
G37*
G36*
G01*
X100000000Y-52566664D02*
X100000000Y-53466666D01*
G75*
G02*
X99750001Y-53716665I-249999J0D01*
G01*
X99049999Y-53716665D01*
G75*
G02*
X98800000Y-53466666I0J249999D01*
G01*
X98800000Y-52566664D01*
G75*
G02*
X99049999Y-52316665I249999J0D01*
G01*
X99750001Y-52316665D01*
G75*
G02*
X100000000Y-52566664I0J-249999D01*
G01*
G37*
%TD*%
%TO.C,R15*%
G36*
G01*
X102000000Y-41999998D02*
X102000000Y-42900000D01*
G75*
G02*
X101750001Y-43149999I-249999J0D01*
G01*
X101049999Y-43149999D01*
G75*
G02*
X100800000Y-42900000I0J249999D01*
G01*
X100800000Y-41999998D01*
G75*
G02*
X101049999Y-41749999I249999J0D01*
G01*
X101750001Y-41749999D01*
G75*
G02*
X102000000Y-41999998I0J-249999D01*
G01*
G37*
G36*
G01*
X100000000Y-41999998D02*
X100000000Y-42900000D01*
G75*
G02*
X99750001Y-43149999I-249999J0D01*
G01*
X99049999Y-43149999D01*
G75*
G02*
X98800000Y-42900000I0J249999D01*
G01*
X98800000Y-41999998D01*
G75*
G02*
X99049999Y-41749999I249999J0D01*
G01*
X99750001Y-41749999D01*
G75*
G02*
X100000000Y-41999998I0J-249999D01*
G01*
G37*
%TD*%
%TO.C,R12*%
G36*
G01*
X73000000Y-51349999D02*
X73000000Y-52250001D01*
G75*
G02*
X72750001Y-52500000I-249999J0D01*
G01*
X72049999Y-52500000D01*
G75*
G02*
X71800000Y-52250001I0J249999D01*
G01*
X71800000Y-51349999D01*
G75*
G02*
X72049999Y-51100000I249999J0D01*
G01*
X72750001Y-51100000D01*
G75*
G02*
X73000000Y-51349999I0J-249999D01*
G01*
G37*
G36*
G01*
X71000000Y-51349999D02*
X71000000Y-52250001D01*
G75*
G02*
X70750001Y-52500000I-249999J0D01*
G01*
X70049999Y-52500000D01*
G75*
G02*
X69800000Y-52250001I0J249999D01*
G01*
X69800000Y-51349999D01*
G75*
G02*
X70049999Y-51100000I249999J0D01*
G01*
X70750001Y-51100000D01*
G75*
G02*
X71000000Y-51349999I0J-249999D01*
G01*
G37*
%TD*%
%TO.C,R21*%
G36*
G01*
X73000000Y-31849999D02*
X73000000Y-32750001D01*
G75*
G02*
X72750001Y-33000000I-249999J0D01*
G01*
X72049999Y-33000000D01*
G75*
G02*
X71800000Y-32750001I0J249999D01*
G01*
X71800000Y-31849999D01*
G75*
G02*
X72049999Y-31600000I249999J0D01*
G01*
X72750001Y-31600000D01*
G75*
G02*
X73000000Y-31849999I0J-249999D01*
G01*
G37*
G36*
G01*
X71000000Y-31849999D02*
X71000000Y-32750001D01*
G75*
G02*
X70750001Y-33000000I-249999J0D01*
G01*
X70049999Y-33000000D01*
G75*
G02*
X69800000Y-32750001I0J249999D01*
G01*
X69800000Y-31849999D01*
G75*
G02*
X70049999Y-31600000I249999J0D01*
G01*
X70750001Y-31600000D01*
G75*
G02*
X71000000Y-31849999I0J-249999D01*
G01*
G37*
%TD*%
D12*
%TO.C,RV3 - Blue*%
X79700000Y-56000000D03*
D13*
X85200000Y-54850000D03*
D12*
X79700000Y-53700000D03*
%TD*%
%TO.C,RV2 - Red*%
X79700000Y-45185000D03*
D13*
X85200000Y-44035000D03*
D12*
X79700000Y-42885000D03*
%TD*%
M02*
