%TF.GenerationSoftware,KiCad,Pcbnew,(5.1.10)-1*%
%TF.CreationDate,2021-10-26T22:21:35+02:00*%
%TF.ProjectId,TMS9929_RGB_Adapter,544d5339-3932-4395-9f52-47425f416461,0*%
%TF.SameCoordinates,Original*%
%TF.FileFunction,Legend,Top*%
%TF.FilePolarity,Positive*%
%FSLAX46Y46*%
G04 Gerber Fmt 4.6, Leading zero omitted, Abs format (unit mm)*
G04 Created by KiCad (PCBNEW (5.1.10)-1) date 2021-10-26 22:21:35*
%MOMM*%
%LPD*%
G01*
G04 APERTURE LIST*
%ADD10C,0.300000*%
%ADD11C,0.120000*%
%ADD12C,0.150000*%
G04 APERTURE END LIST*
D10*
X26514285Y-51278571D02*
X25800000Y-51278571D01*
X25728571Y-51992857D01*
X25800000Y-51921428D01*
X25942857Y-51850000D01*
X26300000Y-51850000D01*
X26442857Y-51921428D01*
X26514285Y-51992857D01*
X26585714Y-52135714D01*
X26585714Y-52492857D01*
X26514285Y-52635714D01*
X26442857Y-52707142D01*
X26300000Y-52778571D01*
X25942857Y-52778571D01*
X25800000Y-52707142D01*
X25728571Y-52635714D01*
X27014285Y-51278571D02*
X27514285Y-52778571D01*
X28014285Y-51278571D01*
X111914285Y-51178571D02*
X111200000Y-51178571D01*
X111128571Y-51892857D01*
X111200000Y-51821428D01*
X111342857Y-51750000D01*
X111700000Y-51750000D01*
X111842857Y-51821428D01*
X111914285Y-51892857D01*
X111985714Y-52035714D01*
X111985714Y-52392857D01*
X111914285Y-52535714D01*
X111842857Y-52607142D01*
X111700000Y-52678571D01*
X111342857Y-52678571D01*
X111200000Y-52607142D01*
X111128571Y-52535714D01*
X112414285Y-51178571D02*
X112914285Y-52678571D01*
X113414285Y-51178571D01*
X111971428Y-44753569D02*
X111471428Y-44039283D01*
X111114285Y-44753569D02*
X111114285Y-43253569D01*
X111685714Y-43253569D01*
X111828571Y-43324998D01*
X111900000Y-43396426D01*
X111971428Y-43539283D01*
X111971428Y-43753569D01*
X111900000Y-43896426D01*
X111828571Y-43967855D01*
X111685714Y-44039283D01*
X111114285Y-44039283D01*
X111042856Y-39398808D02*
X111257142Y-39470237D01*
X111614285Y-39470237D01*
X111757142Y-39398808D01*
X111828570Y-39327380D01*
X111899999Y-39184523D01*
X111899999Y-39041666D01*
X111828570Y-38898808D01*
X111757142Y-38827380D01*
X111614285Y-38755951D01*
X111328570Y-38684523D01*
X111185713Y-38613094D01*
X111114285Y-38541666D01*
X111042856Y-38398808D01*
X111042856Y-38255951D01*
X111114285Y-38113094D01*
X111185713Y-38041666D01*
X111328570Y-37970237D01*
X111685713Y-37970237D01*
X111899999Y-38041666D01*
X111042857Y-36400000D02*
X111757142Y-36400000D01*
X110900000Y-36828571D02*
X111400000Y-35328571D01*
X111900000Y-36828571D01*
X111900000Y-40683332D02*
X111757143Y-40611903D01*
X111542857Y-40611903D01*
X111328571Y-40683332D01*
X111185714Y-40826189D01*
X111114285Y-40969046D01*
X111042857Y-41254760D01*
X111042857Y-41469046D01*
X111114285Y-41754760D01*
X111185714Y-41897617D01*
X111328571Y-42040474D01*
X111542857Y-42111903D01*
X111685714Y-42111903D01*
X111900000Y-42040474D01*
X111971428Y-41969046D01*
X111971428Y-41469046D01*
X111685714Y-41469046D01*
X111900000Y-48608330D02*
X111757143Y-48536901D01*
X111542857Y-48536901D01*
X111328571Y-48608330D01*
X111185714Y-48751187D01*
X111114286Y-48894044D01*
X111042857Y-49179758D01*
X111042857Y-49394044D01*
X111114286Y-49679758D01*
X111185714Y-49822615D01*
X111328571Y-49965472D01*
X111542857Y-50036901D01*
X111685714Y-50036901D01*
X111900000Y-49965472D01*
X111971428Y-49894044D01*
X111971428Y-49394044D01*
X111685714Y-49394044D01*
X112614286Y-49036901D02*
X112614286Y-50036901D01*
X112614286Y-49179758D02*
X112685714Y-49108330D01*
X112828571Y-49036901D01*
X113042857Y-49036901D01*
X113185714Y-49108330D01*
X113257143Y-49251187D01*
X113257143Y-50036901D01*
X114614286Y-50036901D02*
X114614286Y-48536901D01*
X114614286Y-49965472D02*
X114471428Y-50036901D01*
X114185714Y-50036901D01*
X114042857Y-49965472D01*
X113971428Y-49894044D01*
X113900000Y-49751187D01*
X113900000Y-49322615D01*
X113971428Y-49179758D01*
X114042857Y-49108330D01*
X114185714Y-49036901D01*
X114471428Y-49036901D01*
X114614286Y-49108330D01*
X111614285Y-46609521D02*
X111828571Y-46680949D01*
X111900000Y-46752378D01*
X111971428Y-46895235D01*
X111971428Y-47109521D01*
X111900000Y-47252378D01*
X111828571Y-47323806D01*
X111685714Y-47395235D01*
X111114285Y-47395235D01*
X111114285Y-45895235D01*
X111614285Y-45895235D01*
X111757143Y-45966664D01*
X111828571Y-46038092D01*
X111900000Y-46180949D01*
X111900000Y-46323806D01*
X111828571Y-46466664D01*
X111757143Y-46538092D01*
X111614285Y-46609521D01*
X111114285Y-46609521D01*
X26071428Y-47661903D02*
X26071428Y-46161903D01*
X26642856Y-46161903D01*
X26785713Y-46233332D01*
X26857142Y-46304760D01*
X26928571Y-46447617D01*
X26928571Y-46661903D01*
X26857142Y-46804760D01*
X26785713Y-46876189D01*
X26642856Y-46947617D01*
X26071428Y-46947617D01*
X27571428Y-47661903D02*
X27571428Y-46661903D01*
X27571428Y-46947617D02*
X27642856Y-46804760D01*
X27714285Y-46733332D01*
X27857142Y-46661903D01*
X27999999Y-46661903D01*
X25642856Y-50220236D02*
X25642856Y-48720236D01*
X26214285Y-48720236D01*
X26357142Y-48791665D01*
X26428570Y-48863093D01*
X26499999Y-49005950D01*
X26499999Y-49220236D01*
X26428570Y-49363093D01*
X26357142Y-49434522D01*
X26214285Y-49505950D01*
X25642856Y-49505950D01*
X27142856Y-50220236D02*
X27142856Y-48720236D01*
X27142856Y-49291665D02*
X27285713Y-49220236D01*
X27571427Y-49220236D01*
X27714285Y-49291665D01*
X27785713Y-49363093D01*
X27857142Y-49505950D01*
X27857142Y-49934522D01*
X27785713Y-50077379D01*
X27714285Y-50148807D01*
X27571427Y-50220236D01*
X27285713Y-50220236D01*
X27142856Y-50148807D01*
X27500000Y-44389284D02*
X27500000Y-45103570D01*
X27000000Y-43603570D02*
X27500000Y-44389284D01*
X28000000Y-43603570D01*
X25071428Y-41116666D02*
X24928571Y-41045237D01*
X24714285Y-41045237D01*
X24499999Y-41116666D01*
X24357142Y-41259523D01*
X24285714Y-41402380D01*
X24214285Y-41688094D01*
X24214285Y-41902380D01*
X24285714Y-42188094D01*
X24357142Y-42330951D01*
X24499999Y-42473808D01*
X24714285Y-42545237D01*
X24857142Y-42545237D01*
X25071428Y-42473808D01*
X25142856Y-42402380D01*
X25142856Y-41902380D01*
X24857142Y-41902380D01*
X25785714Y-41545237D02*
X25785714Y-42545237D01*
X25785714Y-41688094D02*
X25857142Y-41616666D01*
X25999999Y-41545237D01*
X26214285Y-41545237D01*
X26357142Y-41616666D01*
X26428571Y-41759523D01*
X26428571Y-42545237D01*
X27785714Y-42545237D02*
X27785714Y-41045237D01*
X27785714Y-42473808D02*
X27642856Y-42545237D01*
X27357142Y-42545237D01*
X27214285Y-42473808D01*
X27142856Y-42402380D01*
X27071428Y-42259523D01*
X27071428Y-41830951D01*
X27142856Y-41688094D01*
X27214285Y-41616666D01*
X27357142Y-41545237D01*
X27642856Y-41545237D01*
X27785714Y-41616666D01*
X27142857Y-37000000D02*
X27857142Y-37000000D01*
X27000000Y-37428571D02*
X27500000Y-35928571D01*
X28000000Y-37428571D01*
X25142856Y-39986904D02*
X24285713Y-39986904D01*
X24714285Y-39986904D02*
X24714285Y-38486904D01*
X24571428Y-38701190D01*
X24428570Y-38844047D01*
X24285713Y-38915475D01*
X25714285Y-38629761D02*
X25785713Y-38558333D01*
X25928570Y-38486904D01*
X26285713Y-38486904D01*
X26428570Y-38558333D01*
X26499999Y-38629761D01*
X26571428Y-38772618D01*
X26571428Y-38915475D01*
X26499999Y-39129761D01*
X25642856Y-39986904D01*
X26571428Y-39986904D01*
X26999999Y-38486904D02*
X27499999Y-39986904D01*
X27999999Y-38486904D01*
X117403571Y-55892857D02*
X115903571Y-55892857D01*
X116975000Y-55392857D01*
X115903571Y-54892857D01*
X117403571Y-54892857D01*
X117332142Y-54250000D02*
X117403571Y-54035714D01*
X117403571Y-53678571D01*
X117332142Y-53535714D01*
X117260714Y-53464285D01*
X117117857Y-53392857D01*
X116975000Y-53392857D01*
X116832142Y-53464285D01*
X116760714Y-53535714D01*
X116689285Y-53678571D01*
X116617857Y-53964285D01*
X116546428Y-54107142D01*
X116475000Y-54178571D01*
X116332142Y-54250000D01*
X116189285Y-54250000D01*
X116046428Y-54178571D01*
X115975000Y-54107142D01*
X115903571Y-53964285D01*
X115903571Y-53607142D01*
X115975000Y-53392857D01*
X115903571Y-52892857D02*
X117403571Y-51892857D01*
X115903571Y-51892857D02*
X117403571Y-52892857D01*
X117403571Y-49321428D02*
X116689285Y-49821428D01*
X117403571Y-50178571D02*
X115903571Y-50178571D01*
X115903571Y-49607142D01*
X115975000Y-49464285D01*
X116046428Y-49392857D01*
X116189285Y-49321428D01*
X116403571Y-49321428D01*
X116546428Y-49392857D01*
X116617857Y-49464285D01*
X116689285Y-49607142D01*
X116689285Y-50178571D01*
X115975000Y-47892857D02*
X115903571Y-48035714D01*
X115903571Y-48250000D01*
X115975000Y-48464285D01*
X116117857Y-48607142D01*
X116260714Y-48678571D01*
X116546428Y-48750000D01*
X116760714Y-48750000D01*
X117046428Y-48678571D01*
X117189285Y-48607142D01*
X117332142Y-48464285D01*
X117403571Y-48250000D01*
X117403571Y-48107142D01*
X117332142Y-47892857D01*
X117260714Y-47821428D01*
X116760714Y-47821428D01*
X116760714Y-48107142D01*
X116617857Y-46678571D02*
X116689285Y-46464285D01*
X116760714Y-46392857D01*
X116903571Y-46321428D01*
X117117857Y-46321428D01*
X117260714Y-46392857D01*
X117332142Y-46464285D01*
X117403571Y-46607142D01*
X117403571Y-47178571D01*
X115903571Y-47178571D01*
X115903571Y-46678571D01*
X115975000Y-46535714D01*
X116046428Y-46464285D01*
X116189285Y-46392857D01*
X116332142Y-46392857D01*
X116475000Y-46464285D01*
X116546428Y-46535714D01*
X116617857Y-46678571D01*
X116617857Y-47178571D01*
X117403571Y-44535714D02*
X115903571Y-44535714D01*
X115903571Y-44178571D01*
X115975000Y-43964285D01*
X116117857Y-43821428D01*
X116260714Y-43750000D01*
X116546428Y-43678571D01*
X116760714Y-43678571D01*
X117046428Y-43750000D01*
X117189285Y-43821428D01*
X117332142Y-43964285D01*
X117403571Y-44178571D01*
X117403571Y-44535714D01*
X117332142Y-42464285D02*
X117403571Y-42607142D01*
X117403571Y-42892857D01*
X117332142Y-43035714D01*
X117189285Y-43107142D01*
X116617857Y-43107142D01*
X116475000Y-43035714D01*
X116403571Y-42892857D01*
X116403571Y-42607142D01*
X116475000Y-42464285D01*
X116617857Y-42392857D01*
X116760714Y-42392857D01*
X116903571Y-43107142D01*
X117403571Y-41750000D02*
X116403571Y-41750000D01*
X116546428Y-41750000D02*
X116475000Y-41678571D01*
X116403571Y-41535714D01*
X116403571Y-41321428D01*
X116475000Y-41178571D01*
X116617857Y-41107142D01*
X117403571Y-41107142D01*
X116617857Y-41107142D02*
X116475000Y-41035714D01*
X116403571Y-40892857D01*
X116403571Y-40678571D01*
X116475000Y-40535714D01*
X116617857Y-40464285D01*
X117403571Y-40464285D01*
X117403571Y-39535714D02*
X117332142Y-39678571D01*
X117260714Y-39750000D01*
X117117857Y-39821428D01*
X116689285Y-39821428D01*
X116546428Y-39750000D01*
X116475000Y-39678571D01*
X116403571Y-39535714D01*
X116403571Y-39321428D01*
X116475000Y-39178571D01*
X116546428Y-39107142D01*
X116689285Y-39035714D01*
X117117857Y-39035714D01*
X117260714Y-39107142D01*
X117332142Y-39178571D01*
X117403571Y-39321428D01*
X117403571Y-39535714D01*
X117403571Y-37750000D02*
X115903571Y-37750000D01*
X117332142Y-37750000D02*
X117403571Y-37892857D01*
X117403571Y-38178571D01*
X117332142Y-38321428D01*
X117260714Y-38392857D01*
X117117857Y-38464285D01*
X116689285Y-38464285D01*
X116546428Y-38392857D01*
X116475000Y-38321428D01*
X116403571Y-38178571D01*
X116403571Y-37892857D01*
X116475000Y-37750000D01*
X116403571Y-36392857D02*
X117403571Y-36392857D01*
X116403571Y-37035714D02*
X117189285Y-37035714D01*
X117332142Y-36964285D01*
X117403571Y-36821428D01*
X117403571Y-36607142D01*
X117332142Y-36464285D01*
X117260714Y-36392857D01*
X117403571Y-35464285D02*
X117332142Y-35607142D01*
X117189285Y-35678571D01*
X115903571Y-35678571D01*
X117403571Y-34250000D02*
X116617857Y-34250000D01*
X116475000Y-34321428D01*
X116403571Y-34464285D01*
X116403571Y-34750000D01*
X116475000Y-34892857D01*
X117332142Y-34250000D02*
X117403571Y-34392857D01*
X117403571Y-34750000D01*
X117332142Y-34892857D01*
X117189285Y-34964285D01*
X117046428Y-34964285D01*
X116903571Y-34892857D01*
X116832142Y-34750000D01*
X116832142Y-34392857D01*
X116760714Y-34250000D01*
X116403571Y-33750000D02*
X116403571Y-33178571D01*
X115903571Y-33535714D02*
X117189285Y-33535714D01*
X117332142Y-33464285D01*
X117403571Y-33321428D01*
X117403571Y-33178571D01*
X117403571Y-32464285D02*
X117332142Y-32607142D01*
X117260714Y-32678571D01*
X117117857Y-32750000D01*
X116689285Y-32750000D01*
X116546428Y-32678571D01*
X116475000Y-32607142D01*
X116403571Y-32464285D01*
X116403571Y-32250000D01*
X116475000Y-32107142D01*
X116546428Y-32035714D01*
X116689285Y-31964285D01*
X117117857Y-31964285D01*
X117260714Y-32035714D01*
X117332142Y-32107142D01*
X117403571Y-32250000D01*
X117403571Y-32464285D01*
X117403571Y-31321428D02*
X116403571Y-31321428D01*
X116689285Y-31321428D02*
X116546428Y-31250000D01*
X116475000Y-31178571D01*
X116403571Y-31035714D01*
X116403571Y-30892857D01*
X118596428Y-52357142D02*
X118525000Y-52285714D01*
X118453571Y-52142857D01*
X118453571Y-51785714D01*
X118525000Y-51642857D01*
X118596428Y-51571428D01*
X118739285Y-51500000D01*
X118882142Y-51500000D01*
X119096428Y-51571428D01*
X119953571Y-52428571D01*
X119953571Y-51500000D01*
X118453571Y-50571428D02*
X118453571Y-50428571D01*
X118525000Y-50285714D01*
X118596428Y-50214285D01*
X118739285Y-50142857D01*
X119025000Y-50071428D01*
X119382142Y-50071428D01*
X119667857Y-50142857D01*
X119810714Y-50214285D01*
X119882142Y-50285714D01*
X119953571Y-50428571D01*
X119953571Y-50571428D01*
X119882142Y-50714285D01*
X119810714Y-50785714D01*
X119667857Y-50857142D01*
X119382142Y-50928571D01*
X119025000Y-50928571D01*
X118739285Y-50857142D01*
X118596428Y-50785714D01*
X118525000Y-50714285D01*
X118453571Y-50571428D01*
X118596428Y-49500000D02*
X118525000Y-49428571D01*
X118453571Y-49285714D01*
X118453571Y-48928571D01*
X118525000Y-48785714D01*
X118596428Y-48714285D01*
X118739285Y-48642857D01*
X118882142Y-48642857D01*
X119096428Y-48714285D01*
X119953571Y-49571428D01*
X119953571Y-48642857D01*
X119953571Y-47214285D02*
X119953571Y-48071428D01*
X119953571Y-47642857D02*
X118453571Y-47642857D01*
X118667857Y-47785714D01*
X118810714Y-47928571D01*
X118882142Y-48071428D01*
X119167857Y-45428571D02*
X119167857Y-44928571D01*
X119953571Y-44714285D02*
X119953571Y-45428571D01*
X118453571Y-45428571D01*
X118453571Y-44714285D01*
X119953571Y-43857142D02*
X119882142Y-44000000D01*
X119739285Y-44071428D01*
X118453571Y-44071428D01*
X119953571Y-42642857D02*
X118453571Y-42642857D01*
X119882142Y-42642857D02*
X119953571Y-42785714D01*
X119953571Y-43071428D01*
X119882142Y-43214285D01*
X119810714Y-43285714D01*
X119667857Y-43357142D01*
X119239285Y-43357142D01*
X119096428Y-43285714D01*
X119025000Y-43214285D01*
X118953571Y-43071428D01*
X118953571Y-42785714D01*
X119025000Y-42642857D01*
X119882142Y-41357142D02*
X119953571Y-41500000D01*
X119953571Y-41785714D01*
X119882142Y-41928571D01*
X119739285Y-42000000D01*
X119167857Y-42000000D01*
X119025000Y-41928571D01*
X118953571Y-41785714D01*
X118953571Y-41500000D01*
X119025000Y-41357142D01*
X119167857Y-41285714D01*
X119310714Y-41285714D01*
X119453571Y-42000000D01*
X119953571Y-40642857D02*
X118953571Y-40642857D01*
X119239285Y-40642857D02*
X119096428Y-40571428D01*
X119025000Y-40500000D01*
X118953571Y-40357142D01*
X118953571Y-40214285D01*
X118453571Y-39428571D02*
X118453571Y-39285714D01*
X118525000Y-39142857D01*
X118596428Y-39071428D01*
X118739285Y-39000000D01*
X119025000Y-38928571D01*
X119382142Y-38928571D01*
X119667857Y-39000000D01*
X119810714Y-39071428D01*
X119882142Y-39142857D01*
X119953571Y-39285714D01*
X119953571Y-39428571D01*
X119882142Y-39571428D01*
X119810714Y-39642857D01*
X119667857Y-39714285D01*
X119382142Y-39785714D01*
X119025000Y-39785714D01*
X118739285Y-39714285D01*
X118596428Y-39642857D01*
X118525000Y-39571428D01*
X118453571Y-39428571D01*
X118453571Y-38000000D02*
X118453571Y-37857142D01*
X118525000Y-37714285D01*
X118596428Y-37642857D01*
X118739285Y-37571428D01*
X119025000Y-37500000D01*
X119382142Y-37500000D01*
X119667857Y-37571428D01*
X119810714Y-37642857D01*
X119882142Y-37714285D01*
X119953571Y-37857142D01*
X119953571Y-38000000D01*
X119882142Y-38142857D01*
X119810714Y-38214285D01*
X119667857Y-38285714D01*
X119382142Y-38357142D01*
X119025000Y-38357142D01*
X118739285Y-38285714D01*
X118596428Y-38214285D01*
X118525000Y-38142857D01*
X118453571Y-38000000D01*
X119953571Y-36071428D02*
X119953571Y-36928571D01*
X119953571Y-36500000D02*
X118453571Y-36500000D01*
X118667857Y-36642857D01*
X118810714Y-36785714D01*
X118882142Y-36928571D01*
X118453571Y-35142857D02*
X118453571Y-35000000D01*
X118525000Y-34857142D01*
X118596428Y-34785714D01*
X118739285Y-34714285D01*
X119025000Y-34642857D01*
X119382142Y-34642857D01*
X119667857Y-34714285D01*
X119810714Y-34785714D01*
X119882142Y-34857142D01*
X119953571Y-35000000D01*
X119953571Y-35142857D01*
X119882142Y-35285714D01*
X119810714Y-35357142D01*
X119667857Y-35428571D01*
X119382142Y-35500000D01*
X119025000Y-35500000D01*
X118739285Y-35428571D01*
X118596428Y-35357142D01*
X118525000Y-35285714D01*
X118453571Y-35142857D01*
D11*
%TO.C,R5*%
X46927064Y-39610000D02*
X46472936Y-39610000D01*
X46927064Y-38140000D02*
X46472936Y-38140000D01*
%TO.C,R26*%
X100627064Y-59035000D02*
X100172936Y-59035000D01*
X100627064Y-57565000D02*
X100172936Y-57565000D01*
%TO.C,R25*%
X100627064Y-48468332D02*
X100172936Y-48468332D01*
X100627064Y-46998332D02*
X100172936Y-46998332D01*
%TO.C,R24*%
X100172936Y-36431666D02*
X100627064Y-36431666D01*
X100172936Y-37901666D02*
X100627064Y-37901666D01*
%TO.C,R23*%
X100172936Y-25865000D02*
X100627064Y-25865000D01*
X100172936Y-27335000D02*
X100627064Y-27335000D01*
%TO.C,J2*%
X107470000Y-52970000D02*
X110130000Y-52970000D01*
X107470000Y-37670000D02*
X107470000Y-52970000D01*
X110130000Y-37670000D02*
X110130000Y-52970000D01*
X107470000Y-37670000D02*
X110130000Y-37670000D01*
X107470000Y-36400000D02*
X107470000Y-35070000D01*
X107470000Y-35070000D02*
X108800000Y-35070000D01*
%TO.C,J1*%
X28870000Y-52970000D02*
X31530000Y-52970000D01*
X28870000Y-37670000D02*
X28870000Y-52970000D01*
X31530000Y-37670000D02*
X31530000Y-52970000D01*
X28870000Y-37670000D02*
X31530000Y-37670000D01*
X28870000Y-36400000D02*
X28870000Y-35070000D01*
X28870000Y-35070000D02*
X30200000Y-35070000D01*
%TO.C,C4*%
X73660000Y-28060000D02*
X73660000Y-27360000D01*
X73660000Y-24540000D02*
X73660000Y-25240000D01*
X71029437Y-24540000D02*
X73660000Y-24540000D01*
X71029437Y-28060000D02*
X73660000Y-28060000D01*
X70329437Y-25240000D02*
X71029437Y-24540000D01*
X70329437Y-27360000D02*
X71029437Y-28060000D01*
X69525000Y-24865000D02*
X69900000Y-24865000D01*
X69712500Y-24677500D02*
X69712500Y-25052500D01*
%TO.C,C3*%
X56260000Y-27760000D02*
X56260000Y-27060000D01*
X56260000Y-24240000D02*
X56260000Y-24940000D01*
X53629437Y-24240000D02*
X56260000Y-24240000D01*
X53629437Y-27760000D02*
X56260000Y-27760000D01*
X52929437Y-24940000D02*
X53629437Y-24240000D01*
X52929437Y-27060000D02*
X53629437Y-27760000D01*
X52125000Y-24565000D02*
X52500000Y-24565000D01*
X52312500Y-24377500D02*
X52312500Y-24752500D01*
%TO.C,C2*%
X73660000Y-60060000D02*
X73660000Y-59360000D01*
X73660000Y-56540000D02*
X73660000Y-57240000D01*
X71029437Y-56540000D02*
X73660000Y-56540000D01*
X71029437Y-60060000D02*
X73660000Y-60060000D01*
X70329437Y-57240000D02*
X71029437Y-56540000D01*
X70329437Y-59360000D02*
X71029437Y-60060000D01*
X69525000Y-56865000D02*
X69900000Y-56865000D01*
X69712500Y-56677500D02*
X69712500Y-57052500D01*
%TO.C,C1*%
X41310000Y-27910000D02*
X41310000Y-27210000D01*
X41310000Y-24390000D02*
X41310000Y-25090000D01*
X38679437Y-24390000D02*
X41310000Y-24390000D01*
X38679437Y-27910000D02*
X41310000Y-27910000D01*
X37979437Y-25090000D02*
X38679437Y-24390000D01*
X37979437Y-27210000D02*
X38679437Y-27910000D01*
X37175000Y-24715000D02*
X37550000Y-24715000D01*
X37362500Y-24527500D02*
X37362500Y-24902500D01*
%TO.C,Q2*%
X91640000Y-39220000D02*
X93100000Y-39220000D01*
X91640000Y-42380000D02*
X93800000Y-42380000D01*
X91640000Y-42380000D02*
X91640000Y-41450000D01*
X91640000Y-39220000D02*
X91640000Y-40150000D01*
%TO.C,Q3*%
X91640000Y-46670000D02*
X93100000Y-46670000D01*
X91640000Y-49830000D02*
X93800000Y-49830000D01*
X91640000Y-49830000D02*
X91640000Y-48900000D01*
X91640000Y-46670000D02*
X91640000Y-47600000D01*
%TO.C,Q4*%
X91640000Y-54470000D02*
X93100000Y-54470000D01*
X91640000Y-57630000D02*
X93800000Y-57630000D01*
X91640000Y-57630000D02*
X91640000Y-56700000D01*
X91640000Y-54470000D02*
X91640000Y-55400000D01*
%TO.C,Q1*%
X91640000Y-30970000D02*
X93100000Y-30970000D01*
X91640000Y-34130000D02*
X93800000Y-34130000D01*
X91640000Y-34130000D02*
X91640000Y-33200000D01*
X91640000Y-30970000D02*
X91640000Y-31900000D01*
%TO.C,Q9*%
X38040000Y-43870000D02*
X39500000Y-43870000D01*
X38040000Y-47030000D02*
X40200000Y-47030000D01*
X38040000Y-47030000D02*
X38040000Y-46100000D01*
X38040000Y-43870000D02*
X38040000Y-44800000D01*
%TO.C,R2*%
X46472936Y-52535000D02*
X46927064Y-52535000D01*
X46472936Y-51065000D02*
X46927064Y-51065000D01*
%TO.C,RV1 - Green*%
X85070000Y-35840000D02*
X79830000Y-35840000D01*
X85070000Y-30600000D02*
X79830000Y-30600000D01*
X85070000Y-35840000D02*
X85070000Y-34110000D01*
X85070000Y-32330000D02*
X85070000Y-30600000D01*
X79830000Y-35840000D02*
X79830000Y-35259000D01*
X79830000Y-33480000D02*
X79830000Y-32960000D01*
X79830000Y-31180000D02*
X79830000Y-30600000D01*
%TO.C,R16*%
X100627064Y-32618333D02*
X100172936Y-32618333D01*
X100627064Y-31148333D02*
X100172936Y-31148333D01*
%TO.C,R6*%
X54727064Y-39635000D02*
X54272936Y-39635000D01*
X54727064Y-38165000D02*
X54272936Y-38165000D01*
%TO.C,Q10*%
X38040000Y-50870000D02*
X39500000Y-50870000D01*
X38040000Y-54030000D02*
X40200000Y-54030000D01*
X38040000Y-54030000D02*
X38040000Y-53100000D01*
X38040000Y-50870000D02*
X38040000Y-51800000D01*
%TO.C,Q8*%
X38040000Y-36870000D02*
X39500000Y-36870000D01*
X38040000Y-40030000D02*
X40200000Y-40030000D01*
X38040000Y-40030000D02*
X38040000Y-39100000D01*
X38040000Y-36870000D02*
X38040000Y-37800000D01*
%TO.C,R10*%
X62872936Y-44615000D02*
X63327064Y-44615000D01*
X62872936Y-46085000D02*
X63327064Y-46085000D01*
%TO.C,R4*%
X63327064Y-33035000D02*
X62872936Y-33035000D01*
X63327064Y-31565000D02*
X62872936Y-31565000D01*
%TO.C,Q7*%
X62340000Y-56820000D02*
X63800000Y-56820000D01*
X62340000Y-59980000D02*
X64500000Y-59980000D01*
X62340000Y-59980000D02*
X62340000Y-59050000D01*
X62340000Y-56820000D02*
X62340000Y-57750000D01*
%TO.C,R1*%
X38572936Y-33235000D02*
X39027064Y-33235000D01*
X38572936Y-31765000D02*
X39027064Y-31765000D01*
%TO.C,R20*%
X54727064Y-33135000D02*
X54272936Y-33135000D01*
X54727064Y-31665000D02*
X54272936Y-31665000D01*
%TO.C,Q6*%
X72160000Y-46580000D02*
X70700000Y-46580000D01*
X72160000Y-43420000D02*
X70000000Y-43420000D01*
X72160000Y-43420000D02*
X72160000Y-44350000D01*
X72160000Y-46580000D02*
X72160000Y-45650000D01*
%TO.C,Q5*%
X62340000Y-36820000D02*
X63800000Y-36820000D01*
X62340000Y-39980000D02*
X64500000Y-39980000D01*
X62340000Y-39980000D02*
X62340000Y-39050000D01*
X62340000Y-36820000D02*
X62340000Y-37750000D01*
%TO.C,R3*%
X46927064Y-33135000D02*
X46472936Y-33135000D01*
X46927064Y-31665000D02*
X46472936Y-31665000D01*
%TO.C,R7*%
X46927064Y-46085000D02*
X46472936Y-46085000D01*
X46927064Y-44615000D02*
X46472936Y-44615000D01*
%TO.C,R22*%
X62872936Y-51065000D02*
X63327064Y-51065000D01*
X62872936Y-52535000D02*
X63327064Y-52535000D01*
%TO.C,R13*%
X54727064Y-59035000D02*
X54272936Y-59035000D01*
X54727064Y-57565000D02*
X54272936Y-57565000D01*
%TO.C,R11*%
X54727064Y-46085000D02*
X54272936Y-46085000D01*
X54727064Y-44615000D02*
X54272936Y-44615000D01*
%TO.C,R18*%
X71172936Y-38165000D02*
X71627064Y-38165000D01*
X71172936Y-39635000D02*
X71627064Y-39635000D01*
%TO.C,R8*%
X54727064Y-52535000D02*
X54272936Y-52535000D01*
X54727064Y-51065000D02*
X54272936Y-51065000D01*
%TO.C,R19*%
X38572936Y-57565000D02*
X39027064Y-57565000D01*
X38572936Y-59035000D02*
X39027064Y-59035000D01*
%TO.C,R9*%
X46927064Y-59035000D02*
X46472936Y-59035000D01*
X46927064Y-57565000D02*
X46472936Y-57565000D01*
%TO.C,R14*%
X100627064Y-53751665D02*
X100172936Y-53751665D01*
X100627064Y-52281665D02*
X100172936Y-52281665D01*
%TO.C,R15*%
X100627064Y-43184999D02*
X100172936Y-43184999D01*
X100627064Y-41714999D02*
X100172936Y-41714999D01*
%TO.C,R12*%
X71627064Y-52535000D02*
X71172936Y-52535000D01*
X71627064Y-51065000D02*
X71172936Y-51065000D01*
%TO.C,R21*%
X71627064Y-33035000D02*
X71172936Y-33035000D01*
X71627064Y-31565000D02*
X71172936Y-31565000D01*
%TO.C,RV3 - Blue*%
X85070000Y-57470000D02*
X79830000Y-57470000D01*
X85070000Y-52230000D02*
X79830000Y-52230000D01*
X85070000Y-57470000D02*
X85070000Y-55740000D01*
X85070000Y-53960000D02*
X85070000Y-52230000D01*
X79830000Y-57470000D02*
X79830000Y-56889000D01*
X79830000Y-55110000D02*
X79830000Y-54590000D01*
X79830000Y-52810000D02*
X79830000Y-52230000D01*
%TO.C,RV2 - Red*%
X85070000Y-46655000D02*
X79830000Y-46655000D01*
X85070000Y-41415000D02*
X79830000Y-41415000D01*
X85070000Y-46655000D02*
X85070000Y-44925000D01*
X85070000Y-43145000D02*
X85070000Y-41415000D01*
X79830000Y-46655000D02*
X79830000Y-46074000D01*
X79830000Y-44295000D02*
X79830000Y-43775000D01*
X79830000Y-41995000D02*
X79830000Y-41415000D01*
D12*
%TO.C,P6*%
X28956000Y-24130000D02*
G75*
G03*
X28956000Y-24130000I-2286000J0D01*
G01*
%TO.C,P8*%
X120396000Y-24130000D02*
G75*
G03*
X120396000Y-24130000I-2286000J0D01*
G01*
%TO.C,P9*%
X120396000Y-62230000D02*
G75*
G03*
X120396000Y-62230000I-2286000J0D01*
G01*
%TO.C,P7*%
X28956000Y-62230000D02*
G75*
G03*
X28956000Y-62230000I-2286000J0D01*
G01*
%TO.C,R5*%
X46633333Y-37752380D02*
X46300000Y-37276190D01*
X46061904Y-37752380D02*
X46061904Y-36752380D01*
X46442857Y-36752380D01*
X46538095Y-36800000D01*
X46585714Y-36847619D01*
X46633333Y-36942857D01*
X46633333Y-37085714D01*
X46585714Y-37180952D01*
X46538095Y-37228571D01*
X46442857Y-37276190D01*
X46061904Y-37276190D01*
X47538095Y-36752380D02*
X47061904Y-36752380D01*
X47014285Y-37228571D01*
X47061904Y-37180952D01*
X47157142Y-37133333D01*
X47395238Y-37133333D01*
X47490476Y-37180952D01*
X47538095Y-37228571D01*
X47585714Y-37323809D01*
X47585714Y-37561904D01*
X47538095Y-37657142D01*
X47490476Y-37704761D01*
X47395238Y-37752380D01*
X47157142Y-37752380D01*
X47061904Y-37704761D01*
X47014285Y-37657142D01*
%TO.C,R26*%
X99657142Y-57152380D02*
X99323809Y-56676190D01*
X99085714Y-57152380D02*
X99085714Y-56152380D01*
X99466666Y-56152380D01*
X99561904Y-56200000D01*
X99609523Y-56247619D01*
X99657142Y-56342857D01*
X99657142Y-56485714D01*
X99609523Y-56580952D01*
X99561904Y-56628571D01*
X99466666Y-56676190D01*
X99085714Y-56676190D01*
X100038095Y-56247619D02*
X100085714Y-56200000D01*
X100180952Y-56152380D01*
X100419047Y-56152380D01*
X100514285Y-56200000D01*
X100561904Y-56247619D01*
X100609523Y-56342857D01*
X100609523Y-56438095D01*
X100561904Y-56580952D01*
X99990476Y-57152380D01*
X100609523Y-57152380D01*
X101466666Y-56152380D02*
X101276190Y-56152380D01*
X101180952Y-56200000D01*
X101133333Y-56247619D01*
X101038095Y-56390476D01*
X100990476Y-56580952D01*
X100990476Y-56961904D01*
X101038095Y-57057142D01*
X101085714Y-57104761D01*
X101180952Y-57152380D01*
X101371428Y-57152380D01*
X101466666Y-57104761D01*
X101514285Y-57057142D01*
X101561904Y-56961904D01*
X101561904Y-56723809D01*
X101514285Y-56628571D01*
X101466666Y-56580952D01*
X101371428Y-56533333D01*
X101180952Y-56533333D01*
X101085714Y-56580952D01*
X101038095Y-56628571D01*
X100990476Y-56723809D01*
%TO.C,R25*%
X99657142Y-46560712D02*
X99323809Y-46084522D01*
X99085714Y-46560712D02*
X99085714Y-45560712D01*
X99466666Y-45560712D01*
X99561904Y-45608332D01*
X99609523Y-45655951D01*
X99657142Y-45751189D01*
X99657142Y-45894046D01*
X99609523Y-45989284D01*
X99561904Y-46036903D01*
X99466666Y-46084522D01*
X99085714Y-46084522D01*
X100038095Y-45655951D02*
X100085714Y-45608332D01*
X100180952Y-45560712D01*
X100419047Y-45560712D01*
X100514285Y-45608332D01*
X100561904Y-45655951D01*
X100609523Y-45751189D01*
X100609523Y-45846427D01*
X100561904Y-45989284D01*
X99990476Y-46560712D01*
X100609523Y-46560712D01*
X101514285Y-45560712D02*
X101038095Y-45560712D01*
X100990476Y-46036903D01*
X101038095Y-45989284D01*
X101133333Y-45941665D01*
X101371428Y-45941665D01*
X101466666Y-45989284D01*
X101514285Y-46036903D01*
X101561904Y-46132141D01*
X101561904Y-46370236D01*
X101514285Y-46465474D01*
X101466666Y-46513093D01*
X101371428Y-46560712D01*
X101133333Y-46560712D01*
X101038095Y-46513093D01*
X100990476Y-46465474D01*
%TO.C,R24*%
X99757142Y-35969046D02*
X99423809Y-35492856D01*
X99185714Y-35969046D02*
X99185714Y-34969046D01*
X99566666Y-34969046D01*
X99661904Y-35016666D01*
X99709523Y-35064285D01*
X99757142Y-35159523D01*
X99757142Y-35302380D01*
X99709523Y-35397618D01*
X99661904Y-35445237D01*
X99566666Y-35492856D01*
X99185714Y-35492856D01*
X100138095Y-35064285D02*
X100185714Y-35016666D01*
X100280952Y-34969046D01*
X100519047Y-34969046D01*
X100614285Y-35016666D01*
X100661904Y-35064285D01*
X100709523Y-35159523D01*
X100709523Y-35254761D01*
X100661904Y-35397618D01*
X100090476Y-35969046D01*
X100709523Y-35969046D01*
X101566666Y-35302380D02*
X101566666Y-35969046D01*
X101328571Y-34921427D02*
X101090476Y-35635713D01*
X101709523Y-35635713D01*
%TO.C,R23*%
X99757142Y-25402380D02*
X99423809Y-24926190D01*
X99185714Y-25402380D02*
X99185714Y-24402380D01*
X99566666Y-24402380D01*
X99661904Y-24450000D01*
X99709523Y-24497619D01*
X99757142Y-24592857D01*
X99757142Y-24735714D01*
X99709523Y-24830952D01*
X99661904Y-24878571D01*
X99566666Y-24926190D01*
X99185714Y-24926190D01*
X100138095Y-24497619D02*
X100185714Y-24450000D01*
X100280952Y-24402380D01*
X100519047Y-24402380D01*
X100614285Y-24450000D01*
X100661904Y-24497619D01*
X100709523Y-24592857D01*
X100709523Y-24688095D01*
X100661904Y-24830952D01*
X100090476Y-25402380D01*
X100709523Y-25402380D01*
X101042857Y-24402380D02*
X101661904Y-24402380D01*
X101328571Y-24783333D01*
X101471428Y-24783333D01*
X101566666Y-24830952D01*
X101614285Y-24878571D01*
X101661904Y-24973809D01*
X101661904Y-25211904D01*
X101614285Y-25307142D01*
X101566666Y-25354761D01*
X101471428Y-25402380D01*
X101185714Y-25402380D01*
X101090476Y-25354761D01*
X101042857Y-25307142D01*
%TO.C,J2*%
X108466666Y-33522380D02*
X108466666Y-34236666D01*
X108419047Y-34379523D01*
X108323809Y-34474761D01*
X108180952Y-34522380D01*
X108085714Y-34522380D01*
X108895238Y-33617619D02*
X108942857Y-33570000D01*
X109038095Y-33522380D01*
X109276190Y-33522380D01*
X109371428Y-33570000D01*
X109419047Y-33617619D01*
X109466666Y-33712857D01*
X109466666Y-33808095D01*
X109419047Y-33950952D01*
X108847619Y-34522380D01*
X109466666Y-34522380D01*
%TO.C,J1*%
X29866666Y-33522380D02*
X29866666Y-34236666D01*
X29819047Y-34379523D01*
X29723809Y-34474761D01*
X29580952Y-34522380D01*
X29485714Y-34522380D01*
X30866666Y-34522380D02*
X30295238Y-34522380D01*
X30580952Y-34522380D02*
X30580952Y-33522380D01*
X30485714Y-33665238D01*
X30390476Y-33760476D01*
X30295238Y-33808095D01*
%TO.C,C4*%
X71733333Y-24057142D02*
X71685714Y-24104761D01*
X71542857Y-24152380D01*
X71447619Y-24152380D01*
X71304761Y-24104761D01*
X71209523Y-24009523D01*
X71161904Y-23914285D01*
X71114285Y-23723809D01*
X71114285Y-23580952D01*
X71161904Y-23390476D01*
X71209523Y-23295238D01*
X71304761Y-23200000D01*
X71447619Y-23152380D01*
X71542857Y-23152380D01*
X71685714Y-23200000D01*
X71733333Y-23247619D01*
X72590476Y-23485714D02*
X72590476Y-24152380D01*
X72352380Y-23104761D02*
X72114285Y-23819047D01*
X72733333Y-23819047D01*
%TO.C,C3*%
X54333333Y-23757142D02*
X54285714Y-23804761D01*
X54142857Y-23852380D01*
X54047619Y-23852380D01*
X53904761Y-23804761D01*
X53809523Y-23709523D01*
X53761904Y-23614285D01*
X53714285Y-23423809D01*
X53714285Y-23280952D01*
X53761904Y-23090476D01*
X53809523Y-22995238D01*
X53904761Y-22900000D01*
X54047619Y-22852380D01*
X54142857Y-22852380D01*
X54285714Y-22900000D01*
X54333333Y-22947619D01*
X54666666Y-22852380D02*
X55285714Y-22852380D01*
X54952380Y-23233333D01*
X55095238Y-23233333D01*
X55190476Y-23280952D01*
X55238095Y-23328571D01*
X55285714Y-23423809D01*
X55285714Y-23661904D01*
X55238095Y-23757142D01*
X55190476Y-23804761D01*
X55095238Y-23852380D01*
X54809523Y-23852380D01*
X54714285Y-23804761D01*
X54666666Y-23757142D01*
%TO.C,C2*%
X71733333Y-55957142D02*
X71685714Y-56004761D01*
X71542857Y-56052380D01*
X71447619Y-56052380D01*
X71304761Y-56004761D01*
X71209523Y-55909523D01*
X71161904Y-55814285D01*
X71114285Y-55623809D01*
X71114285Y-55480952D01*
X71161904Y-55290476D01*
X71209523Y-55195238D01*
X71304761Y-55100000D01*
X71447619Y-55052380D01*
X71542857Y-55052380D01*
X71685714Y-55100000D01*
X71733333Y-55147619D01*
X72114285Y-55147619D02*
X72161904Y-55100000D01*
X72257142Y-55052380D01*
X72495238Y-55052380D01*
X72590476Y-55100000D01*
X72638095Y-55147619D01*
X72685714Y-55242857D01*
X72685714Y-55338095D01*
X72638095Y-55480952D01*
X72066666Y-56052380D01*
X72685714Y-56052380D01*
%TO.C,C1*%
X39383333Y-23907142D02*
X39335714Y-23954761D01*
X39192857Y-24002380D01*
X39097619Y-24002380D01*
X38954761Y-23954761D01*
X38859523Y-23859523D01*
X38811904Y-23764285D01*
X38764285Y-23573809D01*
X38764285Y-23430952D01*
X38811904Y-23240476D01*
X38859523Y-23145238D01*
X38954761Y-23050000D01*
X39097619Y-23002380D01*
X39192857Y-23002380D01*
X39335714Y-23050000D01*
X39383333Y-23097619D01*
X40335714Y-24002380D02*
X39764285Y-24002380D01*
X40050000Y-24002380D02*
X40050000Y-23002380D01*
X39954761Y-23145238D01*
X39859523Y-23240476D01*
X39764285Y-23288095D01*
%TO.C,Q2*%
X92204761Y-38747619D02*
X92109523Y-38700000D01*
X92014285Y-38604761D01*
X91871428Y-38461904D01*
X91776190Y-38414285D01*
X91680952Y-38414285D01*
X91728571Y-38652380D02*
X91633333Y-38604761D01*
X91538095Y-38509523D01*
X91490476Y-38319047D01*
X91490476Y-37985714D01*
X91538095Y-37795238D01*
X91633333Y-37700000D01*
X91728571Y-37652380D01*
X91919047Y-37652380D01*
X92014285Y-37700000D01*
X92109523Y-37795238D01*
X92157142Y-37985714D01*
X92157142Y-38319047D01*
X92109523Y-38509523D01*
X92014285Y-38604761D01*
X91919047Y-38652380D01*
X91728571Y-38652380D01*
X92538095Y-37747619D02*
X92585714Y-37700000D01*
X92680952Y-37652380D01*
X92919047Y-37652380D01*
X93014285Y-37700000D01*
X93061904Y-37747619D01*
X93109523Y-37842857D01*
X93109523Y-37938095D01*
X93061904Y-38080952D01*
X92490476Y-38652380D01*
X93109523Y-38652380D01*
%TO.C,Q3*%
X92291426Y-46347619D02*
X92196188Y-46300000D01*
X92100950Y-46204761D01*
X91958093Y-46061904D01*
X91862855Y-46014285D01*
X91767617Y-46014285D01*
X91815236Y-46252380D02*
X91719998Y-46204761D01*
X91624760Y-46109523D01*
X91577141Y-45919047D01*
X91577141Y-45585714D01*
X91624760Y-45395238D01*
X91719998Y-45300000D01*
X91815236Y-45252380D01*
X92005712Y-45252380D01*
X92100950Y-45300000D01*
X92196188Y-45395238D01*
X92243807Y-45585714D01*
X92243807Y-45919047D01*
X92196188Y-46109523D01*
X92100950Y-46204761D01*
X92005712Y-46252380D01*
X91815236Y-46252380D01*
X92577141Y-45252380D02*
X93196188Y-45252380D01*
X92862855Y-45633333D01*
X93005712Y-45633333D01*
X93100950Y-45680952D01*
X93148569Y-45728571D01*
X93196188Y-45823809D01*
X93196188Y-46061904D01*
X93148569Y-46157142D01*
X93100950Y-46204761D01*
X93005712Y-46252380D01*
X92719998Y-46252380D01*
X92624760Y-46204761D01*
X92577141Y-46157142D01*
%TO.C,Q4*%
X92304761Y-54047619D02*
X92209523Y-54000000D01*
X92114285Y-53904761D01*
X91971428Y-53761904D01*
X91876190Y-53714285D01*
X91780952Y-53714285D01*
X91828571Y-53952380D02*
X91733333Y-53904761D01*
X91638095Y-53809523D01*
X91590476Y-53619047D01*
X91590476Y-53285714D01*
X91638095Y-53095238D01*
X91733333Y-53000000D01*
X91828571Y-52952380D01*
X92019047Y-52952380D01*
X92114285Y-53000000D01*
X92209523Y-53095238D01*
X92257142Y-53285714D01*
X92257142Y-53619047D01*
X92209523Y-53809523D01*
X92114285Y-53904761D01*
X92019047Y-53952380D01*
X91828571Y-53952380D01*
X93114285Y-53285714D02*
X93114285Y-53952380D01*
X92876190Y-52904761D02*
X92638095Y-53619047D01*
X93257142Y-53619047D01*
%TO.C,Q1*%
X92304761Y-30547619D02*
X92209523Y-30500000D01*
X92114285Y-30404761D01*
X91971428Y-30261904D01*
X91876190Y-30214285D01*
X91780952Y-30214285D01*
X91828571Y-30452380D02*
X91733333Y-30404761D01*
X91638095Y-30309523D01*
X91590476Y-30119047D01*
X91590476Y-29785714D01*
X91638095Y-29595238D01*
X91733333Y-29500000D01*
X91828571Y-29452380D01*
X92019047Y-29452380D01*
X92114285Y-29500000D01*
X92209523Y-29595238D01*
X92257142Y-29785714D01*
X92257142Y-30119047D01*
X92209523Y-30309523D01*
X92114285Y-30404761D01*
X92019047Y-30452380D01*
X91828571Y-30452380D01*
X93209523Y-30452380D02*
X92638095Y-30452380D01*
X92923809Y-30452380D02*
X92923809Y-29452380D01*
X92828571Y-29595238D01*
X92733333Y-29690476D01*
X92638095Y-29738095D01*
%TO.C,Q9*%
X38754761Y-43447619D02*
X38659523Y-43400000D01*
X38564285Y-43304761D01*
X38421428Y-43161904D01*
X38326190Y-43114285D01*
X38230952Y-43114285D01*
X38278571Y-43352380D02*
X38183333Y-43304761D01*
X38088095Y-43209523D01*
X38040476Y-43019047D01*
X38040476Y-42685714D01*
X38088095Y-42495238D01*
X38183333Y-42400000D01*
X38278571Y-42352380D01*
X38469047Y-42352380D01*
X38564285Y-42400000D01*
X38659523Y-42495238D01*
X38707142Y-42685714D01*
X38707142Y-43019047D01*
X38659523Y-43209523D01*
X38564285Y-43304761D01*
X38469047Y-43352380D01*
X38278571Y-43352380D01*
X39183333Y-43352380D02*
X39373809Y-43352380D01*
X39469047Y-43304761D01*
X39516666Y-43257142D01*
X39611904Y-43114285D01*
X39659523Y-42923809D01*
X39659523Y-42542857D01*
X39611904Y-42447619D01*
X39564285Y-42400000D01*
X39469047Y-42352380D01*
X39278571Y-42352380D01*
X39183333Y-42400000D01*
X39135714Y-42447619D01*
X39088095Y-42542857D01*
X39088095Y-42780952D01*
X39135714Y-42876190D01*
X39183333Y-42923809D01*
X39278571Y-42971428D01*
X39469047Y-42971428D01*
X39564285Y-42923809D01*
X39611904Y-42876190D01*
X39659523Y-42780952D01*
%TO.C,R2*%
X46533333Y-50602380D02*
X46200000Y-50126190D01*
X45961904Y-50602380D02*
X45961904Y-49602380D01*
X46342857Y-49602380D01*
X46438095Y-49650000D01*
X46485714Y-49697619D01*
X46533333Y-49792857D01*
X46533333Y-49935714D01*
X46485714Y-50030952D01*
X46438095Y-50078571D01*
X46342857Y-50126190D01*
X45961904Y-50126190D01*
X46914285Y-49697619D02*
X46961904Y-49650000D01*
X47057142Y-49602380D01*
X47295238Y-49602380D01*
X47390476Y-49650000D01*
X47438095Y-49697619D01*
X47485714Y-49792857D01*
X47485714Y-49888095D01*
X47438095Y-50030952D01*
X46866666Y-50602380D01*
X47485714Y-50602380D01*
%TO.C,RV1 - Green*%
X78529761Y-30052380D02*
X78196428Y-29576190D01*
X77958333Y-30052380D02*
X77958333Y-29052380D01*
X78339285Y-29052380D01*
X78434523Y-29100000D01*
X78482142Y-29147619D01*
X78529761Y-29242857D01*
X78529761Y-29385714D01*
X78482142Y-29480952D01*
X78434523Y-29528571D01*
X78339285Y-29576190D01*
X77958333Y-29576190D01*
X78815476Y-29052380D02*
X79148809Y-30052380D01*
X79482142Y-29052380D01*
X80339285Y-30052380D02*
X79767857Y-30052380D01*
X80053571Y-30052380D02*
X80053571Y-29052380D01*
X79958333Y-29195238D01*
X79863095Y-29290476D01*
X79767857Y-29338095D01*
X81529761Y-29671428D02*
X82291666Y-29671428D01*
X84053571Y-29100000D02*
X83958333Y-29052380D01*
X83815476Y-29052380D01*
X83672619Y-29100000D01*
X83577380Y-29195238D01*
X83529761Y-29290476D01*
X83482142Y-29480952D01*
X83482142Y-29623809D01*
X83529761Y-29814285D01*
X83577380Y-29909523D01*
X83672619Y-30004761D01*
X83815476Y-30052380D01*
X83910714Y-30052380D01*
X84053571Y-30004761D01*
X84101190Y-29957142D01*
X84101190Y-29623809D01*
X83910714Y-29623809D01*
X84529761Y-30052380D02*
X84529761Y-29385714D01*
X84529761Y-29576190D02*
X84577380Y-29480952D01*
X84625000Y-29433333D01*
X84720238Y-29385714D01*
X84815476Y-29385714D01*
X85529761Y-30004761D02*
X85434523Y-30052380D01*
X85244047Y-30052380D01*
X85148809Y-30004761D01*
X85101190Y-29909523D01*
X85101190Y-29528571D01*
X85148809Y-29433333D01*
X85244047Y-29385714D01*
X85434523Y-29385714D01*
X85529761Y-29433333D01*
X85577380Y-29528571D01*
X85577380Y-29623809D01*
X85101190Y-29719047D01*
X86386904Y-30004761D02*
X86291666Y-30052380D01*
X86101190Y-30052380D01*
X86005952Y-30004761D01*
X85958333Y-29909523D01*
X85958333Y-29528571D01*
X86005952Y-29433333D01*
X86101190Y-29385714D01*
X86291666Y-29385714D01*
X86386904Y-29433333D01*
X86434523Y-29528571D01*
X86434523Y-29623809D01*
X85958333Y-29719047D01*
X86863095Y-29385714D02*
X86863095Y-30052380D01*
X86863095Y-29480952D02*
X86910714Y-29433333D01*
X87005952Y-29385714D01*
X87148809Y-29385714D01*
X87244047Y-29433333D01*
X87291666Y-29528571D01*
X87291666Y-30052380D01*
%TO.C,R16*%
X99757142Y-30769047D02*
X99423809Y-30292857D01*
X99185714Y-30769047D02*
X99185714Y-29769047D01*
X99566666Y-29769047D01*
X99661904Y-29816667D01*
X99709523Y-29864286D01*
X99757142Y-29959524D01*
X99757142Y-30102381D01*
X99709523Y-30197619D01*
X99661904Y-30245238D01*
X99566666Y-30292857D01*
X99185714Y-30292857D01*
X100709523Y-30769047D02*
X100138095Y-30769047D01*
X100423809Y-30769047D02*
X100423809Y-29769047D01*
X100328571Y-29911905D01*
X100233333Y-30007143D01*
X100138095Y-30054762D01*
X101566666Y-29769047D02*
X101376190Y-29769047D01*
X101280952Y-29816667D01*
X101233333Y-29864286D01*
X101138095Y-30007143D01*
X101090476Y-30197619D01*
X101090476Y-30578571D01*
X101138095Y-30673809D01*
X101185714Y-30721428D01*
X101280952Y-30769047D01*
X101471428Y-30769047D01*
X101566666Y-30721428D01*
X101614285Y-30673809D01*
X101661904Y-30578571D01*
X101661904Y-30340476D01*
X101614285Y-30245238D01*
X101566666Y-30197619D01*
X101471428Y-30150000D01*
X101280952Y-30150000D01*
X101185714Y-30197619D01*
X101138095Y-30245238D01*
X101090476Y-30340476D01*
%TO.C,R6*%
X54333333Y-37652380D02*
X54000000Y-37176190D01*
X53761904Y-37652380D02*
X53761904Y-36652380D01*
X54142857Y-36652380D01*
X54238095Y-36700000D01*
X54285714Y-36747619D01*
X54333333Y-36842857D01*
X54333333Y-36985714D01*
X54285714Y-37080952D01*
X54238095Y-37128571D01*
X54142857Y-37176190D01*
X53761904Y-37176190D01*
X55190476Y-36652380D02*
X55000000Y-36652380D01*
X54904761Y-36700000D01*
X54857142Y-36747619D01*
X54761904Y-36890476D01*
X54714285Y-37080952D01*
X54714285Y-37461904D01*
X54761904Y-37557142D01*
X54809523Y-37604761D01*
X54904761Y-37652380D01*
X55095238Y-37652380D01*
X55190476Y-37604761D01*
X55238095Y-37557142D01*
X55285714Y-37461904D01*
X55285714Y-37223809D01*
X55238095Y-37128571D01*
X55190476Y-37080952D01*
X55095238Y-37033333D01*
X54904761Y-37033333D01*
X54809523Y-37080952D01*
X54761904Y-37128571D01*
X54714285Y-37223809D01*
%TO.C,Q10*%
X38278571Y-50547619D02*
X38183333Y-50500000D01*
X38088095Y-50404761D01*
X37945238Y-50261904D01*
X37850000Y-50214285D01*
X37754761Y-50214285D01*
X37802380Y-50452380D02*
X37707142Y-50404761D01*
X37611904Y-50309523D01*
X37564285Y-50119047D01*
X37564285Y-49785714D01*
X37611904Y-49595238D01*
X37707142Y-49500000D01*
X37802380Y-49452380D01*
X37992857Y-49452380D01*
X38088095Y-49500000D01*
X38183333Y-49595238D01*
X38230952Y-49785714D01*
X38230952Y-50119047D01*
X38183333Y-50309523D01*
X38088095Y-50404761D01*
X37992857Y-50452380D01*
X37802380Y-50452380D01*
X39183333Y-50452380D02*
X38611904Y-50452380D01*
X38897619Y-50452380D02*
X38897619Y-49452380D01*
X38802380Y-49595238D01*
X38707142Y-49690476D01*
X38611904Y-49738095D01*
X39802380Y-49452380D02*
X39897619Y-49452380D01*
X39992857Y-49500000D01*
X40040476Y-49547619D01*
X40088095Y-49642857D01*
X40135714Y-49833333D01*
X40135714Y-50071428D01*
X40088095Y-50261904D01*
X40040476Y-50357142D01*
X39992857Y-50404761D01*
X39897619Y-50452380D01*
X39802380Y-50452380D01*
X39707142Y-50404761D01*
X39659523Y-50357142D01*
X39611904Y-50261904D01*
X39564285Y-50071428D01*
X39564285Y-49833333D01*
X39611904Y-49642857D01*
X39659523Y-49547619D01*
X39707142Y-49500000D01*
X39802380Y-49452380D01*
%TO.C,Q8*%
X38854761Y-36447619D02*
X38759523Y-36400000D01*
X38664285Y-36304761D01*
X38521428Y-36161904D01*
X38426190Y-36114285D01*
X38330952Y-36114285D01*
X38378571Y-36352380D02*
X38283333Y-36304761D01*
X38188095Y-36209523D01*
X38140476Y-36019047D01*
X38140476Y-35685714D01*
X38188095Y-35495238D01*
X38283333Y-35400000D01*
X38378571Y-35352380D01*
X38569047Y-35352380D01*
X38664285Y-35400000D01*
X38759523Y-35495238D01*
X38807142Y-35685714D01*
X38807142Y-36019047D01*
X38759523Y-36209523D01*
X38664285Y-36304761D01*
X38569047Y-36352380D01*
X38378571Y-36352380D01*
X39378571Y-35780952D02*
X39283333Y-35733333D01*
X39235714Y-35685714D01*
X39188095Y-35590476D01*
X39188095Y-35542857D01*
X39235714Y-35447619D01*
X39283333Y-35400000D01*
X39378571Y-35352380D01*
X39569047Y-35352380D01*
X39664285Y-35400000D01*
X39711904Y-35447619D01*
X39759523Y-35542857D01*
X39759523Y-35590476D01*
X39711904Y-35685714D01*
X39664285Y-35733333D01*
X39569047Y-35780952D01*
X39378571Y-35780952D01*
X39283333Y-35828571D01*
X39235714Y-35876190D01*
X39188095Y-35971428D01*
X39188095Y-36161904D01*
X39235714Y-36257142D01*
X39283333Y-36304761D01*
X39378571Y-36352380D01*
X39569047Y-36352380D01*
X39664285Y-36304761D01*
X39711904Y-36257142D01*
X39759523Y-36161904D01*
X39759523Y-35971428D01*
X39711904Y-35876190D01*
X39664285Y-35828571D01*
X39569047Y-35780952D01*
%TO.C,R10*%
X62457142Y-44152380D02*
X62123809Y-43676190D01*
X61885714Y-44152380D02*
X61885714Y-43152380D01*
X62266666Y-43152380D01*
X62361904Y-43200000D01*
X62409523Y-43247619D01*
X62457142Y-43342857D01*
X62457142Y-43485714D01*
X62409523Y-43580952D01*
X62361904Y-43628571D01*
X62266666Y-43676190D01*
X61885714Y-43676190D01*
X63409523Y-44152380D02*
X62838095Y-44152380D01*
X63123809Y-44152380D02*
X63123809Y-43152380D01*
X63028571Y-43295238D01*
X62933333Y-43390476D01*
X62838095Y-43438095D01*
X64028571Y-43152380D02*
X64123809Y-43152380D01*
X64219047Y-43200000D01*
X64266666Y-43247619D01*
X64314285Y-43342857D01*
X64361904Y-43533333D01*
X64361904Y-43771428D01*
X64314285Y-43961904D01*
X64266666Y-44057142D01*
X64219047Y-44104761D01*
X64123809Y-44152380D01*
X64028571Y-44152380D01*
X63933333Y-44104761D01*
X63885714Y-44057142D01*
X63838095Y-43961904D01*
X63790476Y-43771428D01*
X63790476Y-43533333D01*
X63838095Y-43342857D01*
X63885714Y-43247619D01*
X63933333Y-43200000D01*
X64028571Y-43152380D01*
%TO.C,R4*%
X62933333Y-31152380D02*
X62600000Y-30676190D01*
X62361904Y-31152380D02*
X62361904Y-30152380D01*
X62742857Y-30152380D01*
X62838095Y-30200000D01*
X62885714Y-30247619D01*
X62933333Y-30342857D01*
X62933333Y-30485714D01*
X62885714Y-30580952D01*
X62838095Y-30628571D01*
X62742857Y-30676190D01*
X62361904Y-30676190D01*
X63790476Y-30485714D02*
X63790476Y-31152380D01*
X63552380Y-30104761D02*
X63314285Y-30819047D01*
X63933333Y-30819047D01*
%TO.C,Q7*%
X63104761Y-56447619D02*
X63009523Y-56400000D01*
X62914285Y-56304761D01*
X62771428Y-56161904D01*
X62676190Y-56114285D01*
X62580952Y-56114285D01*
X62628571Y-56352380D02*
X62533333Y-56304761D01*
X62438095Y-56209523D01*
X62390476Y-56019047D01*
X62390476Y-55685714D01*
X62438095Y-55495238D01*
X62533333Y-55400000D01*
X62628571Y-55352380D01*
X62819047Y-55352380D01*
X62914285Y-55400000D01*
X63009523Y-55495238D01*
X63057142Y-55685714D01*
X63057142Y-56019047D01*
X63009523Y-56209523D01*
X62914285Y-56304761D01*
X62819047Y-56352380D01*
X62628571Y-56352380D01*
X63390476Y-55352380D02*
X64057142Y-55352380D01*
X63628571Y-56352380D01*
%TO.C,R1*%
X38633333Y-31302380D02*
X38300000Y-30826190D01*
X38061904Y-31302380D02*
X38061904Y-30302380D01*
X38442857Y-30302380D01*
X38538095Y-30350000D01*
X38585714Y-30397619D01*
X38633333Y-30492857D01*
X38633333Y-30635714D01*
X38585714Y-30730952D01*
X38538095Y-30778571D01*
X38442857Y-30826190D01*
X38061904Y-30826190D01*
X39585714Y-31302380D02*
X39014285Y-31302380D01*
X39300000Y-31302380D02*
X39300000Y-30302380D01*
X39204761Y-30445238D01*
X39109523Y-30540476D01*
X39014285Y-30588095D01*
%TO.C,R20*%
X53857142Y-31152380D02*
X53523809Y-30676190D01*
X53285714Y-31152380D02*
X53285714Y-30152380D01*
X53666666Y-30152380D01*
X53761904Y-30200000D01*
X53809523Y-30247619D01*
X53857142Y-30342857D01*
X53857142Y-30485714D01*
X53809523Y-30580952D01*
X53761904Y-30628571D01*
X53666666Y-30676190D01*
X53285714Y-30676190D01*
X54238095Y-30247619D02*
X54285714Y-30200000D01*
X54380952Y-30152380D01*
X54619047Y-30152380D01*
X54714285Y-30200000D01*
X54761904Y-30247619D01*
X54809523Y-30342857D01*
X54809523Y-30438095D01*
X54761904Y-30580952D01*
X54190476Y-31152380D01*
X54809523Y-31152380D01*
X55428571Y-30152380D02*
X55523809Y-30152380D01*
X55619047Y-30200000D01*
X55666666Y-30247619D01*
X55714285Y-30342857D01*
X55761904Y-30533333D01*
X55761904Y-30771428D01*
X55714285Y-30961904D01*
X55666666Y-31057142D01*
X55619047Y-31104761D01*
X55523809Y-31152380D01*
X55428571Y-31152380D01*
X55333333Y-31104761D01*
X55285714Y-31057142D01*
X55238095Y-30961904D01*
X55190476Y-30771428D01*
X55190476Y-30533333D01*
X55238095Y-30342857D01*
X55285714Y-30247619D01*
X55333333Y-30200000D01*
X55428571Y-30152380D01*
%TO.C,Q6*%
X71304761Y-43047619D02*
X71209523Y-43000000D01*
X71114285Y-42904761D01*
X70971428Y-42761904D01*
X70876190Y-42714285D01*
X70780952Y-42714285D01*
X70828571Y-42952380D02*
X70733333Y-42904761D01*
X70638095Y-42809523D01*
X70590476Y-42619047D01*
X70590476Y-42285714D01*
X70638095Y-42095238D01*
X70733333Y-42000000D01*
X70828571Y-41952380D01*
X71019047Y-41952380D01*
X71114285Y-42000000D01*
X71209523Y-42095238D01*
X71257142Y-42285714D01*
X71257142Y-42619047D01*
X71209523Y-42809523D01*
X71114285Y-42904761D01*
X71019047Y-42952380D01*
X70828571Y-42952380D01*
X72114285Y-41952380D02*
X71923809Y-41952380D01*
X71828571Y-42000000D01*
X71780952Y-42047619D01*
X71685714Y-42190476D01*
X71638095Y-42380952D01*
X71638095Y-42761904D01*
X71685714Y-42857142D01*
X71733333Y-42904761D01*
X71828571Y-42952380D01*
X72019047Y-42952380D01*
X72114285Y-42904761D01*
X72161904Y-42857142D01*
X72209523Y-42761904D01*
X72209523Y-42523809D01*
X72161904Y-42428571D01*
X72114285Y-42380952D01*
X72019047Y-42333333D01*
X71828571Y-42333333D01*
X71733333Y-42380952D01*
X71685714Y-42428571D01*
X71638095Y-42523809D01*
%TO.C,Q5*%
X63104761Y-36547619D02*
X63009523Y-36500000D01*
X62914285Y-36404761D01*
X62771428Y-36261904D01*
X62676190Y-36214285D01*
X62580952Y-36214285D01*
X62628571Y-36452380D02*
X62533333Y-36404761D01*
X62438095Y-36309523D01*
X62390476Y-36119047D01*
X62390476Y-35785714D01*
X62438095Y-35595238D01*
X62533333Y-35500000D01*
X62628571Y-35452380D01*
X62819047Y-35452380D01*
X62914285Y-35500000D01*
X63009523Y-35595238D01*
X63057142Y-35785714D01*
X63057142Y-36119047D01*
X63009523Y-36309523D01*
X62914285Y-36404761D01*
X62819047Y-36452380D01*
X62628571Y-36452380D01*
X63961904Y-35452380D02*
X63485714Y-35452380D01*
X63438095Y-35928571D01*
X63485714Y-35880952D01*
X63580952Y-35833333D01*
X63819047Y-35833333D01*
X63914285Y-35880952D01*
X63961904Y-35928571D01*
X64009523Y-36023809D01*
X64009523Y-36261904D01*
X63961904Y-36357142D01*
X63914285Y-36404761D01*
X63819047Y-36452380D01*
X63580952Y-36452380D01*
X63485714Y-36404761D01*
X63438095Y-36357142D01*
%TO.C,R3*%
X46533333Y-31227380D02*
X46200000Y-30751190D01*
X45961904Y-31227380D02*
X45961904Y-30227380D01*
X46342857Y-30227380D01*
X46438095Y-30275000D01*
X46485714Y-30322619D01*
X46533333Y-30417857D01*
X46533333Y-30560714D01*
X46485714Y-30655952D01*
X46438095Y-30703571D01*
X46342857Y-30751190D01*
X45961904Y-30751190D01*
X46866666Y-30227380D02*
X47485714Y-30227380D01*
X47152380Y-30608333D01*
X47295238Y-30608333D01*
X47390476Y-30655952D01*
X47438095Y-30703571D01*
X47485714Y-30798809D01*
X47485714Y-31036904D01*
X47438095Y-31132142D01*
X47390476Y-31179761D01*
X47295238Y-31227380D01*
X47009523Y-31227380D01*
X46914285Y-31179761D01*
X46866666Y-31132142D01*
%TO.C,R7*%
X46433333Y-44152380D02*
X46100000Y-43676190D01*
X45861904Y-44152380D02*
X45861904Y-43152380D01*
X46242857Y-43152380D01*
X46338095Y-43200000D01*
X46385714Y-43247619D01*
X46433333Y-43342857D01*
X46433333Y-43485714D01*
X46385714Y-43580952D01*
X46338095Y-43628571D01*
X46242857Y-43676190D01*
X45861904Y-43676190D01*
X46766666Y-43152380D02*
X47433333Y-43152380D01*
X47004761Y-44152380D01*
%TO.C,R22*%
X62457142Y-50602380D02*
X62123809Y-50126190D01*
X61885714Y-50602380D02*
X61885714Y-49602380D01*
X62266666Y-49602380D01*
X62361904Y-49650000D01*
X62409523Y-49697619D01*
X62457142Y-49792857D01*
X62457142Y-49935714D01*
X62409523Y-50030952D01*
X62361904Y-50078571D01*
X62266666Y-50126190D01*
X61885714Y-50126190D01*
X62838095Y-49697619D02*
X62885714Y-49650000D01*
X62980952Y-49602380D01*
X63219047Y-49602380D01*
X63314285Y-49650000D01*
X63361904Y-49697619D01*
X63409523Y-49792857D01*
X63409523Y-49888095D01*
X63361904Y-50030952D01*
X62790476Y-50602380D01*
X63409523Y-50602380D01*
X63790476Y-49697619D02*
X63838095Y-49650000D01*
X63933333Y-49602380D01*
X64171428Y-49602380D01*
X64266666Y-49650000D01*
X64314285Y-49697619D01*
X64361904Y-49792857D01*
X64361904Y-49888095D01*
X64314285Y-50030952D01*
X63742857Y-50602380D01*
X64361904Y-50602380D01*
%TO.C,R13*%
X53910475Y-57102380D02*
X53577142Y-56626190D01*
X53339047Y-57102380D02*
X53339047Y-56102380D01*
X53719999Y-56102380D01*
X53815237Y-56150000D01*
X53862856Y-56197619D01*
X53910475Y-56292857D01*
X53910475Y-56435714D01*
X53862856Y-56530952D01*
X53815237Y-56578571D01*
X53719999Y-56626190D01*
X53339047Y-56626190D01*
X54862856Y-57102380D02*
X54291428Y-57102380D01*
X54577142Y-57102380D02*
X54577142Y-56102380D01*
X54481904Y-56245238D01*
X54386666Y-56340476D01*
X54291428Y-56388095D01*
X55196190Y-56102380D02*
X55815237Y-56102380D01*
X55481904Y-56483333D01*
X55624761Y-56483333D01*
X55719999Y-56530952D01*
X55767618Y-56578571D01*
X55815237Y-56673809D01*
X55815237Y-56911904D01*
X55767618Y-57007142D01*
X55719999Y-57054761D01*
X55624761Y-57102380D01*
X55339047Y-57102380D01*
X55243809Y-57054761D01*
X55196190Y-57007142D01*
%TO.C,R11*%
X53857142Y-44077380D02*
X53523809Y-43601190D01*
X53285714Y-44077380D02*
X53285714Y-43077380D01*
X53666666Y-43077380D01*
X53761904Y-43125000D01*
X53809523Y-43172619D01*
X53857142Y-43267857D01*
X53857142Y-43410714D01*
X53809523Y-43505952D01*
X53761904Y-43553571D01*
X53666666Y-43601190D01*
X53285714Y-43601190D01*
X54809523Y-44077380D02*
X54238095Y-44077380D01*
X54523809Y-44077380D02*
X54523809Y-43077380D01*
X54428571Y-43220238D01*
X54333333Y-43315476D01*
X54238095Y-43363095D01*
X55761904Y-44077380D02*
X55190476Y-44077380D01*
X55476190Y-44077380D02*
X55476190Y-43077380D01*
X55380952Y-43220238D01*
X55285714Y-43315476D01*
X55190476Y-43363095D01*
%TO.C,R18*%
X70757142Y-37652380D02*
X70423809Y-37176190D01*
X70185714Y-37652380D02*
X70185714Y-36652380D01*
X70566666Y-36652380D01*
X70661904Y-36700000D01*
X70709523Y-36747619D01*
X70757142Y-36842857D01*
X70757142Y-36985714D01*
X70709523Y-37080952D01*
X70661904Y-37128571D01*
X70566666Y-37176190D01*
X70185714Y-37176190D01*
X71709523Y-37652380D02*
X71138095Y-37652380D01*
X71423809Y-37652380D02*
X71423809Y-36652380D01*
X71328571Y-36795238D01*
X71233333Y-36890476D01*
X71138095Y-36938095D01*
X72280952Y-37080952D02*
X72185714Y-37033333D01*
X72138095Y-36985714D01*
X72090476Y-36890476D01*
X72090476Y-36842857D01*
X72138095Y-36747619D01*
X72185714Y-36700000D01*
X72280952Y-36652380D01*
X72471428Y-36652380D01*
X72566666Y-36700000D01*
X72614285Y-36747619D01*
X72661904Y-36842857D01*
X72661904Y-36890476D01*
X72614285Y-36985714D01*
X72566666Y-37033333D01*
X72471428Y-37080952D01*
X72280952Y-37080952D01*
X72185714Y-37128571D01*
X72138095Y-37176190D01*
X72090476Y-37271428D01*
X72090476Y-37461904D01*
X72138095Y-37557142D01*
X72185714Y-37604761D01*
X72280952Y-37652380D01*
X72471428Y-37652380D01*
X72566666Y-37604761D01*
X72614285Y-37557142D01*
X72661904Y-37461904D01*
X72661904Y-37271428D01*
X72614285Y-37176190D01*
X72566666Y-37128571D01*
X72471428Y-37080952D01*
%TO.C,R8*%
X54333333Y-50602380D02*
X54000000Y-50126190D01*
X53761904Y-50602380D02*
X53761904Y-49602380D01*
X54142857Y-49602380D01*
X54238095Y-49650000D01*
X54285714Y-49697619D01*
X54333333Y-49792857D01*
X54333333Y-49935714D01*
X54285714Y-50030952D01*
X54238095Y-50078571D01*
X54142857Y-50126190D01*
X53761904Y-50126190D01*
X54904761Y-50030952D02*
X54809523Y-49983333D01*
X54761904Y-49935714D01*
X54714285Y-49840476D01*
X54714285Y-49792857D01*
X54761904Y-49697619D01*
X54809523Y-49650000D01*
X54904761Y-49602380D01*
X55095238Y-49602380D01*
X55190476Y-49650000D01*
X55238095Y-49697619D01*
X55285714Y-49792857D01*
X55285714Y-49840476D01*
X55238095Y-49935714D01*
X55190476Y-49983333D01*
X55095238Y-50030952D01*
X54904761Y-50030952D01*
X54809523Y-50078571D01*
X54761904Y-50126190D01*
X54714285Y-50221428D01*
X54714285Y-50411904D01*
X54761904Y-50507142D01*
X54809523Y-50554761D01*
X54904761Y-50602380D01*
X55095238Y-50602380D01*
X55190476Y-50554761D01*
X55238095Y-50507142D01*
X55285714Y-50411904D01*
X55285714Y-50221428D01*
X55238095Y-50126190D01*
X55190476Y-50078571D01*
X55095238Y-50030952D01*
%TO.C,R19*%
X38157142Y-57102380D02*
X37823809Y-56626190D01*
X37585714Y-57102380D02*
X37585714Y-56102380D01*
X37966666Y-56102380D01*
X38061904Y-56150000D01*
X38109523Y-56197619D01*
X38157142Y-56292857D01*
X38157142Y-56435714D01*
X38109523Y-56530952D01*
X38061904Y-56578571D01*
X37966666Y-56626190D01*
X37585714Y-56626190D01*
X39109523Y-57102380D02*
X38538095Y-57102380D01*
X38823809Y-57102380D02*
X38823809Y-56102380D01*
X38728571Y-56245238D01*
X38633333Y-56340476D01*
X38538095Y-56388095D01*
X39585714Y-57102380D02*
X39776190Y-57102380D01*
X39871428Y-57054761D01*
X39919047Y-57007142D01*
X40014285Y-56864285D01*
X40061904Y-56673809D01*
X40061904Y-56292857D01*
X40014285Y-56197619D01*
X39966666Y-56150000D01*
X39871428Y-56102380D01*
X39680952Y-56102380D01*
X39585714Y-56150000D01*
X39538095Y-56197619D01*
X39490476Y-56292857D01*
X39490476Y-56530952D01*
X39538095Y-56626190D01*
X39585714Y-56673809D01*
X39680952Y-56721428D01*
X39871428Y-56721428D01*
X39966666Y-56673809D01*
X40014285Y-56626190D01*
X40061904Y-56530952D01*
%TO.C,R9*%
X46533333Y-57102380D02*
X46200000Y-56626190D01*
X45961904Y-57102380D02*
X45961904Y-56102380D01*
X46342857Y-56102380D01*
X46438095Y-56150000D01*
X46485714Y-56197619D01*
X46533333Y-56292857D01*
X46533333Y-56435714D01*
X46485714Y-56530952D01*
X46438095Y-56578571D01*
X46342857Y-56626190D01*
X45961904Y-56626190D01*
X47009523Y-57102380D02*
X47200000Y-57102380D01*
X47295238Y-57054761D01*
X47342857Y-57007142D01*
X47438095Y-56864285D01*
X47485714Y-56673809D01*
X47485714Y-56292857D01*
X47438095Y-56197619D01*
X47390476Y-56150000D01*
X47295238Y-56102380D01*
X47104761Y-56102380D01*
X47009523Y-56150000D01*
X46961904Y-56197619D01*
X46914285Y-56292857D01*
X46914285Y-56530952D01*
X46961904Y-56626190D01*
X47009523Y-56673809D01*
X47104761Y-56721428D01*
X47295238Y-56721428D01*
X47390476Y-56673809D01*
X47438095Y-56626190D01*
X47485714Y-56530952D01*
%TO.C,R14*%
X99757142Y-51835713D02*
X99423809Y-51359523D01*
X99185714Y-51835713D02*
X99185714Y-50835713D01*
X99566666Y-50835713D01*
X99661904Y-50883333D01*
X99709523Y-50930952D01*
X99757142Y-51026190D01*
X99757142Y-51169047D01*
X99709523Y-51264285D01*
X99661904Y-51311904D01*
X99566666Y-51359523D01*
X99185714Y-51359523D01*
X100709523Y-51835713D02*
X100138095Y-51835713D01*
X100423809Y-51835713D02*
X100423809Y-50835713D01*
X100328571Y-50978571D01*
X100233333Y-51073809D01*
X100138095Y-51121428D01*
X101566666Y-51169047D02*
X101566666Y-51835713D01*
X101328571Y-50788094D02*
X101090476Y-51502380D01*
X101709523Y-51502380D01*
%TO.C,R15*%
X99757142Y-41302380D02*
X99423809Y-40826190D01*
X99185714Y-41302380D02*
X99185714Y-40302380D01*
X99566666Y-40302380D01*
X99661904Y-40350000D01*
X99709523Y-40397619D01*
X99757142Y-40492857D01*
X99757142Y-40635714D01*
X99709523Y-40730952D01*
X99661904Y-40778571D01*
X99566666Y-40826190D01*
X99185714Y-40826190D01*
X100709523Y-41302380D02*
X100138095Y-41302380D01*
X100423809Y-41302380D02*
X100423809Y-40302380D01*
X100328571Y-40445238D01*
X100233333Y-40540476D01*
X100138095Y-40588095D01*
X101614285Y-40302380D02*
X101138095Y-40302380D01*
X101090476Y-40778571D01*
X101138095Y-40730952D01*
X101233333Y-40683333D01*
X101471428Y-40683333D01*
X101566666Y-40730952D01*
X101614285Y-40778571D01*
X101661904Y-40873809D01*
X101661904Y-41111904D01*
X101614285Y-41207142D01*
X101566666Y-41254761D01*
X101471428Y-41302380D01*
X101233333Y-41302380D01*
X101138095Y-41254761D01*
X101090476Y-41207142D01*
%TO.C,R12*%
X70857142Y-50602380D02*
X70523809Y-50126190D01*
X70285714Y-50602380D02*
X70285714Y-49602380D01*
X70666666Y-49602380D01*
X70761904Y-49650000D01*
X70809523Y-49697619D01*
X70857142Y-49792857D01*
X70857142Y-49935714D01*
X70809523Y-50030952D01*
X70761904Y-50078571D01*
X70666666Y-50126190D01*
X70285714Y-50126190D01*
X71809523Y-50602380D02*
X71238095Y-50602380D01*
X71523809Y-50602380D02*
X71523809Y-49602380D01*
X71428571Y-49745238D01*
X71333333Y-49840476D01*
X71238095Y-49888095D01*
X72190476Y-49697619D02*
X72238095Y-49650000D01*
X72333333Y-49602380D01*
X72571428Y-49602380D01*
X72666666Y-49650000D01*
X72714285Y-49697619D01*
X72761904Y-49792857D01*
X72761904Y-49888095D01*
X72714285Y-50030952D01*
X72142857Y-50602380D01*
X72761904Y-50602380D01*
%TO.C,R21*%
X70857142Y-31152380D02*
X70523809Y-30676190D01*
X70285714Y-31152380D02*
X70285714Y-30152380D01*
X70666666Y-30152380D01*
X70761904Y-30200000D01*
X70809523Y-30247619D01*
X70857142Y-30342857D01*
X70857142Y-30485714D01*
X70809523Y-30580952D01*
X70761904Y-30628571D01*
X70666666Y-30676190D01*
X70285714Y-30676190D01*
X71238095Y-30247619D02*
X71285714Y-30200000D01*
X71380952Y-30152380D01*
X71619047Y-30152380D01*
X71714285Y-30200000D01*
X71761904Y-30247619D01*
X71809523Y-30342857D01*
X71809523Y-30438095D01*
X71761904Y-30580952D01*
X71190476Y-31152380D01*
X71809523Y-31152380D01*
X72761904Y-31152380D02*
X72190476Y-31152380D01*
X72476190Y-31152380D02*
X72476190Y-30152380D01*
X72380952Y-30295238D01*
X72285714Y-30390476D01*
X72190476Y-30438095D01*
%TO.C,RV3 - Blue*%
X79005952Y-51652380D02*
X78672619Y-51176190D01*
X78434523Y-51652380D02*
X78434523Y-50652380D01*
X78815476Y-50652380D01*
X78910714Y-50700000D01*
X78958333Y-50747619D01*
X79005952Y-50842857D01*
X79005952Y-50985714D01*
X78958333Y-51080952D01*
X78910714Y-51128571D01*
X78815476Y-51176190D01*
X78434523Y-51176190D01*
X79291666Y-50652380D02*
X79625000Y-51652380D01*
X79958333Y-50652380D01*
X80196428Y-50652380D02*
X80815476Y-50652380D01*
X80482142Y-51033333D01*
X80625000Y-51033333D01*
X80720238Y-51080952D01*
X80767857Y-51128571D01*
X80815476Y-51223809D01*
X80815476Y-51461904D01*
X80767857Y-51557142D01*
X80720238Y-51604761D01*
X80625000Y-51652380D01*
X80339285Y-51652380D01*
X80244047Y-51604761D01*
X80196428Y-51557142D01*
X82005952Y-51271428D02*
X82767857Y-51271428D01*
X84339285Y-51128571D02*
X84482142Y-51176190D01*
X84529761Y-51223809D01*
X84577380Y-51319047D01*
X84577380Y-51461904D01*
X84529761Y-51557142D01*
X84482142Y-51604761D01*
X84386904Y-51652380D01*
X84005952Y-51652380D01*
X84005952Y-50652380D01*
X84339285Y-50652380D01*
X84434523Y-50700000D01*
X84482142Y-50747619D01*
X84529761Y-50842857D01*
X84529761Y-50938095D01*
X84482142Y-51033333D01*
X84434523Y-51080952D01*
X84339285Y-51128571D01*
X84005952Y-51128571D01*
X85148809Y-51652380D02*
X85053571Y-51604761D01*
X85005952Y-51509523D01*
X85005952Y-50652380D01*
X85958333Y-50985714D02*
X85958333Y-51652380D01*
X85529761Y-50985714D02*
X85529761Y-51509523D01*
X85577380Y-51604761D01*
X85672619Y-51652380D01*
X85815476Y-51652380D01*
X85910714Y-51604761D01*
X85958333Y-51557142D01*
X86815476Y-51604761D02*
X86720238Y-51652380D01*
X86529761Y-51652380D01*
X86434523Y-51604761D01*
X86386904Y-51509523D01*
X86386904Y-51128571D01*
X86434523Y-51033333D01*
X86529761Y-50985714D01*
X86720238Y-50985714D01*
X86815476Y-51033333D01*
X86863095Y-51128571D01*
X86863095Y-51223809D01*
X86386904Y-51319047D01*
%TO.C,RV2 - Red*%
X79242857Y-40952380D02*
X78909523Y-40476190D01*
X78671428Y-40952380D02*
X78671428Y-39952380D01*
X79052380Y-39952380D01*
X79147619Y-40000000D01*
X79195238Y-40047619D01*
X79242857Y-40142857D01*
X79242857Y-40285714D01*
X79195238Y-40380952D01*
X79147619Y-40428571D01*
X79052380Y-40476190D01*
X78671428Y-40476190D01*
X79528571Y-39952380D02*
X79861904Y-40952380D01*
X80195238Y-39952380D01*
X80480952Y-40047619D02*
X80528571Y-40000000D01*
X80623809Y-39952380D01*
X80861904Y-39952380D01*
X80957142Y-40000000D01*
X81004761Y-40047619D01*
X81052380Y-40142857D01*
X81052380Y-40238095D01*
X81004761Y-40380952D01*
X80433333Y-40952380D01*
X81052380Y-40952380D01*
X82242857Y-40571428D02*
X83004761Y-40571428D01*
X84814285Y-40952380D02*
X84480952Y-40476190D01*
X84242857Y-40952380D02*
X84242857Y-39952380D01*
X84623809Y-39952380D01*
X84719047Y-40000000D01*
X84766666Y-40047619D01*
X84814285Y-40142857D01*
X84814285Y-40285714D01*
X84766666Y-40380952D01*
X84719047Y-40428571D01*
X84623809Y-40476190D01*
X84242857Y-40476190D01*
X85623809Y-40904761D02*
X85528571Y-40952380D01*
X85338095Y-40952380D01*
X85242857Y-40904761D01*
X85195238Y-40809523D01*
X85195238Y-40428571D01*
X85242857Y-40333333D01*
X85338095Y-40285714D01*
X85528571Y-40285714D01*
X85623809Y-40333333D01*
X85671428Y-40428571D01*
X85671428Y-40523809D01*
X85195238Y-40619047D01*
X86528571Y-40952380D02*
X86528571Y-39952380D01*
X86528571Y-40904761D02*
X86433333Y-40952380D01*
X86242857Y-40952380D01*
X86147619Y-40904761D01*
X86100000Y-40857142D01*
X86052380Y-40761904D01*
X86052380Y-40476190D01*
X86100000Y-40380952D01*
X86147619Y-40333333D01*
X86242857Y-40285714D01*
X86433333Y-40285714D01*
X86528571Y-40333333D01*
%TD*%
M02*
