%TF.GenerationSoftware,KiCad,Pcbnew,(5.1.10)-1*%
%TF.CreationDate,2021-10-26T22:21:35+02:00*%
%TF.ProjectId,TMS9929_RGB_Adapter,544d5339-3932-4395-9f52-47425f416461,0*%
%TF.SameCoordinates,Original*%
%TF.FileFunction,Soldermask,Top*%
%TF.FilePolarity,Negative*%
%FSLAX46Y46*%
G04 Gerber Fmt 4.6, Leading zero omitted, Abs format (unit mm)*
G04 Created by KiCad (PCBNEW (5.1.10)-1) date 2021-10-26 22:21:35*
%MOMM*%
%LPD*%
G01*
G04 APERTURE LIST*
%ADD10O,2.100000X2.100000*%
%ADD11C,4.464000*%
G04 APERTURE END LIST*
%TO.C,R5*%
G36*
G01*
X48500000Y-38308332D02*
X48500000Y-39441668D01*
G75*
G02*
X48166668Y-39775000I-333332J0D01*
G01*
X47233332Y-39775000D01*
G75*
G02*
X46900000Y-39441668I0J333332D01*
G01*
X46900000Y-38308332D01*
G75*
G02*
X47233332Y-37975000I333332J0D01*
G01*
X48166668Y-37975000D01*
G75*
G02*
X48500000Y-38308332I0J-333332D01*
G01*
G37*
G36*
G01*
X46500000Y-38308332D02*
X46500000Y-39441668D01*
G75*
G02*
X46166668Y-39775000I-333332J0D01*
G01*
X45233332Y-39775000D01*
G75*
G02*
X44900000Y-39441668I0J333332D01*
G01*
X44900000Y-38308332D01*
G75*
G02*
X45233332Y-37975000I333332J0D01*
G01*
X46166668Y-37975000D01*
G75*
G02*
X46500000Y-38308332I0J-333332D01*
G01*
G37*
%TD*%
%TO.C,R26*%
G36*
G01*
X100200000Y-57733332D02*
X100200000Y-58866668D01*
G75*
G02*
X99866668Y-59200000I-333332J0D01*
G01*
X98933332Y-59200000D01*
G75*
G02*
X98600000Y-58866668I0J333332D01*
G01*
X98600000Y-57733332D01*
G75*
G02*
X98933332Y-57400000I333332J0D01*
G01*
X99866668Y-57400000D01*
G75*
G02*
X100200000Y-57733332I0J-333332D01*
G01*
G37*
G36*
G01*
X102200000Y-57733332D02*
X102200000Y-58866668D01*
G75*
G02*
X101866668Y-59200000I-333332J0D01*
G01*
X100933332Y-59200000D01*
G75*
G02*
X100600000Y-58866668I0J333332D01*
G01*
X100600000Y-57733332D01*
G75*
G02*
X100933332Y-57400000I333332J0D01*
G01*
X101866668Y-57400000D01*
G75*
G02*
X102200000Y-57733332I0J-333332D01*
G01*
G37*
%TD*%
%TO.C,R25*%
G36*
G01*
X100200000Y-47166664D02*
X100200000Y-48300000D01*
G75*
G02*
X99866668Y-48633332I-333332J0D01*
G01*
X98933332Y-48633332D01*
G75*
G02*
X98600000Y-48300000I0J333332D01*
G01*
X98600000Y-47166664D01*
G75*
G02*
X98933332Y-46833332I333332J0D01*
G01*
X99866668Y-46833332D01*
G75*
G02*
X100200000Y-47166664I0J-333332D01*
G01*
G37*
G36*
G01*
X102200000Y-47166664D02*
X102200000Y-48300000D01*
G75*
G02*
X101866668Y-48633332I-333332J0D01*
G01*
X100933332Y-48633332D01*
G75*
G02*
X100600000Y-48300000I0J333332D01*
G01*
X100600000Y-47166664D01*
G75*
G02*
X100933332Y-46833332I333332J0D01*
G01*
X101866668Y-46833332D01*
G75*
G02*
X102200000Y-47166664I0J-333332D01*
G01*
G37*
%TD*%
%TO.C,R24*%
G36*
G01*
X100600000Y-37733334D02*
X100600000Y-36599998D01*
G75*
G02*
X100933332Y-36266666I333332J0D01*
G01*
X101866668Y-36266666D01*
G75*
G02*
X102200000Y-36599998I0J-333332D01*
G01*
X102200000Y-37733334D01*
G75*
G02*
X101866668Y-38066666I-333332J0D01*
G01*
X100933332Y-38066666D01*
G75*
G02*
X100600000Y-37733334I0J333332D01*
G01*
G37*
G36*
G01*
X98600000Y-37733334D02*
X98600000Y-36599998D01*
G75*
G02*
X98933332Y-36266666I333332J0D01*
G01*
X99866668Y-36266666D01*
G75*
G02*
X100200000Y-36599998I0J-333332D01*
G01*
X100200000Y-37733334D01*
G75*
G02*
X99866668Y-38066666I-333332J0D01*
G01*
X98933332Y-38066666D01*
G75*
G02*
X98600000Y-37733334I0J333332D01*
G01*
G37*
%TD*%
%TO.C,R23*%
G36*
G01*
X100600000Y-27166668D02*
X100600000Y-26033332D01*
G75*
G02*
X100933332Y-25700000I333332J0D01*
G01*
X101866668Y-25700000D01*
G75*
G02*
X102200000Y-26033332I0J-333332D01*
G01*
X102200000Y-27166668D01*
G75*
G02*
X101866668Y-27500000I-333332J0D01*
G01*
X100933332Y-27500000D01*
G75*
G02*
X100600000Y-27166668I0J333332D01*
G01*
G37*
G36*
G01*
X98600000Y-27166668D02*
X98600000Y-26033332D01*
G75*
G02*
X98933332Y-25700000I333332J0D01*
G01*
X99866668Y-25700000D01*
G75*
G02*
X100200000Y-26033332I0J-333332D01*
G01*
X100200000Y-27166668D01*
G75*
G02*
X99866668Y-27500000I-333332J0D01*
G01*
X98933332Y-27500000D01*
G75*
G02*
X98600000Y-27166668I0J333332D01*
G01*
G37*
%TD*%
D10*
%TO.C,J2*%
X108800000Y-51640000D03*
X108800000Y-49100000D03*
X108800000Y-46560000D03*
X108800000Y-44020000D03*
X108800000Y-41480000D03*
X108800000Y-38940000D03*
G36*
G01*
X107750000Y-37250000D02*
X107750000Y-35550000D01*
G75*
G02*
X107950000Y-35350000I200000J0D01*
G01*
X109650000Y-35350000D01*
G75*
G02*
X109850000Y-35550000I0J-200000D01*
G01*
X109850000Y-37250000D01*
G75*
G02*
X109650000Y-37450000I-200000J0D01*
G01*
X107950000Y-37450000D01*
G75*
G02*
X107750000Y-37250000I0J200000D01*
G01*
G37*
%TD*%
%TO.C,J1*%
X30200000Y-51640000D03*
X30200000Y-49100000D03*
X30200000Y-46560000D03*
X30200000Y-44020000D03*
X30200000Y-41480000D03*
X30200000Y-38940000D03*
G36*
G01*
X29150000Y-37250000D02*
X29150000Y-35550000D01*
G75*
G02*
X29350000Y-35350000I200000J0D01*
G01*
X31050000Y-35350000D01*
G75*
G02*
X31250000Y-35550000I0J-200000D01*
G01*
X31250000Y-37250000D01*
G75*
G02*
X31050000Y-37450000I-200000J0D01*
G01*
X29350000Y-37450000D01*
G75*
G02*
X29150000Y-37250000I0J200000D01*
G01*
G37*
%TD*%
%TO.C,C4*%
G36*
G01*
X72100000Y-27100000D02*
X72100000Y-25500000D01*
G75*
G02*
X72300000Y-25300000I200000J0D01*
G01*
X74500000Y-25300000D01*
G75*
G02*
X74700000Y-25500000I0J-200000D01*
G01*
X74700000Y-27100000D01*
G75*
G02*
X74500000Y-27300000I-200000J0D01*
G01*
X72300000Y-27300000D01*
G75*
G02*
X72100000Y-27100000I0J200000D01*
G01*
G37*
G36*
G01*
X69100000Y-27100000D02*
X69100000Y-25500000D01*
G75*
G02*
X69300000Y-25300000I200000J0D01*
G01*
X71500000Y-25300000D01*
G75*
G02*
X71700000Y-25500000I0J-200000D01*
G01*
X71700000Y-27100000D01*
G75*
G02*
X71500000Y-27300000I-200000J0D01*
G01*
X69300000Y-27300000D01*
G75*
G02*
X69100000Y-27100000I0J200000D01*
G01*
G37*
%TD*%
%TO.C,C3*%
G36*
G01*
X54700000Y-26800000D02*
X54700000Y-25200000D01*
G75*
G02*
X54900000Y-25000000I200000J0D01*
G01*
X57100000Y-25000000D01*
G75*
G02*
X57300000Y-25200000I0J-200000D01*
G01*
X57300000Y-26800000D01*
G75*
G02*
X57100000Y-27000000I-200000J0D01*
G01*
X54900000Y-27000000D01*
G75*
G02*
X54700000Y-26800000I0J200000D01*
G01*
G37*
G36*
G01*
X51700000Y-26800000D02*
X51700000Y-25200000D01*
G75*
G02*
X51900000Y-25000000I200000J0D01*
G01*
X54100000Y-25000000D01*
G75*
G02*
X54300000Y-25200000I0J-200000D01*
G01*
X54300000Y-26800000D01*
G75*
G02*
X54100000Y-27000000I-200000J0D01*
G01*
X51900000Y-27000000D01*
G75*
G02*
X51700000Y-26800000I0J200000D01*
G01*
G37*
%TD*%
%TO.C,C2*%
G36*
G01*
X72100000Y-59100000D02*
X72100000Y-57500000D01*
G75*
G02*
X72300000Y-57300000I200000J0D01*
G01*
X74500000Y-57300000D01*
G75*
G02*
X74700000Y-57500000I0J-200000D01*
G01*
X74700000Y-59100000D01*
G75*
G02*
X74500000Y-59300000I-200000J0D01*
G01*
X72300000Y-59300000D01*
G75*
G02*
X72100000Y-59100000I0J200000D01*
G01*
G37*
G36*
G01*
X69100000Y-59100000D02*
X69100000Y-57500000D01*
G75*
G02*
X69300000Y-57300000I200000J0D01*
G01*
X71500000Y-57300000D01*
G75*
G02*
X71700000Y-57500000I0J-200000D01*
G01*
X71700000Y-59100000D01*
G75*
G02*
X71500000Y-59300000I-200000J0D01*
G01*
X69300000Y-59300000D01*
G75*
G02*
X69100000Y-59100000I0J200000D01*
G01*
G37*
%TD*%
%TO.C,C1*%
G36*
G01*
X39750000Y-26950000D02*
X39750000Y-25350000D01*
G75*
G02*
X39950000Y-25150000I200000J0D01*
G01*
X42150000Y-25150000D01*
G75*
G02*
X42350000Y-25350000I0J-200000D01*
G01*
X42350000Y-26950000D01*
G75*
G02*
X42150000Y-27150000I-200000J0D01*
G01*
X39950000Y-27150000D01*
G75*
G02*
X39750000Y-26950000I0J200000D01*
G01*
G37*
G36*
G01*
X36750000Y-26950000D02*
X36750000Y-25350000D01*
G75*
G02*
X36950000Y-25150000I200000J0D01*
G01*
X39150000Y-25150000D01*
G75*
G02*
X39350000Y-25350000I0J-200000D01*
G01*
X39350000Y-26950000D01*
G75*
G02*
X39150000Y-27150000I-200000J0D01*
G01*
X36950000Y-27150000D01*
G75*
G02*
X36750000Y-26950000I0J200000D01*
G01*
G37*
%TD*%
%TO.C,Q2*%
G36*
G01*
X94050000Y-41350000D02*
X94050000Y-42150000D01*
G75*
G02*
X93850000Y-42350000I-200000J0D01*
G01*
X92950000Y-42350000D01*
G75*
G02*
X92750000Y-42150000I0J200000D01*
G01*
X92750000Y-41350000D01*
G75*
G02*
X92950000Y-41150000I200000J0D01*
G01*
X93850000Y-41150000D01*
G75*
G02*
X94050000Y-41350000I0J-200000D01*
G01*
G37*
G36*
G01*
X94050000Y-39450000D02*
X94050000Y-40250000D01*
G75*
G02*
X93850000Y-40450000I-200000J0D01*
G01*
X92950000Y-40450000D01*
G75*
G02*
X92750000Y-40250000I0J200000D01*
G01*
X92750000Y-39450000D01*
G75*
G02*
X92950000Y-39250000I200000J0D01*
G01*
X93850000Y-39250000D01*
G75*
G02*
X94050000Y-39450000I0J-200000D01*
G01*
G37*
G36*
G01*
X92050000Y-40400000D02*
X92050000Y-41200000D01*
G75*
G02*
X91850000Y-41400000I-200000J0D01*
G01*
X90950000Y-41400000D01*
G75*
G02*
X90750000Y-41200000I0J200000D01*
G01*
X90750000Y-40400000D01*
G75*
G02*
X90950000Y-40200000I200000J0D01*
G01*
X91850000Y-40200000D01*
G75*
G02*
X92050000Y-40400000I0J-200000D01*
G01*
G37*
%TD*%
%TO.C,Q3*%
G36*
G01*
X94050000Y-48800000D02*
X94050000Y-49600000D01*
G75*
G02*
X93850000Y-49800000I-200000J0D01*
G01*
X92950000Y-49800000D01*
G75*
G02*
X92750000Y-49600000I0J200000D01*
G01*
X92750000Y-48800000D01*
G75*
G02*
X92950000Y-48600000I200000J0D01*
G01*
X93850000Y-48600000D01*
G75*
G02*
X94050000Y-48800000I0J-200000D01*
G01*
G37*
G36*
G01*
X94050000Y-46900000D02*
X94050000Y-47700000D01*
G75*
G02*
X93850000Y-47900000I-200000J0D01*
G01*
X92950000Y-47900000D01*
G75*
G02*
X92750000Y-47700000I0J200000D01*
G01*
X92750000Y-46900000D01*
G75*
G02*
X92950000Y-46700000I200000J0D01*
G01*
X93850000Y-46700000D01*
G75*
G02*
X94050000Y-46900000I0J-200000D01*
G01*
G37*
G36*
G01*
X92050000Y-47850000D02*
X92050000Y-48650000D01*
G75*
G02*
X91850000Y-48850000I-200000J0D01*
G01*
X90950000Y-48850000D01*
G75*
G02*
X90750000Y-48650000I0J200000D01*
G01*
X90750000Y-47850000D01*
G75*
G02*
X90950000Y-47650000I200000J0D01*
G01*
X91850000Y-47650000D01*
G75*
G02*
X92050000Y-47850000I0J-200000D01*
G01*
G37*
%TD*%
%TO.C,Q4*%
G36*
G01*
X94050000Y-56600000D02*
X94050000Y-57400000D01*
G75*
G02*
X93850000Y-57600000I-200000J0D01*
G01*
X92950000Y-57600000D01*
G75*
G02*
X92750000Y-57400000I0J200000D01*
G01*
X92750000Y-56600000D01*
G75*
G02*
X92950000Y-56400000I200000J0D01*
G01*
X93850000Y-56400000D01*
G75*
G02*
X94050000Y-56600000I0J-200000D01*
G01*
G37*
G36*
G01*
X94050000Y-54700000D02*
X94050000Y-55500000D01*
G75*
G02*
X93850000Y-55700000I-200000J0D01*
G01*
X92950000Y-55700000D01*
G75*
G02*
X92750000Y-55500000I0J200000D01*
G01*
X92750000Y-54700000D01*
G75*
G02*
X92950000Y-54500000I200000J0D01*
G01*
X93850000Y-54500000D01*
G75*
G02*
X94050000Y-54700000I0J-200000D01*
G01*
G37*
G36*
G01*
X92050000Y-55650000D02*
X92050000Y-56450000D01*
G75*
G02*
X91850000Y-56650000I-200000J0D01*
G01*
X90950000Y-56650000D01*
G75*
G02*
X90750000Y-56450000I0J200000D01*
G01*
X90750000Y-55650000D01*
G75*
G02*
X90950000Y-55450000I200000J0D01*
G01*
X91850000Y-55450000D01*
G75*
G02*
X92050000Y-55650000I0J-200000D01*
G01*
G37*
%TD*%
%TO.C,Q1*%
G36*
G01*
X94050000Y-33100000D02*
X94050000Y-33900000D01*
G75*
G02*
X93850000Y-34100000I-200000J0D01*
G01*
X92950000Y-34100000D01*
G75*
G02*
X92750000Y-33900000I0J200000D01*
G01*
X92750000Y-33100000D01*
G75*
G02*
X92950000Y-32900000I200000J0D01*
G01*
X93850000Y-32900000D01*
G75*
G02*
X94050000Y-33100000I0J-200000D01*
G01*
G37*
G36*
G01*
X94050000Y-31200000D02*
X94050000Y-32000000D01*
G75*
G02*
X93850000Y-32200000I-200000J0D01*
G01*
X92950000Y-32200000D01*
G75*
G02*
X92750000Y-32000000I0J200000D01*
G01*
X92750000Y-31200000D01*
G75*
G02*
X92950000Y-31000000I200000J0D01*
G01*
X93850000Y-31000000D01*
G75*
G02*
X94050000Y-31200000I0J-200000D01*
G01*
G37*
G36*
G01*
X92050000Y-32150000D02*
X92050000Y-32950000D01*
G75*
G02*
X91850000Y-33150000I-200000J0D01*
G01*
X90950000Y-33150000D01*
G75*
G02*
X90750000Y-32950000I0J200000D01*
G01*
X90750000Y-32150000D01*
G75*
G02*
X90950000Y-31950000I200000J0D01*
G01*
X91850000Y-31950000D01*
G75*
G02*
X92050000Y-32150000I0J-200000D01*
G01*
G37*
%TD*%
%TO.C,Q9*%
G36*
G01*
X40450000Y-46000000D02*
X40450000Y-46800000D01*
G75*
G02*
X40250000Y-47000000I-200000J0D01*
G01*
X39350000Y-47000000D01*
G75*
G02*
X39150000Y-46800000I0J200000D01*
G01*
X39150000Y-46000000D01*
G75*
G02*
X39350000Y-45800000I200000J0D01*
G01*
X40250000Y-45800000D01*
G75*
G02*
X40450000Y-46000000I0J-200000D01*
G01*
G37*
G36*
G01*
X40450000Y-44100000D02*
X40450000Y-44900000D01*
G75*
G02*
X40250000Y-45100000I-200000J0D01*
G01*
X39350000Y-45100000D01*
G75*
G02*
X39150000Y-44900000I0J200000D01*
G01*
X39150000Y-44100000D01*
G75*
G02*
X39350000Y-43900000I200000J0D01*
G01*
X40250000Y-43900000D01*
G75*
G02*
X40450000Y-44100000I0J-200000D01*
G01*
G37*
G36*
G01*
X38450000Y-45050000D02*
X38450000Y-45850000D01*
G75*
G02*
X38250000Y-46050000I-200000J0D01*
G01*
X37350000Y-46050000D01*
G75*
G02*
X37150000Y-45850000I0J200000D01*
G01*
X37150000Y-45050000D01*
G75*
G02*
X37350000Y-44850000I200000J0D01*
G01*
X38250000Y-44850000D01*
G75*
G02*
X38450000Y-45050000I0J-200000D01*
G01*
G37*
%TD*%
%TO.C,R2*%
G36*
G01*
X46900000Y-52366668D02*
X46900000Y-51233332D01*
G75*
G02*
X47233332Y-50900000I333332J0D01*
G01*
X48166668Y-50900000D01*
G75*
G02*
X48500000Y-51233332I0J-333332D01*
G01*
X48500000Y-52366668D01*
G75*
G02*
X48166668Y-52700000I-333332J0D01*
G01*
X47233332Y-52700000D01*
G75*
G02*
X46900000Y-52366668I0J333332D01*
G01*
G37*
G36*
G01*
X44900000Y-52366668D02*
X44900000Y-51233332D01*
G75*
G02*
X45233332Y-50900000I333332J0D01*
G01*
X46166668Y-50900000D01*
G75*
G02*
X46500000Y-51233332I0J-333332D01*
G01*
X46500000Y-52366668D01*
G75*
G02*
X46166668Y-52700000I-333332J0D01*
G01*
X45233332Y-52700000D01*
G75*
G02*
X44900000Y-52366668I0J333332D01*
G01*
G37*
%TD*%
%TO.C,RV1 - Green*%
G36*
G01*
X80550000Y-33720000D02*
X80550000Y-35020000D01*
G75*
G02*
X80350000Y-35220000I-200000J0D01*
G01*
X79050000Y-35220000D01*
G75*
G02*
X78850000Y-35020000I0J200000D01*
G01*
X78850000Y-33720000D01*
G75*
G02*
X79050000Y-33520000I200000J0D01*
G01*
X80350000Y-33520000D01*
G75*
G02*
X80550000Y-33720000I0J-200000D01*
G01*
G37*
G36*
G01*
X86400000Y-32570000D02*
X86400000Y-33870000D01*
G75*
G02*
X86200000Y-34070000I-200000J0D01*
G01*
X84200000Y-34070000D01*
G75*
G02*
X84000000Y-33870000I0J200000D01*
G01*
X84000000Y-32570000D01*
G75*
G02*
X84200000Y-32370000I200000J0D01*
G01*
X86200000Y-32370000D01*
G75*
G02*
X86400000Y-32570000I0J-200000D01*
G01*
G37*
G36*
G01*
X80550000Y-31420000D02*
X80550000Y-32720000D01*
G75*
G02*
X80350000Y-32920000I-200000J0D01*
G01*
X79050000Y-32920000D01*
G75*
G02*
X78850000Y-32720000I0J200000D01*
G01*
X78850000Y-31420000D01*
G75*
G02*
X79050000Y-31220000I200000J0D01*
G01*
X80350000Y-31220000D01*
G75*
G02*
X80550000Y-31420000I0J-200000D01*
G01*
G37*
%TD*%
%TO.C,R16*%
G36*
G01*
X102200000Y-31316665D02*
X102200000Y-32450001D01*
G75*
G02*
X101866668Y-32783333I-333332J0D01*
G01*
X100933332Y-32783333D01*
G75*
G02*
X100600000Y-32450001I0J333332D01*
G01*
X100600000Y-31316665D01*
G75*
G02*
X100933332Y-30983333I333332J0D01*
G01*
X101866668Y-30983333D01*
G75*
G02*
X102200000Y-31316665I0J-333332D01*
G01*
G37*
G36*
G01*
X100200000Y-31316665D02*
X100200000Y-32450001D01*
G75*
G02*
X99866668Y-32783333I-333332J0D01*
G01*
X98933332Y-32783333D01*
G75*
G02*
X98600000Y-32450001I0J333332D01*
G01*
X98600000Y-31316665D01*
G75*
G02*
X98933332Y-30983333I333332J0D01*
G01*
X99866668Y-30983333D01*
G75*
G02*
X100200000Y-31316665I0J-333332D01*
G01*
G37*
%TD*%
%TO.C,R6*%
G36*
G01*
X56300000Y-38333332D02*
X56300000Y-39466668D01*
G75*
G02*
X55966668Y-39800000I-333332J0D01*
G01*
X55033332Y-39800000D01*
G75*
G02*
X54700000Y-39466668I0J333332D01*
G01*
X54700000Y-38333332D01*
G75*
G02*
X55033332Y-38000000I333332J0D01*
G01*
X55966668Y-38000000D01*
G75*
G02*
X56300000Y-38333332I0J-333332D01*
G01*
G37*
G36*
G01*
X54300000Y-38333332D02*
X54300000Y-39466668D01*
G75*
G02*
X53966668Y-39800000I-333332J0D01*
G01*
X53033332Y-39800000D01*
G75*
G02*
X52700000Y-39466668I0J333332D01*
G01*
X52700000Y-38333332D01*
G75*
G02*
X53033332Y-38000000I333332J0D01*
G01*
X53966668Y-38000000D01*
G75*
G02*
X54300000Y-38333332I0J-333332D01*
G01*
G37*
%TD*%
%TO.C,Q10*%
G36*
G01*
X40450000Y-53000000D02*
X40450000Y-53800000D01*
G75*
G02*
X40250000Y-54000000I-200000J0D01*
G01*
X39350000Y-54000000D01*
G75*
G02*
X39150000Y-53800000I0J200000D01*
G01*
X39150000Y-53000000D01*
G75*
G02*
X39350000Y-52800000I200000J0D01*
G01*
X40250000Y-52800000D01*
G75*
G02*
X40450000Y-53000000I0J-200000D01*
G01*
G37*
G36*
G01*
X40450000Y-51100000D02*
X40450000Y-51900000D01*
G75*
G02*
X40250000Y-52100000I-200000J0D01*
G01*
X39350000Y-52100000D01*
G75*
G02*
X39150000Y-51900000I0J200000D01*
G01*
X39150000Y-51100000D01*
G75*
G02*
X39350000Y-50900000I200000J0D01*
G01*
X40250000Y-50900000D01*
G75*
G02*
X40450000Y-51100000I0J-200000D01*
G01*
G37*
G36*
G01*
X38450000Y-52050000D02*
X38450000Y-52850000D01*
G75*
G02*
X38250000Y-53050000I-200000J0D01*
G01*
X37350000Y-53050000D01*
G75*
G02*
X37150000Y-52850000I0J200000D01*
G01*
X37150000Y-52050000D01*
G75*
G02*
X37350000Y-51850000I200000J0D01*
G01*
X38250000Y-51850000D01*
G75*
G02*
X38450000Y-52050000I0J-200000D01*
G01*
G37*
%TD*%
%TO.C,Q8*%
G36*
G01*
X40450000Y-39000000D02*
X40450000Y-39800000D01*
G75*
G02*
X40250000Y-40000000I-200000J0D01*
G01*
X39350000Y-40000000D01*
G75*
G02*
X39150000Y-39800000I0J200000D01*
G01*
X39150000Y-39000000D01*
G75*
G02*
X39350000Y-38800000I200000J0D01*
G01*
X40250000Y-38800000D01*
G75*
G02*
X40450000Y-39000000I0J-200000D01*
G01*
G37*
G36*
G01*
X40450000Y-37100000D02*
X40450000Y-37900000D01*
G75*
G02*
X40250000Y-38100000I-200000J0D01*
G01*
X39350000Y-38100000D01*
G75*
G02*
X39150000Y-37900000I0J200000D01*
G01*
X39150000Y-37100000D01*
G75*
G02*
X39350000Y-36900000I200000J0D01*
G01*
X40250000Y-36900000D01*
G75*
G02*
X40450000Y-37100000I0J-200000D01*
G01*
G37*
G36*
G01*
X38450000Y-38050000D02*
X38450000Y-38850000D01*
G75*
G02*
X38250000Y-39050000I-200000J0D01*
G01*
X37350000Y-39050000D01*
G75*
G02*
X37150000Y-38850000I0J200000D01*
G01*
X37150000Y-38050000D01*
G75*
G02*
X37350000Y-37850000I200000J0D01*
G01*
X38250000Y-37850000D01*
G75*
G02*
X38450000Y-38050000I0J-200000D01*
G01*
G37*
%TD*%
%TO.C,R10*%
G36*
G01*
X61300000Y-45916668D02*
X61300000Y-44783332D01*
G75*
G02*
X61633332Y-44450000I333332J0D01*
G01*
X62566668Y-44450000D01*
G75*
G02*
X62900000Y-44783332I0J-333332D01*
G01*
X62900000Y-45916668D01*
G75*
G02*
X62566668Y-46250000I-333332J0D01*
G01*
X61633332Y-46250000D01*
G75*
G02*
X61300000Y-45916668I0J333332D01*
G01*
G37*
G36*
G01*
X63300000Y-45916668D02*
X63300000Y-44783332D01*
G75*
G02*
X63633332Y-44450000I333332J0D01*
G01*
X64566668Y-44450000D01*
G75*
G02*
X64900000Y-44783332I0J-333332D01*
G01*
X64900000Y-45916668D01*
G75*
G02*
X64566668Y-46250000I-333332J0D01*
G01*
X63633332Y-46250000D01*
G75*
G02*
X63300000Y-45916668I0J333332D01*
G01*
G37*
%TD*%
%TO.C,R4*%
G36*
G01*
X64900000Y-31733332D02*
X64900000Y-32866668D01*
G75*
G02*
X64566668Y-33200000I-333332J0D01*
G01*
X63633332Y-33200000D01*
G75*
G02*
X63300000Y-32866668I0J333332D01*
G01*
X63300000Y-31733332D01*
G75*
G02*
X63633332Y-31400000I333332J0D01*
G01*
X64566668Y-31400000D01*
G75*
G02*
X64900000Y-31733332I0J-333332D01*
G01*
G37*
G36*
G01*
X62900000Y-31733332D02*
X62900000Y-32866668D01*
G75*
G02*
X62566668Y-33200000I-333332J0D01*
G01*
X61633332Y-33200000D01*
G75*
G02*
X61300000Y-32866668I0J333332D01*
G01*
X61300000Y-31733332D01*
G75*
G02*
X61633332Y-31400000I333332J0D01*
G01*
X62566668Y-31400000D01*
G75*
G02*
X62900000Y-31733332I0J-333332D01*
G01*
G37*
%TD*%
%TO.C,Q7*%
G36*
G01*
X64750000Y-58950000D02*
X64750000Y-59750000D01*
G75*
G02*
X64550000Y-59950000I-200000J0D01*
G01*
X63650000Y-59950000D01*
G75*
G02*
X63450000Y-59750000I0J200000D01*
G01*
X63450000Y-58950000D01*
G75*
G02*
X63650000Y-58750000I200000J0D01*
G01*
X64550000Y-58750000D01*
G75*
G02*
X64750000Y-58950000I0J-200000D01*
G01*
G37*
G36*
G01*
X64750000Y-57050000D02*
X64750000Y-57850000D01*
G75*
G02*
X64550000Y-58050000I-200000J0D01*
G01*
X63650000Y-58050000D01*
G75*
G02*
X63450000Y-57850000I0J200000D01*
G01*
X63450000Y-57050000D01*
G75*
G02*
X63650000Y-56850000I200000J0D01*
G01*
X64550000Y-56850000D01*
G75*
G02*
X64750000Y-57050000I0J-200000D01*
G01*
G37*
G36*
G01*
X62750000Y-58000000D02*
X62750000Y-58800000D01*
G75*
G02*
X62550000Y-59000000I-200000J0D01*
G01*
X61650000Y-59000000D01*
G75*
G02*
X61450000Y-58800000I0J200000D01*
G01*
X61450000Y-58000000D01*
G75*
G02*
X61650000Y-57800000I200000J0D01*
G01*
X62550000Y-57800000D01*
G75*
G02*
X62750000Y-58000000I0J-200000D01*
G01*
G37*
%TD*%
%TO.C,R1*%
G36*
G01*
X37000000Y-33066668D02*
X37000000Y-31933332D01*
G75*
G02*
X37333332Y-31600000I333332J0D01*
G01*
X38266668Y-31600000D01*
G75*
G02*
X38600000Y-31933332I0J-333332D01*
G01*
X38600000Y-33066668D01*
G75*
G02*
X38266668Y-33400000I-333332J0D01*
G01*
X37333332Y-33400000D01*
G75*
G02*
X37000000Y-33066668I0J333332D01*
G01*
G37*
G36*
G01*
X39000000Y-33066668D02*
X39000000Y-31933332D01*
G75*
G02*
X39333332Y-31600000I333332J0D01*
G01*
X40266668Y-31600000D01*
G75*
G02*
X40600000Y-31933332I0J-333332D01*
G01*
X40600000Y-33066668D01*
G75*
G02*
X40266668Y-33400000I-333332J0D01*
G01*
X39333332Y-33400000D01*
G75*
G02*
X39000000Y-33066668I0J333332D01*
G01*
G37*
%TD*%
%TO.C,R20*%
G36*
G01*
X56300000Y-31833332D02*
X56300000Y-32966668D01*
G75*
G02*
X55966668Y-33300000I-333332J0D01*
G01*
X55033332Y-33300000D01*
G75*
G02*
X54700000Y-32966668I0J333332D01*
G01*
X54700000Y-31833332D01*
G75*
G02*
X55033332Y-31500000I333332J0D01*
G01*
X55966668Y-31500000D01*
G75*
G02*
X56300000Y-31833332I0J-333332D01*
G01*
G37*
G36*
G01*
X54300000Y-31833332D02*
X54300000Y-32966668D01*
G75*
G02*
X53966668Y-33300000I-333332J0D01*
G01*
X53033332Y-33300000D01*
G75*
G02*
X52700000Y-32966668I0J333332D01*
G01*
X52700000Y-31833332D01*
G75*
G02*
X53033332Y-31500000I333332J0D01*
G01*
X53966668Y-31500000D01*
G75*
G02*
X54300000Y-31833332I0J-333332D01*
G01*
G37*
%TD*%
%TO.C,Q6*%
G36*
G01*
X69750000Y-44450000D02*
X69750000Y-43650000D01*
G75*
G02*
X69950000Y-43450000I200000J0D01*
G01*
X70850000Y-43450000D01*
G75*
G02*
X71050000Y-43650000I0J-200000D01*
G01*
X71050000Y-44450000D01*
G75*
G02*
X70850000Y-44650000I-200000J0D01*
G01*
X69950000Y-44650000D01*
G75*
G02*
X69750000Y-44450000I0J200000D01*
G01*
G37*
G36*
G01*
X69750000Y-46350000D02*
X69750000Y-45550000D01*
G75*
G02*
X69950000Y-45350000I200000J0D01*
G01*
X70850000Y-45350000D01*
G75*
G02*
X71050000Y-45550000I0J-200000D01*
G01*
X71050000Y-46350000D01*
G75*
G02*
X70850000Y-46550000I-200000J0D01*
G01*
X69950000Y-46550000D01*
G75*
G02*
X69750000Y-46350000I0J200000D01*
G01*
G37*
G36*
G01*
X71750000Y-45400000D02*
X71750000Y-44600000D01*
G75*
G02*
X71950000Y-44400000I200000J0D01*
G01*
X72850000Y-44400000D01*
G75*
G02*
X73050000Y-44600000I0J-200000D01*
G01*
X73050000Y-45400000D01*
G75*
G02*
X72850000Y-45600000I-200000J0D01*
G01*
X71950000Y-45600000D01*
G75*
G02*
X71750000Y-45400000I0J200000D01*
G01*
G37*
%TD*%
%TO.C,Q5*%
G36*
G01*
X64750000Y-38950000D02*
X64750000Y-39750000D01*
G75*
G02*
X64550000Y-39950000I-200000J0D01*
G01*
X63650000Y-39950000D01*
G75*
G02*
X63450000Y-39750000I0J200000D01*
G01*
X63450000Y-38950000D01*
G75*
G02*
X63650000Y-38750000I200000J0D01*
G01*
X64550000Y-38750000D01*
G75*
G02*
X64750000Y-38950000I0J-200000D01*
G01*
G37*
G36*
G01*
X64750000Y-37050000D02*
X64750000Y-37850000D01*
G75*
G02*
X64550000Y-38050000I-200000J0D01*
G01*
X63650000Y-38050000D01*
G75*
G02*
X63450000Y-37850000I0J200000D01*
G01*
X63450000Y-37050000D01*
G75*
G02*
X63650000Y-36850000I200000J0D01*
G01*
X64550000Y-36850000D01*
G75*
G02*
X64750000Y-37050000I0J-200000D01*
G01*
G37*
G36*
G01*
X62750000Y-38000000D02*
X62750000Y-38800000D01*
G75*
G02*
X62550000Y-39000000I-200000J0D01*
G01*
X61650000Y-39000000D01*
G75*
G02*
X61450000Y-38800000I0J200000D01*
G01*
X61450000Y-38000000D01*
G75*
G02*
X61650000Y-37800000I200000J0D01*
G01*
X62550000Y-37800000D01*
G75*
G02*
X62750000Y-38000000I0J-200000D01*
G01*
G37*
%TD*%
%TO.C,R3*%
G36*
G01*
X48500000Y-31833332D02*
X48500000Y-32966668D01*
G75*
G02*
X48166668Y-33300000I-333332J0D01*
G01*
X47233332Y-33300000D01*
G75*
G02*
X46900000Y-32966668I0J333332D01*
G01*
X46900000Y-31833332D01*
G75*
G02*
X47233332Y-31500000I333332J0D01*
G01*
X48166668Y-31500000D01*
G75*
G02*
X48500000Y-31833332I0J-333332D01*
G01*
G37*
G36*
G01*
X46500000Y-31833332D02*
X46500000Y-32966668D01*
G75*
G02*
X46166668Y-33300000I-333332J0D01*
G01*
X45233332Y-33300000D01*
G75*
G02*
X44900000Y-32966668I0J333332D01*
G01*
X44900000Y-31833332D01*
G75*
G02*
X45233332Y-31500000I333332J0D01*
G01*
X46166668Y-31500000D01*
G75*
G02*
X46500000Y-31833332I0J-333332D01*
G01*
G37*
%TD*%
%TO.C,R7*%
G36*
G01*
X48500000Y-44783332D02*
X48500000Y-45916668D01*
G75*
G02*
X48166668Y-46250000I-333332J0D01*
G01*
X47233332Y-46250000D01*
G75*
G02*
X46900000Y-45916668I0J333332D01*
G01*
X46900000Y-44783332D01*
G75*
G02*
X47233332Y-44450000I333332J0D01*
G01*
X48166668Y-44450000D01*
G75*
G02*
X48500000Y-44783332I0J-333332D01*
G01*
G37*
G36*
G01*
X46500000Y-44783332D02*
X46500000Y-45916668D01*
G75*
G02*
X46166668Y-46250000I-333332J0D01*
G01*
X45233332Y-46250000D01*
G75*
G02*
X44900000Y-45916668I0J333332D01*
G01*
X44900000Y-44783332D01*
G75*
G02*
X45233332Y-44450000I333332J0D01*
G01*
X46166668Y-44450000D01*
G75*
G02*
X46500000Y-44783332I0J-333332D01*
G01*
G37*
%TD*%
%TO.C,R22*%
G36*
G01*
X61300000Y-52366668D02*
X61300000Y-51233332D01*
G75*
G02*
X61633332Y-50900000I333332J0D01*
G01*
X62566668Y-50900000D01*
G75*
G02*
X62900000Y-51233332I0J-333332D01*
G01*
X62900000Y-52366668D01*
G75*
G02*
X62566668Y-52700000I-333332J0D01*
G01*
X61633332Y-52700000D01*
G75*
G02*
X61300000Y-52366668I0J333332D01*
G01*
G37*
G36*
G01*
X63300000Y-52366668D02*
X63300000Y-51233332D01*
G75*
G02*
X63633332Y-50900000I333332J0D01*
G01*
X64566668Y-50900000D01*
G75*
G02*
X64900000Y-51233332I0J-333332D01*
G01*
X64900000Y-52366668D01*
G75*
G02*
X64566668Y-52700000I-333332J0D01*
G01*
X63633332Y-52700000D01*
G75*
G02*
X63300000Y-52366668I0J333332D01*
G01*
G37*
%TD*%
%TO.C,R13*%
G36*
G01*
X56300000Y-57733332D02*
X56300000Y-58866668D01*
G75*
G02*
X55966668Y-59200000I-333332J0D01*
G01*
X55033332Y-59200000D01*
G75*
G02*
X54700000Y-58866668I0J333332D01*
G01*
X54700000Y-57733332D01*
G75*
G02*
X55033332Y-57400000I333332J0D01*
G01*
X55966668Y-57400000D01*
G75*
G02*
X56300000Y-57733332I0J-333332D01*
G01*
G37*
G36*
G01*
X54300000Y-57733332D02*
X54300000Y-58866668D01*
G75*
G02*
X53966668Y-59200000I-333332J0D01*
G01*
X53033332Y-59200000D01*
G75*
G02*
X52700000Y-58866668I0J333332D01*
G01*
X52700000Y-57733332D01*
G75*
G02*
X53033332Y-57400000I333332J0D01*
G01*
X53966668Y-57400000D01*
G75*
G02*
X54300000Y-57733332I0J-333332D01*
G01*
G37*
%TD*%
%TO.C,R11*%
G36*
G01*
X56300000Y-44783332D02*
X56300000Y-45916668D01*
G75*
G02*
X55966668Y-46250000I-333332J0D01*
G01*
X55033332Y-46250000D01*
G75*
G02*
X54700000Y-45916668I0J333332D01*
G01*
X54700000Y-44783332D01*
G75*
G02*
X55033332Y-44450000I333332J0D01*
G01*
X55966668Y-44450000D01*
G75*
G02*
X56300000Y-44783332I0J-333332D01*
G01*
G37*
G36*
G01*
X54300000Y-44783332D02*
X54300000Y-45916668D01*
G75*
G02*
X53966668Y-46250000I-333332J0D01*
G01*
X53033332Y-46250000D01*
G75*
G02*
X52700000Y-45916668I0J333332D01*
G01*
X52700000Y-44783332D01*
G75*
G02*
X53033332Y-44450000I333332J0D01*
G01*
X53966668Y-44450000D01*
G75*
G02*
X54300000Y-44783332I0J-333332D01*
G01*
G37*
%TD*%
%TO.C,R18*%
G36*
G01*
X69600000Y-39466668D02*
X69600000Y-38333332D01*
G75*
G02*
X69933332Y-38000000I333332J0D01*
G01*
X70866668Y-38000000D01*
G75*
G02*
X71200000Y-38333332I0J-333332D01*
G01*
X71200000Y-39466668D01*
G75*
G02*
X70866668Y-39800000I-333332J0D01*
G01*
X69933332Y-39800000D01*
G75*
G02*
X69600000Y-39466668I0J333332D01*
G01*
G37*
G36*
G01*
X71600000Y-39466668D02*
X71600000Y-38333332D01*
G75*
G02*
X71933332Y-38000000I333332J0D01*
G01*
X72866668Y-38000000D01*
G75*
G02*
X73200000Y-38333332I0J-333332D01*
G01*
X73200000Y-39466668D01*
G75*
G02*
X72866668Y-39800000I-333332J0D01*
G01*
X71933332Y-39800000D01*
G75*
G02*
X71600000Y-39466668I0J333332D01*
G01*
G37*
%TD*%
%TO.C,R8*%
G36*
G01*
X56300000Y-51233332D02*
X56300000Y-52366668D01*
G75*
G02*
X55966668Y-52700000I-333332J0D01*
G01*
X55033332Y-52700000D01*
G75*
G02*
X54700000Y-52366668I0J333332D01*
G01*
X54700000Y-51233332D01*
G75*
G02*
X55033332Y-50900000I333332J0D01*
G01*
X55966668Y-50900000D01*
G75*
G02*
X56300000Y-51233332I0J-333332D01*
G01*
G37*
G36*
G01*
X54300000Y-51233332D02*
X54300000Y-52366668D01*
G75*
G02*
X53966668Y-52700000I-333332J0D01*
G01*
X53033332Y-52700000D01*
G75*
G02*
X52700000Y-52366668I0J333332D01*
G01*
X52700000Y-51233332D01*
G75*
G02*
X53033332Y-50900000I333332J0D01*
G01*
X53966668Y-50900000D01*
G75*
G02*
X54300000Y-51233332I0J-333332D01*
G01*
G37*
%TD*%
%TO.C,R19*%
G36*
G01*
X37000000Y-58866668D02*
X37000000Y-57733332D01*
G75*
G02*
X37333332Y-57400000I333332J0D01*
G01*
X38266668Y-57400000D01*
G75*
G02*
X38600000Y-57733332I0J-333332D01*
G01*
X38600000Y-58866668D01*
G75*
G02*
X38266668Y-59200000I-333332J0D01*
G01*
X37333332Y-59200000D01*
G75*
G02*
X37000000Y-58866668I0J333332D01*
G01*
G37*
G36*
G01*
X39000000Y-58866668D02*
X39000000Y-57733332D01*
G75*
G02*
X39333332Y-57400000I333332J0D01*
G01*
X40266668Y-57400000D01*
G75*
G02*
X40600000Y-57733332I0J-333332D01*
G01*
X40600000Y-58866668D01*
G75*
G02*
X40266668Y-59200000I-333332J0D01*
G01*
X39333332Y-59200000D01*
G75*
G02*
X39000000Y-58866668I0J333332D01*
G01*
G37*
%TD*%
%TO.C,R9*%
G36*
G01*
X48500000Y-57733332D02*
X48500000Y-58866668D01*
G75*
G02*
X48166668Y-59200000I-333332J0D01*
G01*
X47233332Y-59200000D01*
G75*
G02*
X46900000Y-58866668I0J333332D01*
G01*
X46900000Y-57733332D01*
G75*
G02*
X47233332Y-57400000I333332J0D01*
G01*
X48166668Y-57400000D01*
G75*
G02*
X48500000Y-57733332I0J-333332D01*
G01*
G37*
G36*
G01*
X46500000Y-57733332D02*
X46500000Y-58866668D01*
G75*
G02*
X46166668Y-59200000I-333332J0D01*
G01*
X45233332Y-59200000D01*
G75*
G02*
X44900000Y-58866668I0J333332D01*
G01*
X44900000Y-57733332D01*
G75*
G02*
X45233332Y-57400000I333332J0D01*
G01*
X46166668Y-57400000D01*
G75*
G02*
X46500000Y-57733332I0J-333332D01*
G01*
G37*
%TD*%
%TO.C,R14*%
G36*
G01*
X102200000Y-52449997D02*
X102200000Y-53583333D01*
G75*
G02*
X101866668Y-53916665I-333332J0D01*
G01*
X100933332Y-53916665D01*
G75*
G02*
X100600000Y-53583333I0J333332D01*
G01*
X100600000Y-52449997D01*
G75*
G02*
X100933332Y-52116665I333332J0D01*
G01*
X101866668Y-52116665D01*
G75*
G02*
X102200000Y-52449997I0J-333332D01*
G01*
G37*
G36*
G01*
X100200000Y-52449997D02*
X100200000Y-53583333D01*
G75*
G02*
X99866668Y-53916665I-333332J0D01*
G01*
X98933332Y-53916665D01*
G75*
G02*
X98600000Y-53583333I0J333332D01*
G01*
X98600000Y-52449997D01*
G75*
G02*
X98933332Y-52116665I333332J0D01*
G01*
X99866668Y-52116665D01*
G75*
G02*
X100200000Y-52449997I0J-333332D01*
G01*
G37*
%TD*%
%TO.C,R15*%
G36*
G01*
X102200000Y-41883331D02*
X102200000Y-43016667D01*
G75*
G02*
X101866668Y-43349999I-333332J0D01*
G01*
X100933332Y-43349999D01*
G75*
G02*
X100600000Y-43016667I0J333332D01*
G01*
X100600000Y-41883331D01*
G75*
G02*
X100933332Y-41549999I333332J0D01*
G01*
X101866668Y-41549999D01*
G75*
G02*
X102200000Y-41883331I0J-333332D01*
G01*
G37*
G36*
G01*
X100200000Y-41883331D02*
X100200000Y-43016667D01*
G75*
G02*
X99866668Y-43349999I-333332J0D01*
G01*
X98933332Y-43349999D01*
G75*
G02*
X98600000Y-43016667I0J333332D01*
G01*
X98600000Y-41883331D01*
G75*
G02*
X98933332Y-41549999I333332J0D01*
G01*
X99866668Y-41549999D01*
G75*
G02*
X100200000Y-41883331I0J-333332D01*
G01*
G37*
%TD*%
%TO.C,R12*%
G36*
G01*
X73200000Y-51233332D02*
X73200000Y-52366668D01*
G75*
G02*
X72866668Y-52700000I-333332J0D01*
G01*
X71933332Y-52700000D01*
G75*
G02*
X71600000Y-52366668I0J333332D01*
G01*
X71600000Y-51233332D01*
G75*
G02*
X71933332Y-50900000I333332J0D01*
G01*
X72866668Y-50900000D01*
G75*
G02*
X73200000Y-51233332I0J-333332D01*
G01*
G37*
G36*
G01*
X71200000Y-51233332D02*
X71200000Y-52366668D01*
G75*
G02*
X70866668Y-52700000I-333332J0D01*
G01*
X69933332Y-52700000D01*
G75*
G02*
X69600000Y-52366668I0J333332D01*
G01*
X69600000Y-51233332D01*
G75*
G02*
X69933332Y-50900000I333332J0D01*
G01*
X70866668Y-50900000D01*
G75*
G02*
X71200000Y-51233332I0J-333332D01*
G01*
G37*
%TD*%
%TO.C,R21*%
G36*
G01*
X73200000Y-31733332D02*
X73200000Y-32866668D01*
G75*
G02*
X72866668Y-33200000I-333332J0D01*
G01*
X71933332Y-33200000D01*
G75*
G02*
X71600000Y-32866668I0J333332D01*
G01*
X71600000Y-31733332D01*
G75*
G02*
X71933332Y-31400000I333332J0D01*
G01*
X72866668Y-31400000D01*
G75*
G02*
X73200000Y-31733332I0J-333332D01*
G01*
G37*
G36*
G01*
X71200000Y-31733332D02*
X71200000Y-32866668D01*
G75*
G02*
X70866668Y-33200000I-333332J0D01*
G01*
X69933332Y-33200000D01*
G75*
G02*
X69600000Y-32866668I0J333332D01*
G01*
X69600000Y-31733332D01*
G75*
G02*
X69933332Y-31400000I333332J0D01*
G01*
X70866668Y-31400000D01*
G75*
G02*
X71200000Y-31733332I0J-333332D01*
G01*
G37*
%TD*%
%TO.C,RV3 - Blue*%
G36*
G01*
X80550000Y-55350000D02*
X80550000Y-56650000D01*
G75*
G02*
X80350000Y-56850000I-200000J0D01*
G01*
X79050000Y-56850000D01*
G75*
G02*
X78850000Y-56650000I0J200000D01*
G01*
X78850000Y-55350000D01*
G75*
G02*
X79050000Y-55150000I200000J0D01*
G01*
X80350000Y-55150000D01*
G75*
G02*
X80550000Y-55350000I0J-200000D01*
G01*
G37*
G36*
G01*
X86400000Y-54200000D02*
X86400000Y-55500000D01*
G75*
G02*
X86200000Y-55700000I-200000J0D01*
G01*
X84200000Y-55700000D01*
G75*
G02*
X84000000Y-55500000I0J200000D01*
G01*
X84000000Y-54200000D01*
G75*
G02*
X84200000Y-54000000I200000J0D01*
G01*
X86200000Y-54000000D01*
G75*
G02*
X86400000Y-54200000I0J-200000D01*
G01*
G37*
G36*
G01*
X80550000Y-53050000D02*
X80550000Y-54350000D01*
G75*
G02*
X80350000Y-54550000I-200000J0D01*
G01*
X79050000Y-54550000D01*
G75*
G02*
X78850000Y-54350000I0J200000D01*
G01*
X78850000Y-53050000D01*
G75*
G02*
X79050000Y-52850000I200000J0D01*
G01*
X80350000Y-52850000D01*
G75*
G02*
X80550000Y-53050000I0J-200000D01*
G01*
G37*
%TD*%
%TO.C,RV2 - Red*%
G36*
G01*
X80550000Y-44535000D02*
X80550000Y-45835000D01*
G75*
G02*
X80350000Y-46035000I-200000J0D01*
G01*
X79050000Y-46035000D01*
G75*
G02*
X78850000Y-45835000I0J200000D01*
G01*
X78850000Y-44535000D01*
G75*
G02*
X79050000Y-44335000I200000J0D01*
G01*
X80350000Y-44335000D01*
G75*
G02*
X80550000Y-44535000I0J-200000D01*
G01*
G37*
G36*
G01*
X86400000Y-43385000D02*
X86400000Y-44685000D01*
G75*
G02*
X86200000Y-44885000I-200000J0D01*
G01*
X84200000Y-44885000D01*
G75*
G02*
X84000000Y-44685000I0J200000D01*
G01*
X84000000Y-43385000D01*
G75*
G02*
X84200000Y-43185000I200000J0D01*
G01*
X86200000Y-43185000D01*
G75*
G02*
X86400000Y-43385000I0J-200000D01*
G01*
G37*
G36*
G01*
X80550000Y-42235000D02*
X80550000Y-43535000D01*
G75*
G02*
X80350000Y-43735000I-200000J0D01*
G01*
X79050000Y-43735000D01*
G75*
G02*
X78850000Y-43535000I0J200000D01*
G01*
X78850000Y-42235000D01*
G75*
G02*
X79050000Y-42035000I200000J0D01*
G01*
X80350000Y-42035000D01*
G75*
G02*
X80550000Y-42235000I0J-200000D01*
G01*
G37*
%TD*%
D11*
%TO.C,P6*%
X26670000Y-24130000D03*
%TD*%
%TO.C,P8*%
X118110000Y-24130000D03*
%TD*%
%TO.C,P9*%
X118110000Y-62230000D03*
%TD*%
%TO.C,P7*%
X26670000Y-62230000D03*
%TD*%
M02*
